<?xml version="1.0" encoding="iso-8859-1"?>
<!-- Generator: Adobe Illustrator 19.0.0, SVG Export Plug-In . SVG Version: 6.00 Build 0)  -->
<svg version="1.1" id="Capa_1" xmlns="http://www.w3.org/2000/svg" xmlns:xlink="http://www.w3.org/1999/xlink" x="0px" y="0px"
	 viewBox="0 0 512 512" style="enable-background:new 0 0 512 512;" xml:space="preserve">
<g>
	<g>
		<path d="M466.049,159.342l-9.642-29.961v-7.769C456.407,54.556,403.585,0,338.657,0H216.815
			C134.781,0,68.041,68.97,68.041,153.746v51.899c0,26.309,10.959,51.386,30.066,68.802c10.418,9.497,17.796,21.881,21.336,35.815
			l3.534,13.906c5.02,19.756,4.826,40.591-0.559,60.249L90.878,499.552c-0.811,2.962-0.194,6.132,1.668,8.573
			c1.862,2.441,4.757,3.874,7.828,3.874c0.015,0,0,0,0.015,0s0,0,0.015,0h295.355c3.005,0,5.846-1.373,7.713-3.726
			c1.868-2.354,2.559-5.432,1.876-8.357l-31.642-135.609h10.901c19.636,0,37.835-10.062,48.681-26.913l15.513-24.102
			c4.976-7.732,7.607-16.721,7.607-25.994v-48.542c0-8.136,1.855-16.278,5.364-23.55l0.513-1.061
			C470.565,196.991,471.901,177.529,466.049,159.342z M225.767,490.286c-0.066,0.754-0.462,1.233-0.783,1.502
			c-0.32,0.269-0.865,0.569-1.617,0.511l-34.821-3.047c-1.217-0.106-2.121-1.183-2.015-2.4l3.047-34.823
			c0.066-0.755,0.463-1.234,0.783-1.503c0.321-0.269,0.854-0.573,1.618-0.51l3.857,0.338l4.343,0.38l26.619,2.329
			c1.217,0.106,2.121,1.184,2.015,2.401L225.767,490.286z M227.535,413.592c0,0.001,0,0.001,0,0.002l-1.615,18.456
			c-0.028,0.319-0.166,0.586-0.413,0.793c-0.244,0.205-0.526,0.299-0.848,0.267c-0.001,0-0.001,0-0.002,0l-4.343-0.38l-22.763-1.991
			c-0.318-0.029-0.584-0.166-0.79-0.412c-0.206-0.245-0.296-0.531-0.268-0.849l1.614-18.447c0-0.004,0.001-0.007,0.001-0.011
			c0-0.003,0-0.007,0-0.01l1.614-18.449c0.053-0.605,0.562-1.062,1.16-1.062c0.034,0,0.068,0.002,0.102,0.005l7.629,0.668
			l15.893,1.39c0.001,0,0.002,0,0.004,0l3.581,0.313c0.318,0.028,0.585,0.166,0.791,0.412c0.205,0.245,0.295,0.531,0.267,0.851
			L227.535,413.592z M227.779,354.311c0,0.001,0,0.001,0,0.002l-1.716,19.617l-11.159-0.976l-8.458-0.739l3.431-39.234l19.617,1.716
			L227.779,354.311z M444.548,205.586l-0.513,1.062c-4.789,9.924-7.322,21.025-7.322,32.107v48.543
			c0,5.485-1.547,10.789-4.474,15.336l-15.513,24.102c-7.203,11.195-19.212,17.879-32.121,17.879h-23.309
			c-3.005,0-5.846,1.373-7.713,3.726c-1.868,2.354-2.559,5.432-1.876,8.357l31.643,135.609h-138.01
			c0.011-0.102,0.032-0.203,0.041-0.306l0.666-7.602l9.81,0.859c0.291,0.026,0.582,0.038,0.869,0.038
			c5.049,0,9.349-3.864,9.797-8.989c0.474-5.417-3.534-10.194-8.95-10.667l-9.81-0.859l0.666-7.601
			c0.524-5.992-1.429-11.64-5.006-15.931c1.138-2.276,1.878-4.798,2.113-7.483l0.756-8.649l9.809,0.859
			c0.291,0.026,0.582,0.038,0.869,0.038c5.049,0,9.349-3.864,9.797-8.99c0.474-5.416-3.534-10.193-8.95-10.666l-9.809-0.859
			l0.756-8.647c0.479-5.46-1.173-10.774-4.635-15.008c0.817-1.896,1.35-3.924,1.535-6.041l0.872-9.968l9.809,0.859
			c0.291,0.026,0.582,0.038,0.869,0.038c5.049,0,9.349-3.864,9.797-8.99c0.474-5.416-3.534-10.193-8.95-10.666l-9.809-0.859
			l0.872-9.969c0.455-5.198-1.141-10.262-4.496-14.257c-3.353-3.997-8.062-6.447-13.26-6.902l-0.161-0.013l0.684-7.829
			c0.474-5.417-3.534-10.193-8.951-10.666c-5.432-0.482-10.194,3.535-10.666,8.951l-0.684,7.828l-0.159-0.014
			c-5.205-0.459-10.262,1.141-14.257,4.494c-3.998,3.354-6.448,8.063-6.902,13.261l-0.872,9.969l-9.81-0.859
			c-5.414-0.483-10.194,3.534-10.666,8.951c-0.474,5.416,3.534,10.193,8.95,10.666l9.81,0.859l-0.872,9.968
			c-0.185,2.12-0.012,4.213,0.465,6.226c-3.976,3.426-6.682,8.334-7.174,13.963l-0.757,8.65l-9.809-0.859
			c-5.409-0.482-10.193,3.533-10.666,8.951c-0.474,5.416,3.534,10.193,8.95,10.666l9.809,0.859l-0.757,8.65
			c-0.231,2.646,0.049,5.254,0.779,7.726c-4.453,3.759-7.186,9.022-7.694,14.828l-0.666,7.602l-9.81-0.859
			c-5.405-0.488-10.193,3.533-10.666,8.951c-0.474,5.416,3.534,10.193,8.95,10.666l9.81,0.859l-0.666,7.601
			c-0.215,2.445,0,4.857,0.571,7.172H113.28l28.129-102.688c6.285-22.939,6.51-47.247,0.654-70.301l-3.534-13.906
			c-4.492-17.681-13.883-33.422-27.158-45.52c-15.022-13.693-23.639-33.465-23.639-54.248v-51.899
			c0-73.92,57.906-134.056,129.081-134.056h121.842c54.069,0,98.058,45.722,98.058,101.921v9.313c0,1.024,0.159,2.041,0.473,3.016
			l10.115,31.432C451.538,178.531,450.534,193.187,444.548,205.586z"/>
	</g>
</g>
<g>
	<g>
		<path d="M91.592,344.615H52.208c-5.437,0-9.846,4.409-9.846,9.846c0,5.437,4.409,9.846,9.846,9.846h39.385
			c5.438,0,9.846-4.409,9.846-9.846C101.438,349.024,97.029,344.615,91.592,344.615z"/>
	</g>
</g>
<g>
	<g>
		<path d="M98.579,308.271l-19.692-19.825c-3.834-3.86-10.067-3.879-13.924-0.047c-3.859,3.832-3.879,10.067-0.047,13.924
			l19.692,19.825c1.925,1.939,4.454,2.908,6.986,2.908c2.509,0,5.019-0.953,6.939-2.86
			C102.39,318.364,102.411,312.129,98.579,308.271z"/>
	</g>
</g>
<g>
	<g>
		<path d="M98.555,386.884c-3.846-3.844-10.078-3.844-13.925,0l-19.692,19.692c-3.845,3.845-3.845,10.08,0,13.925
			c1.923,1.922,4.443,2.884,6.962,2.884c2.52,0,5.039-0.962,6.962-2.884l19.692-19.692C102.4,396.963,102.4,390.729,98.555,386.884z
			"/>
	</g>
</g>
<g>
</g>
<g>
</g>
<g>
</g>
<g>
</g>
<g>
</g>
<g>
</g>
<g>
</g>
<g>
</g>
<g>
</g>
<g>
</g>
<g>
</g>
<g>
</g>
<g>
</g>
<g>
</g>
<g>
</g>
</svg>
