<?xml version="1.0" encoding="iso-8859-1"?>
<!-- Generator: Adobe Illustrator 19.0.0, SVG Export Plug-In . SVG Version: 6.00 Build 0)  -->
<svg version="1.1" id="Capa_1" xmlns="http://www.w3.org/2000/svg" xmlns:xlink="http://www.w3.org/1999/xlink" x="0px" y="0px"
	 viewBox="0 0 512.001 512.001" style="enable-background:new 0 0 512.001 512.001;" xml:space="preserve">
<g>
	<g>
		<path d="M463.39,331.377c-1.36-1.206-2.801-2.337-4.328-3.372c-0.328-0.223-0.667-0.42-0.998-0.632
			c-0.043-0.027-0.082-0.057-0.125-0.083c-0.011-0.007-0.023-0.011-0.033-0.018c-0.2-0.126-0.397-0.256-0.598-0.379
			c-0.158-0.096-0.31-0.204-0.47-0.297c-0.036-0.022-0.075-0.04-0.112-0.062c-10.521-6.172-23.205-7.504-34.861-3.653
			c-0.836,0.277-1.667,0.579-2.492,0.909l-1.225,0.489c-27.943,11.175-58.834,13.984-88.282,8.21
			c-4.316-0.847-8.6-1.875-12.839-3.09l-38.515-11.045c-0.006-0.002-0.012-0.003-0.018-0.005l-37.284-10.693V9.846
			c0-5.437-4.409-9.846-9.846-9.846H44.286c-5.437,0-9.846,4.409-9.846,9.846l-0.001,206.772c0,0.013,0,0.026,0,0.038v137.815
			c0,0.021,0,0.04,0,0.061v98.349c0,0.03,0.001,0.059,0.001,0.088c0.021,26.203,17.195,48.458,40.873,56.146
			c0.148,0.055,0.297,0.103,0.447,0.152c5.608,1.77,11.572,2.73,17.757,2.73h0.001h65.161c23.104,0,45.623-7.909,63.644-22.315
			c10.262-3.057,20.865-3.739,30.779-1.963c3.972,0.711,7.864,1.775,11.635,3.178c2.263,0.842,4.481,1.806,6.647,2.889
			c12.943,6.472,26.729,11.271,40.892,14.319c0.44,0.132,0.882,0.225,1.326,0.293c11.486,2.379,23.211,3.6,34.929,3.6h5.893
			c0.01,0,0.02,0.002,0.03,0.002c0.01,0,0.02-0.002,0.031-0.002h35.855c4.207,0,8.416-0.311,12.583-0.922
			c9.166-1.344,18.126-4.142,26.405-8.282c29.72-14.861,48.189-44.732,48.2-77.958c0.006-19.607,0.018-42.264,0.035-61.887
			C477.573,350.775,472.355,339.328,463.39,331.377z M54.133,108.307h44.329c5.437,0,9.846-4.409,9.846-9.846
			c0-5.437-4.409-9.846-9.846-9.846H54.133V19.692h167.384V128H54.133V108.307z M54.133,147.692h167.383v40.366l-167.383,17.62
			V147.692z M54.133,225.479l167.383-17.62v57.986h-54.131v-9.846c0-5.437-4.409-9.846-9.846-9.846H98.462
			c-5.437,0-9.846,4.409-9.846,9.846v9.846H54.133V225.479z M147.694,265.845v19.692h-39.384v-19.692H147.694z M54.133,285.537
			h34.483v9.846c0,5.437,4.409,9.846,9.846,9.846h59.077c5.437,0,9.846-4.409,9.846-9.846v-9.846h54.131v21.549L54.133,342.326
			V285.537z M54.133,362.449l176.865-37.235l18.791,5.389c-0.01,0.006-195.645,105.795-195.656,105.8V362.449z M77.208,488.756
			c-11.958-5.465-20.724-16.733-22.665-30.188l62.032-33.543l23.97,16.063L77.208,488.756z M158.678,492.306H105.24l52.63-39.61
			l42.306,28.349C187.651,488.36,173.312,492.306,158.678,492.306z M229.941,467.936c-3.584,0.504-7.16,1.23-10.706,2.176
			l-83.083-55.673l140.688-76.077l22.747,6.523L229.941,467.936z M309.029,487.089c-9.951-2.66-19.635-6.314-28.838-10.916
			c-7.462-3.731-15.41-6.368-23.618-7.839c-1.29-0.231-2.589-0.424-3.893-0.592l66.47-117.437c1.008,0.24,2.016,0.477,3.028,0.699
			c12.617,2.774,25.498,4.126,38.37,4.087L309.029,487.089z M348.847,492.306h-0.317c-6.644,0-13.288-0.458-19.88-1.329
			l53.58-137.278c14.772-1.861,29.324-5.574,43.226-11.134l1.223-0.488c0.001,0,0.001-0.001,0.002-0.001l0.002-0.001
			c1.191-0.477,2.399-0.842,3.614-1.118c2.773-0.629,5.577-0.737,8.309-0.334L348.847,492.306z M457.832,424.831
			c-0.005,17.683-6.765,34.139-18.465,46.436c-1.596,1.677-3.283,3.276-5.058,4.791c-1.183,1.009-2.405,1.982-3.665,2.913
			c-3.149,2.331-6.531,4.411-10.126,6.209c-9.322,4.661-19.759,7.125-30.181,7.125h-18.607l83.195-140.59
			c1.691,2.944,2.697,6.27,2.904,9.803c0.028,0.468,0.041,0.938,0.04,1.413C457.848,382.559,457.839,405.22,457.832,424.831z"/>
	</g>
</g>
<g>
	<g>
		<path d="M134.962,91.5c-1.83-1.831-4.371-2.885-6.96-2.885s-5.13,1.053-6.961,2.885c-1.831,1.832-2.885,4.372-2.885,6.961
			c0,2.589,1.053,5.13,2.885,6.96c1.831,1.832,4.372,2.886,6.961,2.886s5.13-1.054,6.96-2.886c1.831-1.83,2.886-4.371,2.886-6.96
			C137.848,95.872,136.794,93.331,134.962,91.5z"/>
	</g>
</g>
<g>
</g>
<g>
</g>
<g>
</g>
<g>
</g>
<g>
</g>
<g>
</g>
<g>
</g>
<g>
</g>
<g>
</g>
<g>
</g>
<g>
</g>
<g>
</g>
<g>
</g>
<g>
</g>
<g>
</g>
</svg>
