<?xml version="1.0" encoding="iso-8859-1"?>
<!-- Generator: Adobe Illustrator 19.0.0, SVG Export Plug-In . SVG Version: 6.00 Build 0)  -->
<svg version="1.1" id="Capa_1" xmlns="http://www.w3.org/2000/svg" xmlns:xlink="http://www.w3.org/1999/xlink" x="0px" y="0px"
	 viewBox="0 0 512 512" style="enable-background:new 0 0 512 512;" xml:space="preserve">
<g>
	<g>
		<path d="M341.506,366.306V145.694c30.463-9.772,51.822-38.467,51.822-71.07C393.328,33.476,359.852,0,318.704,0
			c-27.686,0-51.898,15.153-64.778,37.603C241.048,15.153,216.836,0,189.15,0c-41.148,0-74.624,33.476-74.624,74.624
			c0,32.603,21.359,61.297,51.822,71.07v220.613c-30.463,9.772-51.822,38.467-51.822,71.07c0,41.148,33.476,74.624,74.624,74.624
			c27.686,0,51.898-15.153,64.778-37.603C266.806,496.847,291.019,512,318.704,512c41.148,0,74.624-33.476,74.624-74.624
			C393.328,404.773,371.969,376.08,341.506,366.306z M134.219,74.624c0-30.29,24.642-54.932,54.932-54.932
			s54.932,24.642,54.932,54.932c0,5.438,4.408,9.846,9.846,9.846c5.438,0,9.846-4.408,9.846-9.846
			c0-30.29,24.642-54.932,54.932-54.932c30.289,0,54.932,24.642,54.932,54.932c0,26.023-18.477,48.662-43.936,53.829
			c-4.589,0.931-7.887,4.966-7.887,9.649v111.886l-28.561,14.667l-74.307-37.154c-0.056-0.029-0.115-0.046-0.172-0.074
			c-0.243-0.116-0.491-0.222-0.745-0.319c-0.097-0.037-0.194-0.073-0.291-0.106c-0.255-0.088-0.515-0.162-0.779-0.229
			c-0.093-0.024-0.184-0.051-0.278-0.072c-0.289-0.064-0.584-0.112-0.882-0.151c-0.065-0.009-0.13-0.023-0.195-0.03
			c-0.349-0.037-0.702-0.059-1.06-0.059c-0.01,0-0.02,0.001-0.03,0.001c-0.068,0-0.135,0.009-0.203,0.01
			c-0.299,0.007-0.596,0.024-0.888,0.056c-0.1,0.012-0.2,0.031-0.3,0.045c-0.265,0.038-0.526,0.084-0.784,0.143
			c-0.102,0.024-0.203,0.051-0.304,0.078c-0.259,0.068-0.513,0.146-0.763,0.233c-0.096,0.033-0.19,0.067-0.285,0.104
			c-0.267,0.103-0.527,0.219-0.783,0.345c-0.052,0.026-0.107,0.043-0.16,0.071l-24.004,12.326V138.102
			c0-4.683-3.298-8.718-7.887-9.649C152.696,123.285,134.219,100.646,134.219,74.624z M318.704,492.308
			c-30.29,0-54.932-24.642-54.932-54.932c0-5.438-4.408-9.846-9.846-9.846s-9.846,4.408-9.846,9.846
			c0,30.29-24.642,54.932-54.932,54.932c-30.289,0-54.932-24.642-54.932-54.932c0-26.023,18.477-48.662,43.936-53.829
			c4.589-0.931,7.887-4.966,7.887-9.649V262.012l18.656-9.579v42.952c0,5.438,4.408,9.846,9.846,9.846s9.846-4.408,9.846-9.846
			v-43.146l64.52,32.26c1.386,0.693,2.895,1.04,4.403,1.04c1.543,0,3.087-0.363,4.498-1.087l24.004-12.326v101.773
			c0,4.683,3.298,8.718,7.887,9.649c25.457,5.168,43.935,27.807,43.935,53.829C373.636,467.666,348.994,492.308,318.704,492.308z"/>
	</g>
</g>
<g>
	<g>
		<path d="M450.85,246.154h-59.077c-5.438,0-9.846,4.408-9.846,9.846s4.408,9.846,9.846,9.846h59.077
			c5.438,0,9.846-4.408,9.846-9.846S456.289,246.154,450.85,246.154z"/>
	</g>
</g>
<g>
	<g>
		<path d="M120.226,246.154H61.15c-5.438,0-9.846,4.408-9.846,9.846s4.408,9.846,9.846,9.846h59.077
			c5.438,0,9.846-4.408,9.846-9.846S125.664,246.154,120.226,246.154z"/>
	</g>
</g>
<g>
	<g>
		<path d="M433.272,153.652c-2.719-4.709-8.741-6.324-13.45-3.604l-51.163,29.538c-4.709,2.719-6.323,8.74-3.604,13.45
			c1.823,3.159,5.133,4.924,8.536,4.924c1.67,0,3.363-0.425,4.914-1.32l51.163-29.538
			C434.378,164.383,435.992,158.362,433.272,153.652z"/>
	</g>
</g>
<g>
	<g>
		<path d="M146.944,318.963c-2.72-4.71-8.74-6.324-13.45-3.604l-51.162,29.538c-4.709,2.719-6.323,8.74-3.604,13.45
			c1.823,3.159,5.133,4.924,8.536,4.924c1.67,0,3.363-0.425,4.914-1.32l51.162-29.538
			C148.05,329.695,149.664,323.673,146.944,318.963z"/>
	</g>
</g>
<g>
	<g>
		<path d="M429.668,344.898l-51.163-29.538c-4.71-2.719-10.731-1.107-13.45,3.604c-2.719,4.709-1.106,10.731,3.604,13.45
			l51.163,29.538c1.551,0.895,3.243,1.32,4.914,1.32c3.403,0,6.712-1.765,8.536-4.924
			C435.992,353.638,434.378,347.617,429.668,344.898z"/>
	</g>
</g>
<g>
	<g>
		<path d="M143.339,179.587l-51.162-29.538c-4.707-2.718-10.73-1.105-13.45,3.604c-2.719,4.708-1.105,10.731,3.604,13.45
			l51.162,29.538c1.551,0.895,3.243,1.32,4.914,1.32c3.403,0,6.712-1.765,8.536-4.924
			C149.663,188.327,148.049,182.305,143.339,179.587z"/>
	</g>
</g>
<g>
	<g>
		<path d="M221.504,317.962c-1.831-1.831-4.372-2.885-6.961-2.885s-5.13,1.054-6.961,2.885c-1.831,1.831-2.885,4.372-2.885,6.961
			s1.054,5.13,2.885,6.961c1.831,1.831,4.372,2.885,6.961,2.885s5.13-1.054,6.961-2.885c1.831-1.831,2.885-4.372,2.885-6.961
			S223.335,319.793,221.504,317.962z"/>
	</g>
</g>
<g>
</g>
<g>
</g>
<g>
</g>
<g>
</g>
<g>
</g>
<g>
</g>
<g>
</g>
<g>
</g>
<g>
</g>
<g>
</g>
<g>
</g>
<g>
</g>
<g>
</g>
<g>
</g>
<g>
</g>
</svg>
