<?xml version="1.0" encoding="iso-8859-1"?>
<!-- Generator: Adobe Illustrator 19.0.0, SVG Export Plug-In . SVG Version: 6.00 Build 0)  -->
<svg version="1.1" id="Capa_1" xmlns="http://www.w3.org/2000/svg" xmlns:xlink="http://www.w3.org/1999/xlink" x="0px" y="0px"
	 viewBox="0 0 512 512" style="enable-background:new 0 0 512 512;" xml:space="preserve">
<g>
	<g>
		<path d="M502.154,118.154H384V29.538c0-5.438-4.408-9.846-9.846-9.846H9.846C4.408,19.692,0,24.1,0,29.538v275.692
			c0,5.438,4.408,9.846,9.846,9.846h19.692V384c0,3.51,1.868,6.754,4.904,8.516c1.527,0.887,3.234,1.33,4.942,1.33
			c1.685,0,3.371-0.432,4.885-1.297l123.115-70.352v81.495c0,5.438,4.408,9.846,9.846,9.846h154.923l135.576,77.472
			c1.514,0.865,3.2,1.297,4.885,1.297c1.707,0,3.415-0.444,4.942-1.33c3.038-1.761,4.905-5.006,4.905-8.516v-68.923h19.692
			c5.438,0,9.846-4.408,9.846-9.846V128C512,122.562,507.592,118.154,502.154,118.154z M176.056,295.461
			c-0.101,0.012-0.202,0.031-0.303,0.046c-0.3,0.045-0.596,0.103-0.886,0.174c-0.096,0.024-0.192,0.047-0.287,0.074
			c-0.345,0.096-0.682,0.208-1.01,0.34c-0.031,0.012-0.062,0.021-0.092,0.033c-0.368,0.152-0.724,0.327-1.067,0.521
			c-0.021,0.012-0.043,0.02-0.065,0.032L49.231,367.033v-61.802c0-5.438-4.408-9.846-9.846-9.846H19.692v-256h344.615v256H177.231
			C176.833,295.385,176.442,295.415,176.056,295.461z M492.308,393.846h-19.692c-5.438,0-9.846,4.408-9.846,9.846v61.802
			l-123.115-70.352c-1.488-0.85-3.172-1.297-4.885-1.297H187.077v-39.385h49.231c5.438,0,9.846-4.408,9.846-9.846
			c0-5.438-4.408-9.846-9.846-9.846h-49.231v-19.692h187.077c5.438,0,9.846-4.408,9.846-9.846V137.846h108.308V393.846z"/>
	</g>
</g>
<g>
	<g>
		<path d="M272.807,337.654c-1.831-1.831-4.372-2.885-6.961-2.885s-5.13,1.054-6.961,2.885c-1.831,1.831-2.885,4.372-2.885,6.961
			c0,2.59,1.054,5.13,2.885,6.961c1.831,1.831,4.372,2.885,6.961,2.885s5.13-1.054,6.961-2.885c1.831-1.831,2.885-4.372,2.885-6.961
			C275.692,342.026,274.639,339.486,272.807,337.654z"/>
	</g>
</g>
<g>
	<g>
		<path d="M177.231,68.923H59.077c-5.438,0-9.846,4.408-9.846,9.846v39.385c0,5.438,4.408,9.846,9.846,9.846h118.154
			c5.438,0,9.846-4.408,9.846-9.846V78.769C187.077,73.331,182.669,68.923,177.231,68.923z M167.385,108.308H68.923V88.615h98.462
			V108.308z"/>
	</g>
</g>
<g>
	<g>
		<path d="M315.077,167.385h-256c-5.438,0-9.846,4.408-9.846,9.846v39.385c0,5.438,4.408,9.846,9.846,9.846h256
			c5.438,0,9.846-4.408,9.846-9.846v-39.385C324.923,171.793,320.515,167.385,315.077,167.385z M305.231,206.769H68.923v-19.692
			h236.308V206.769z"/>
	</g>
</g>
<g>
</g>
<g>
</g>
<g>
</g>
<g>
</g>
<g>
</g>
<g>
</g>
<g>
</g>
<g>
</g>
<g>
</g>
<g>
</g>
<g>
</g>
<g>
</g>
<g>
</g>
<g>
</g>
<g>
</g>
</svg>
