<?xml version="1.0" encoding="iso-8859-1"?>
<!-- Generator: Adobe Illustrator 19.0.0, SVG Export Plug-In . SVG Version: 6.00 Build 0)  -->
<svg version="1.1" id="Capa_1" xmlns="http://www.w3.org/2000/svg" xmlns:xlink="http://www.w3.org/1999/xlink" x="0px" y="0px"
	 viewBox="0 0 511.999 511.999" style="enable-background:new 0 0 511.999 511.999;" xml:space="preserve" fill="white">
<g>
	<g>
		<path d="M96.078,392.929c-1.832-1.841-4.362-2.885-6.962-2.885c-2.59,0-5.13,1.044-6.962,2.885
			c-1.831,1.831-2.885,4.362-2.885,6.962c0,2.59,1.054,5.13,2.885,6.962c1.832,1.831,4.372,2.885,6.962,2.885
			c2.6,0,5.13-1.054,6.962-2.885c1.841-1.831,2.885-4.372,2.885-6.962C98.963,397.291,97.919,394.76,96.078,392.929z"/>
	</g>
</g>
<g>
	<g>
		<g>
			<path d="M388.261,234.374c0.022,0.022,0.046,0.04,0.067,0.061C388.312,234.408,388.111,234.191,388.261,234.374z"/>
			<path d="M501.514,121.12L390.879,10.486C384.118,3.724,375.128,0,365.565,0H336.73c-9.563,0-18.553,3.724-25.314,10.485
				L263.7,58.201c-6.761,6.762-10.485,15.752-10.485,25.314v28.835c0,9.562,3.724,18.552,10.485,25.314l10.878,10.877
				l-39.676,32.118c-19.685,15.935-37.753,33.989-53.702,53.66l-32.648,40.266L137.665,263.7
				c-6.762-6.762-15.752-10.485-25.314-10.485H83.515c-9.561,0-18.551,3.724-25.314,10.485l-47.716,47.716
				C3.724,318.178,0,327.168,0,336.73v28.834c0,9.562,3.724,18.552,10.485,25.314L121.12,501.513
				c6.761,6.762,15.751,10.486,25.314,10.486h28.834c9.563,0,18.553-3.724,25.314-10.485l47.716-47.716
				c6.761-6.762,10.485-15.752,10.485-25.314v-28.835c0-9.562-3.724-18.552-10.485-25.314l-10.884-10.884l39.99-32.398
				c19.678-15.942,37.739-34.003,53.681-53.681l32.368-39.952l10.881,10.881c6.762,6.762,15.752,10.485,25.314,10.485h28.835
				c9.561,0,18.551-3.724,25.314-10.485l47.716-47.716c6.761-6.762,10.485-15.752,10.485-25.314v-28.834
				C511.999,136.872,508.276,127.882,501.514,121.12z M239.09,399.648l0.002,28.836c0,4.302-1.675,8.346-4.718,11.388
				l-47.716,47.716c-3.042,3.042-7.086,4.717-11.388,4.717h-28.834c-4.302,0-8.347-1.675-11.388-4.718L24.411,376.953
				c-3.042-3.042-4.718-7.086-4.718-11.389v-21.178l41.575,41.575c1.923,1.922,4.443,2.884,6.963,2.884
				c2.52,0,5.041-0.962,6.963-2.884c3.845-3.845,3.845-10.08,0-13.926l-48.739-48.739l45.67-45.671
				c3.042-3.042,7.087-4.718,11.389-4.718h28.835c4.302,0,8.346,1.676,11.388,4.718l110.634,110.634
				C237.414,391.301,239.09,395.346,239.09,399.648z M315.784,264.976c-15.079,18.612-32.163,35.696-50.775,50.775l-41.595,33.698
				l-60.861-60.861l33.944-41.865c15.086-18.607,32.176-35.683,50.796-50.756l41.287-33.423l60.873,60.873L315.784,264.976z
				 M492.305,167.613l-41.575-41.574c-3.845-3.844-10.08-3.844-13.926,0c-3.845,3.845-3.845,10.08,0,13.926l48.739,48.739
				l-45.669,45.67c-3.042,3.042-7.087,4.718-11.389,4.718h-28.835c-4.271,0-8.286-1.656-11.32-4.656
				c0.006,0.009-0.009-0.003-0.067-0.061L277.87,123.94c-0.228-0.228,0,0-0.244-0.202c-3.042-3.042-4.718-7.087-4.718-11.389V83.514
				c0-4.302,1.675-8.346,4.718-11.388l47.716-47.716c3.042-3.042,7.086-4.717,11.388-4.717h28.834c4.302,0,8.347,1.675,11.388,4.718
				l110.635,110.635c3.042,3.042,4.718,7.086,4.718,11.388V167.613z"/>
		</g>
	</g>
</g>
<g>
	<g>
		<path d="M429.844,105.147c-1.831-1.831-4.372-2.885-6.962-2.885c-2.6,0-5.13,1.054-6.962,2.885
			c-1.841,1.831-2.885,4.372-2.885,6.962c0,2.6,1.044,5.13,2.885,6.962c1.831,1.841,4.362,2.885,6.962,2.885
			c2.59,0,5.13-1.044,6.962-2.885c1.831-1.831,2.885-4.362,2.885-6.962C432.729,109.519,431.676,106.978,429.844,105.147z"/>
	</g>
</g>
<g>
</g>
<g>
</g>
<g>
</g>
<g>
</g>
<g>
</g>
<g>
</g>
<g>
</g>
<g>
</g>
<g>
</g>
<g>
</g>
<g>
</g>
<g>
</g>
<g>
</g>
<g>
</g>
<g>
</g>
</svg>
