<?xml version="1.0" encoding="iso-8859-1"?>
<!-- Generator: Adobe Illustrator 19.0.0, SVG Export Plug-In . SVG Version: 6.00 Build 0)  -->
<svg version="1.1" id="Capa_1" xmlns="http://www.w3.org/2000/svg" xmlns:xlink="http://www.w3.org/1999/xlink" x="0px" y="0px"
	 viewBox="0 0 512 512" style="enable-background:new 0 0 512 512;" xml:space="preserve">
<g>
	<g>
		<path d="M437.02,74.98C388.667,26.629,324.38,0,256,0S123.333,26.629,74.98,74.98C26.628,123.332,0,187.619,0,256
			s26.629,132.667,74.98,181.02C123.332,485.372,187.62,512,256,512s132.667-26.629,181.02-74.98
			C485.372,388.668,512,324.381,512,256S485.371,123.333,437.02,74.98z M256,492.308C125.699,492.308,19.692,386.3,19.692,256
			S125.699,19.692,256,19.692S492.308,125.7,492.308,256S386.301,492.308,256,492.308z"/>
	</g>
</g>
<g>
	<g>
		<path d="M463.988,194.12c-1.444-4.934-6.495-7.968-11.583-6.835c-5.309,1.18-8.656,6.439-7.476,11.747
			c0.086,0.387,0.203,0.793,0.335,1.167c1.427,4.044,5.227,6.572,9.285,6.572c1.087,0,2.194-0.182,3.277-0.564
			C462.796,204.452,465.476,199.116,463.988,194.12z"/>
	</g>
</g>
<g>
	<g>
		<path d="M452.224,163.363c-19.618-41.49-52.672-76.385-93.07-98.259c-4.779-2.589-10.757-0.812-13.347,3.97
			c-2.59,4.781-0.811,10.757,3.97,13.346c36.742,19.895,66.804,51.63,84.645,89.361c1.682,3.556,5.218,5.64,8.908,5.64
			c1.411,0,2.844-0.304,4.202-0.947C452.448,174.149,454.549,168.28,452.224,163.363z"/>
	</g>
</g>
<g>
	<g>
		<path d="M393.846,197.005h-78.934v-78.851c0-5.438-4.409-9.846-9.846-9.846h-98.133c-5.437,0-9.846,4.408-9.846,9.846v78.851
			h-78.934c-5.437,0-9.846,4.408-9.846,9.846v98.297c0,5.438,4.409,9.846,9.846,9.846h78.934v78.852
			c0,5.438,4.409,9.846,9.846,9.846h98.133c5.437,0,9.846-4.408,9.846-9.846v-78.851h78.934c5.437,0,9.846-4.408,9.846-9.846
			v-98.297C403.692,201.414,399.283,197.005,393.846,197.005z M384,295.303h-78.934c-5.437,0-9.846,4.408-9.846,9.846V384h-78.44
			v-78.851c0-5.438-4.409-9.846-9.846-9.846H128v-19.611h29.538c5.437,0,9.846-4.408,9.846-9.846c0-5.438-4.409-9.846-9.846-9.846
			H128v-39.303h78.934c5.437,0,9.846-4.408,9.846-9.846V128h78.44v78.851c0,5.438,4.409,9.846,9.846,9.846H384V295.303z"/>
	</g>
</g>
<g>
	<g>
		<path d="M194.037,258.885c-1.83-1.831-4.371-2.885-6.96-2.885s-5.13,1.054-6.961,2.885c-1.831,1.831-2.885,4.372-2.885,6.961
			s1.053,5.13,2.885,6.961c1.832,1.831,4.372,2.885,6.961,2.885s5.13-1.054,6.96-2.885c1.831-1.831,2.886-4.372,2.886-6.961
			S195.87,260.716,194.037,258.885z"/>
	</g>
</g>
<g>
</g>
<g>
</g>
<g>
</g>
<g>
</g>
<g>
</g>
<g>
</g>
<g>
</g>
<g>
</g>
<g>
</g>
<g>
</g>
<g>
</g>
<g>
</g>
<g>
</g>
<g>
</g>
<g>
</g>
</svg>
