<svg width="418" height="294" viewBox="0 0 418 294" fill="none" xmlns="http://www.w3.org/2000/svg">
<g clip-path="url(#clip0)">
<path d="M98.6698 223.086C90.4525 214.694 81.5029 204.679 56.7932 204.36C48.3836 196.08 39.7413 192.052 30.4063 192.052C30.3773 192.052 30.3474 192.052 30.3182 192.052C23.2717 192.071 16.8448 194.305 11.6808 196.1C8.13394 197.334 5.07067 198.398 2.91574 198.398C1.30547 198.398 0 199.731 0 201.375V290.684C0 292.329 1.30547 293.661 2.91574 293.661H32.2675C33.8778 293.661 35.1833 292.329 35.1833 290.684C35.1833 284.232 37.6929 280.608 41.1664 275.593C45.9077 268.747 51.7209 260.354 52.5718 241.842C66.2888 248.684 75.4685 251.984 96.6082 251.984C98.2184 251.984 99.5239 250.651 99.5239 249.007V225.191C99.5239 224.402 99.2166 223.645 98.6698 223.086ZM93.6924 246.008C73.9624 245.696 66.095 242.109 51.0659 234.436C49.1312 233.449 46.8462 234.887 46.8462 237.099C46.8462 257.079 41.2991 265.089 36.405 272.156C33.2311 276.738 30.2113 281.099 29.5059 287.707H5.83148V275.8H14.7731C16.3833 275.8 17.6888 274.467 17.6888 272.823C17.6888 271.179 16.3833 269.846 14.7731 269.846H5.83148V257.938H18.1892C30.804 257.938 41.0147 247.515 41.0147 234.633V231.145C41.0147 229.501 39.7093 228.168 38.099 228.168C36.4887 228.168 35.1833 229.501 35.1833 231.145V234.633C35.1833 244.222 27.5827 251.984 18.1892 251.984H5.83148V204.052C8.1802 203.607 10.7358 202.719 13.5605 201.737C18.5686 199.996 24.245 198.022 30.3338 198.006H30.404C38.4339 198.006 46.0003 201.745 53.5318 209.435C54.0786 209.993 54.8202 210.307 55.5934 210.307C75.1921 210.307 83.577 216.016 93.6924 226.421V246.008Z" fill="black"/>
<g clip-path="url(#clip1)">
<path d="M32.8437 202.703C29.2677 202.703 26.3586 205.673 26.3586 209.324C26.3586 212.975 29.2677 215.946 32.8437 215.946C36.4195 215.946 39.3288 212.975 39.3288 209.324C39.3288 205.673 36.4195 202.703 32.8437 202.703ZM32.8437 214.635C29.9759 214.635 27.6428 212.252 27.6428 209.324C27.6428 206.396 29.9759 204.014 32.8437 204.014C35.7115 204.014 38.0446 206.396 38.0446 209.324C38.0446 212.253 35.7115 214.635 32.8437 214.635Z" fill="#BE1717"/>
<path d="M32.8434 199.163C32.4888 199.163 32.2014 199.457 32.2014 199.819V206.331C32.2014 206.693 32.4888 206.986 32.8434 206.986C33.1981 206.986 33.4855 206.693 33.4855 206.331V199.819C33.4855 199.457 33.1981 199.163 32.8434 199.163Z" fill="#BE1717"/>
<path d="M32.8434 211.663C32.4888 211.663 32.2014 211.956 32.2014 212.318V218.83C32.2014 219.192 32.4888 219.486 32.8434 219.486C33.1981 219.486 33.4855 219.192 33.4855 218.83V212.318C33.4855 211.956 33.1981 211.663 32.8434 211.663Z" fill="#BE1717"/>
<path d="M42.153 208.669H35.7749C35.4203 208.669 35.1328 208.962 35.1328 209.324C35.1328 209.686 35.4203 209.98 35.7749 209.98H42.153C42.5076 209.98 42.7951 209.686 42.7951 209.324C42.7951 208.962 42.5076 208.669 42.153 208.669Z" fill="#BE1717"/>
<path d="M29.9112 208.669H23.5331C23.1784 208.669 22.891 208.962 22.891 209.324C22.891 209.686 23.1784 209.98 23.5331 209.98H29.9112C30.2658 209.98 30.5532 209.686 30.5532 209.324C30.5532 208.962 30.2658 208.669 29.9112 208.669Z" fill="#BE1717"/>
</g>
</g>
<g clip-path="url(#clip2)">
<path d="M238.461 198.007C219.011 194.055 199.096 192.05 179.265 192.05H168.18C166.569 192.05 165.264 193.383 165.264 195.027V236.705C165.264 238.349 166.569 239.682 168.18 239.682C182.375 239.682 196.559 238.071 210.406 234.892C209.561 238.059 206.084 245.405 206.084 256.923C206.084 277.675 216.979 289.794 218.237 292.338C218.778 293.167 219.688 293.664 220.663 293.664H243.989C245.599 293.664 246.905 292.331 246.905 290.687V233.216C250.298 231.987 252.736 228.678 252.736 224.797V212.889C252.736 204.785 246.36 198.173 238.461 198.007ZM246.905 224.797C246.905 226.438 245.597 227.774 243.989 227.774H238.157C236.547 227.774 235.242 229.107 235.242 230.751C235.242 232.395 236.547 233.728 238.157 233.728H241.073V287.71H222.223C221.331 285.882 211.916 275.14 211.916 256.923C211.916 245.74 215.485 239.143 217.598 231.692C218.324 229.467 216.353 227.294 214.124 227.863C213.314 228.021 194.798 233.325 171.095 233.704V198.004H179.265C213.327 198.004 236.414 203.958 238.157 203.958C242.981 203.958 246.905 207.965 246.905 212.889V224.797Z" fill="black"/>
<path d="M232.326 206.935C230.715 206.935 229.41 208.268 229.41 209.912C229.41 211.556 230.715 212.889 232.326 212.889C233.933 212.889 235.241 214.224 235.241 215.866C235.241 217.51 236.547 218.843 238.157 218.843C239.767 218.843 241.073 217.51 241.073 215.866C241.073 210.941 237.149 206.935 232.326 206.935Z" fill="black"/>
<g clip-path="url(#clip3)">
<path d="M227.91 212.865C224.334 212.865 221.424 215.835 221.424 219.486C221.424 223.137 224.334 226.107 227.91 226.107C231.485 226.107 234.395 223.137 234.395 219.486C234.395 215.835 231.485 212.865 227.91 212.865ZM227.91 224.796C225.042 224.796 222.709 222.414 222.709 219.486C222.709 216.558 225.042 214.176 227.91 214.176C230.777 214.176 233.111 216.558 233.111 219.486C233.111 222.414 230.777 224.796 227.91 224.796Z" fill="#BE1717"/>
<path d="M227.91 209.325C227.555 209.325 227.268 209.618 227.268 209.98V216.492C227.268 216.854 227.555 217.148 227.91 217.148C228.264 217.148 228.552 216.854 228.552 216.492V209.98C228.552 209.618 228.264 209.325 227.91 209.325Z" fill="#BE1717"/>
<path d="M227.91 221.824C227.555 221.824 227.268 222.118 227.268 222.48V228.992C227.268 229.354 227.555 229.647 227.91 229.647C228.264 229.647 228.552 229.354 228.552 228.992V222.48C228.552 222.118 228.264 221.824 227.91 221.824Z" fill="#BE1717"/>
<path d="M237.22 218.831H230.842C230.487 218.831 230.2 219.124 230.2 219.486C230.2 219.848 230.487 220.142 230.842 220.142H237.22C237.575 220.142 237.862 219.848 237.862 219.486C237.862 219.124 237.575 218.831 237.22 218.831Z" fill="#BE1717"/>
<path d="M224.978 218.831H218.6C218.245 218.831 217.957 219.124 217.957 219.486C217.957 219.848 218.245 220.142 218.6 220.142H224.978C225.332 220.142 225.62 219.848 225.62 219.486C225.62 219.124 225.332 218.831 224.978 218.831Z" fill="#BE1717"/>
</g>
</g>
<g clip-path="url(#clip4)">
<path d="M97.9121 60.2505L80.8391 51.6338C77.8565 50.1113 76.0036 47.0504 76.0036 43.6459V26.8263C80.7158 20.4599 84.1603 12.5319 86.0565 3.60809C86.4501 1.75562 85.0665 0 83.2068 0H16.3171C14.4603 0 13.0734 1.75264 13.4676 3.60809C15.3636 12.5319 18.8083 20.4601 23.5203 26.8263V43.6461C23.5203 47.0508 21.6674 50.1117 18.685 51.6342L1.61182 60.2505C0.623968 60.755 0 61.7856 0 62.9133V98.6369C0 100.281 1.30547 101.614 2.91574 101.614H96.6082C98.2184 101.614 99.5239 100.281 99.5239 98.6369V62.9133C99.5239 61.7856 98.8999 60.755 97.9121 60.2505ZM79.4784 5.95394C75.3334 20.9956 64.7465 35.7236 49.762 35.7236C34.7815 35.7236 24.1921 21.0017 20.0457 5.95394H79.4784ZM93.6924 95.66H5.83148V64.7533L21.2929 56.9596C22.085 56.5551 22.8287 56.0851 23.5203 55.5586V62.9133C23.5203 64.5574 24.8258 65.8903 26.436 65.8903C28.0463 65.8903 29.3518 64.5574 29.3518 62.9133C29.3518 62.7823 29.3518 33.3917 29.3518 33.3042C35.4227 38.7953 42.4143 41.6776 49.762 41.6776C57.1096 41.6776 64.1012 38.7953 70.1721 33.3044V62.9133C70.1721 64.5574 71.4776 65.8903 73.0879 65.8903C74.6981 65.8903 76.0036 64.5574 76.0036 62.9133V55.5582C76.6952 56.0847 77.4391 56.5549 78.2312 56.9594L93.6924 64.7533V95.66Z" fill="black"/>
<path d="M52.6779 86.729C52.6779 88.3731 53.9834 89.706 55.5937 89.706C57.2039 89.706 58.5094 88.3731 58.5094 86.729C58.5094 85.0875 59.8174 83.752 61.4251 83.752H84.7511C86.3613 83.752 87.6668 82.4191 87.6668 80.7751C87.6668 79.131 86.3613 77.7981 84.7511 77.7981H61.4251C56.6017 77.7981 52.6779 81.8045 52.6779 86.729Z" fill="black"/>
<path d="M38.0993 77.7981H14.7733C13.1631 77.7981 11.8576 79.131 11.8576 80.7751C11.8576 82.4191 13.1631 83.752 14.7733 83.752H38.0993C39.707 83.752 41.015 85.0875 41.015 86.729C41.015 88.3731 42.3205 89.706 43.9307 89.706C45.541 89.706 46.8465 88.3731 46.8465 86.729C46.8465 81.8045 42.9225 77.7981 38.0993 77.7981Z" fill="black"/>
<path d="M54.2893 71.5301C55.7328 72.267 57.4824 71.6661 58.201 70.1988C59.9586 66.61 63.6157 59.1424 64.2492 48.2044C64.3443 46.5631 63.1183 45.154 61.5108 45.0569C59.9005 44.9585 58.5229 46.2118 58.4281 47.8529C57.8651 57.5717 54.6907 64.0536 52.9854 67.536C52.2652 69.0065 52.8489 70.7946 54.2893 71.5301Z" fill="black"/>
<path d="M41.3224 70.1986C42.0428 71.6694 43.7944 72.2652 45.2344 71.5299C46.6748 70.7945 47.2585 69.0064 46.5383 67.5358C44.8328 64.0533 41.6583 57.5711 41.0956 47.8526C41.0007 46.2113 39.621 44.9584 38.0129 45.0567C36.4053 45.1537 35.1792 46.5628 35.2742 48.2041C35.9075 59.1415 39.5648 66.6097 41.3224 70.1986Z" fill="black"/>
<g clip-path="url(#clip5)">
<path d="M34.8332 38.0889C31.2572 38.0889 28.3481 41.059 28.3481 44.7102C28.3481 48.361 31.2572 51.3315 34.8332 51.3315C38.409 51.3315 41.3183 48.361 41.3183 44.7102C41.3183 41.059 38.409 38.0889 34.8332 38.0889ZM34.8332 50.0203C31.9654 50.0203 29.6323 47.6382 29.6323 44.7102C29.6323 41.7821 31.9654 39.4 34.8332 39.4C37.701 39.4 40.0341 41.7821 40.0341 44.7102C40.0341 47.6384 37.701 50.0203 34.8332 50.0203Z" fill="#BE1717"/>
<path d="M34.8334 34.5488C34.4788 34.5488 34.1913 34.8423 34.1913 35.2044V41.7164C34.1913 42.0785 34.4788 42.372 34.8334 42.372C35.1881 42.372 35.4755 42.0785 35.4755 41.7164V35.2044C35.4755 34.8423 35.1881 34.5488 34.8334 34.5488Z" fill="#BE1717"/>
<path d="M34.8334 47.0486C34.4788 47.0486 34.1913 47.3421 34.1913 47.7042V54.2162C34.1913 54.5783 34.4788 54.8717 34.8334 54.8717C35.1881 54.8717 35.4755 54.5783 35.4755 54.2162V47.7042C35.4755 47.342 35.1881 47.0486 34.8334 47.0486Z" fill="#BE1717"/>
<path d="M44.1436 44.0544H37.7655C37.4109 44.0544 37.1234 44.3479 37.1234 44.71C37.1234 45.0721 37.4109 45.3656 37.7655 45.3656H44.1436C44.4982 45.3656 44.7857 45.0721 44.7857 44.71C44.7857 44.3479 44.4982 44.0544 44.1436 44.0544Z" fill="#BE1717"/>
<path d="M31.9007 44.0544H25.5226C25.1679 44.0544 24.8805 44.3479 24.8805 44.71C24.8805 45.0721 25.1679 45.3656 25.5226 45.3656H31.9007C32.2553 45.3656 32.5427 45.0721 32.5427 44.71C32.5427 44.3479 32.2553 44.0544 31.9007 44.0544Z" fill="#BE1717"/>
</g>
</g>
<g clip-path="url(#clip6)">
<path d="M182.37 101.614C170.83 101.614 161.477 90.308 166.723 73.8466C169.69 64.5327 171.133 56.2165 171.133 48.4226C171.133 33.9895 165.302 30.8393 165.302 15.1603V2.97696C165.302 1.33288 166.607 0 168.217 0H209.038C210.751 0 212.095 1.50297 211.941 3.24469L206.831 61.0405C206.502 64.7302 208.386 68.1831 211.63 69.839L238.883 83.7518H244.026C248.849 83.7518 252.773 87.7581 252.773 92.6826C252.773 97.6071 248.849 101.614 244.026 101.614H212.057C209.567 101.614 207.08 101.002 204.863 99.8442C200.221 97.4208 194.666 97.3948 190.003 99.7747C187.651 100.975 185.017 101.611 182.388 101.614C182.382 101.614 182.375 101.614 182.37 101.614ZM171.133 5.95392V15.1601C171.133 29.6037 176.965 32.7275 176.965 48.4224C176.965 56.8516 175.428 65.7703 172.268 75.6884C168.304 88.1297 174.673 95.658 182.382 95.6598C184.113 95.658 185.847 95.2394 187.395 94.449C193.71 91.2259 201.232 91.2612 207.518 94.543C208.917 95.2734 210.486 95.6594 212.057 95.6594H244.026C245.634 95.6594 246.942 94.3239 246.942 92.6824C246.942 91.0409 245.634 89.7055 244.026 89.7055H238.195C237.742 89.7055 237.296 89.5979 236.891 89.3913L209.022 75.1642C203.616 72.4044 200.476 66.6495 201.023 60.5033L205.847 5.95392H171.133Z" fill="black"/>
<path d="M185.711 77.798C184.101 77.798 182.795 76.4651 182.795 74.821C182.795 69.8965 186.719 65.8901 191.543 65.8901C193.153 65.8901 194.458 67.223 194.458 68.8671C194.458 70.5112 193.153 71.8441 191.543 71.8441C189.935 71.8441 188.627 73.1795 188.627 74.821C188.627 76.4651 187.321 77.798 185.711 77.798Z" fill="black"/>
<g clip-path="url(#clip7)">
<path d="M194.071 71.6213C190.495 71.6213 187.586 74.5915 187.586 78.2426C187.586 81.8935 190.495 84.8639 194.071 84.8639C197.647 84.8639 200.557 81.8935 200.557 78.2426C200.557 74.5915 197.647 71.6213 194.071 71.6213ZM194.071 83.5528C191.204 83.5528 188.871 81.1707 188.871 78.2426C188.871 75.3146 191.204 72.9325 194.071 72.9325C196.939 72.9325 199.272 75.3146 199.272 78.2426C199.272 81.1709 196.939 83.5528 194.071 83.5528Z" fill="#BE1717"/>
<path d="M194.072 68.0813C193.717 68.0813 193.43 68.3748 193.43 68.7369V75.2489C193.43 75.611 193.717 75.9045 194.072 75.9045C194.426 75.9045 194.714 75.611 194.714 75.2489V68.7369C194.714 68.3748 194.426 68.0813 194.072 68.0813Z" fill="#BE1717"/>
<path d="M194.072 80.5811C193.717 80.5811 193.43 80.8745 193.43 81.2366V87.7486C193.43 88.1107 193.717 88.4042 194.072 88.4042C194.426 88.4042 194.714 88.1107 194.714 87.7486V81.2366C194.714 80.8745 194.426 80.5811 194.072 80.5811Z" fill="#BE1717"/>
<path d="M203.382 77.5872H197.004C196.649 77.5872 196.362 77.8807 196.362 78.2427C196.362 78.6048 196.649 78.8983 197.004 78.8983H203.382C203.736 78.8983 204.024 78.6048 204.024 78.2427C204.024 77.8807 203.736 77.5872 203.382 77.5872Z" fill="#BE1717"/>
<path d="M191.139 77.5872H184.761C184.407 77.5872 184.119 77.8807 184.119 78.2427C184.119 78.6048 184.407 78.8983 184.761 78.8983H191.139C191.494 78.8983 191.782 78.6048 191.782 78.2427C191.782 77.8807 191.494 77.5872 191.139 77.5872Z" fill="#BE1717"/>
</g>
</g>
<g clip-path="url(#clip8)">
<path d="M415.085 48.0284H411.28C405.598 48.0284 400.233 50.1333 396.04 53.9823H392.316C375.92 53.9823 365.275 57.2607 364.751 57.3582C362.666 57.8764 360.637 58.5974 358.688 59.5071L358.137 56.6967C355.037 40.8724 353.466 24.6663 353.466 8.52862V2.9772C353.466 1.33312 352.16 0.000244141 350.55 0.000244141H327.224C325.614 0.000244141 324.308 1.33312 324.308 2.9772V20.7528L321.393 29.6834C317.582 41.3545 317.427 54.2284 321.393 66.3732L322.942 71.1182C323.748 73.5859 322.13 75.7573 321.398 76.5764C319.514 78.6815 318.477 81.4112 318.477 84.2627C318.477 90.5889 322.675 96.0788 328.686 97.6131C337.243 99.5755 341.741 101.614 349.621 101.614H369.045C379.359 101.614 388.943 97.8259 396.316 91.5775L400.425 99.9681C400.919 100.977 401.929 101.614 403.033 101.614H415.085C416.695 101.614 418 100.281 418 98.6368V51.0056C418 49.3611 416.695 48.0284 415.085 48.0284ZM412.169 95.6597H404.835L399.809 85.3975C398.921 83.5824 396.547 83.1872 395.14 84.6239C388.17 91.7404 378.902 95.6597 369.045 95.6597H349.621C342.711 95.6597 338.897 93.8741 330.101 91.8368C326.69 90.9664 324.309 87.8517 324.309 84.2627C324.309 82.9008 324.804 81.5973 325.703 80.5919C328.675 77.27 329.711 73.0247 328.474 69.2358L326.925 64.4906C323.498 53.9956 323.374 42.4432 326.925 31.5665L329.99 22.1774C330.09 21.8737 330.14 21.556 330.14 21.236V5.95435H347.634V8.52882C347.634 25.0576 349.244 41.6567 352.419 57.8645L353.349 62.6133C351.624 63.8348 349.997 65.2221 348.488 66.7622C347.35 67.9248 347.35 69.8096 348.488 70.9722C349.627 72.1346 351.473 72.1348 352.612 70.9722C356.397 67.1079 361.071 64.4007 366.131 63.1434C374.693 61.0155 383.503 59.9364 392.316 59.9364H397.201C397.975 59.9364 398.716 59.6228 399.263 59.0644C402.473 55.7873 406.741 53.9825 411.28 53.9825H412.169V95.6597Z" fill="black"/>
<g clip-path="url(#clip9)">
<path d="M335.396 77.7185C331.82 77.7185 328.911 80.6887 328.911 84.3398C328.911 87.9907 331.82 90.9611 335.396 90.9611C338.971 90.9611 341.881 87.9907 341.881 84.3398C341.881 80.6887 338.971 77.7185 335.396 77.7185ZM335.396 89.65C332.528 89.65 330.195 87.2678 330.195 84.3398C330.195 81.4118 332.528 79.0296 335.396 79.0296C338.263 79.0296 340.597 81.4118 340.597 84.3398C340.597 87.268 338.263 89.65 335.396 89.65Z" fill="#BE1717"/>
<path d="M335.395 74.1782C335.041 74.1782 334.753 74.4717 334.753 74.8338V81.3458C334.753 81.7079 335.041 82.0014 335.395 82.0014C335.75 82.0014 336.038 81.7079 336.038 81.3458V74.8338C336.038 74.4717 335.75 74.1782 335.395 74.1782Z" fill="#BE1717"/>
<path d="M335.395 86.678C335.041 86.678 334.753 86.9715 334.753 87.3335V93.8456C334.753 94.2076 335.041 94.5011 335.395 94.5011C335.75 94.5011 336.038 94.2076 336.038 93.8456V87.3335C336.038 86.9714 335.75 86.678 335.395 86.678Z" fill="#BE1717"/>
<path d="M344.706 83.6841H338.327C337.973 83.6841 337.685 83.9776 337.685 84.3397C337.685 84.7017 337.973 84.9952 338.327 84.9952H344.706C345.06 84.9952 345.348 84.7017 345.348 84.3397C345.348 83.9776 345.06 83.6841 344.706 83.6841Z" fill="#BE1717"/>
<path d="M332.463 83.6841H326.085C325.73 83.6841 325.443 83.9776 325.443 84.3397C325.443 84.7017 325.73 84.9952 326.085 84.9952H332.463C332.818 84.9952 333.105 84.7017 333.105 84.3397C333.105 83.9776 332.818 83.6841 332.463 83.6841Z" fill="#BE1717"/>
</g>
</g>
<g clip-path="url(#clip10)">
<path d="M397.59 204.355H391.564C386.822 204.355 382.817 200.084 382.817 195.027C382.817 193.383 381.511 192.05 379.901 192.05H356.575C354.965 192.05 353.659 193.383 353.659 195.027C353.659 200.084 349.654 204.355 344.912 204.355H338.886C327.632 204.355 318.476 213.703 318.476 225.194V254.964C318.476 256.608 319.782 257.941 321.392 257.941H336.165V290.687C336.165 292.331 337.47 293.664 339.081 293.664H397.396C399.006 293.664 400.311 292.331 400.311 290.687V257.941H415.084C416.695 257.941 418 256.608 418 254.964V225.194C418 213.703 408.844 204.355 397.59 204.355ZM412.169 251.987H400.579C400.962 249.349 401.752 246.77 402.919 244.387C404.911 240.32 406.022 235.768 406.133 231.222C406.173 229.578 404.901 228.213 403.291 228.172C403.266 228.171 403.242 228.171 403.217 228.171C401.64 228.171 400.343 229.455 400.304 231.074C400.214 234.751 399.315 238.434 397.703 241.724C395.743 245.728 394.48 250.552 394.48 255.666V287.71H371.154V225.194C371.154 223.55 369.848 222.217 368.238 222.217C366.628 222.217 365.322 223.55 365.322 225.194V287.71H341.996V255.666C341.996 250.993 340.938 246.144 338.773 241.724C337.162 238.434 336.263 234.751 336.173 231.074C336.133 229.43 334.796 228.126 333.185 228.172C331.576 228.213 330.303 229.578 330.343 231.222C330.454 235.768 331.566 240.32 333.557 244.387C334.724 246.77 335.514 249.348 335.898 251.987H324.308V225.194C324.308 216.986 330.848 210.309 338.886 210.309H344.912C352.116 210.309 357.905 204.726 359.206 198.004H377.27C378.572 204.727 384.361 210.309 391.564 210.309H397.59C405.629 210.309 412.169 216.986 412.169 225.194V251.987Z" fill="black"/>
<g clip-path="url(#clip11)">
<path d="M358.286 246.397C354.71 246.397 351.801 249.368 351.801 253.019C351.801 256.67 354.71 259.64 358.286 259.64C361.862 259.64 364.771 256.67 364.771 253.019C364.771 249.368 361.862 246.397 358.286 246.397ZM358.286 258.329C355.418 258.329 353.085 255.947 353.085 253.019C353.085 250.091 355.418 247.709 358.286 247.709C361.154 247.709 363.487 250.091 363.487 253.019C363.487 255.947 361.154 258.329 358.286 258.329Z" fill="#BE1717"/>
<path d="M358.286 242.857C357.932 242.857 357.644 243.151 357.644 243.513V250.025C357.644 250.387 357.932 250.68 358.286 250.68C358.641 250.68 358.929 250.387 358.929 250.025V243.513C358.929 243.151 358.641 242.857 358.286 242.857Z" fill="#BE1717"/>
<path d="M358.286 255.357C357.932 255.357 357.644 255.65 357.644 256.012V262.524C357.644 262.886 357.932 263.18 358.286 263.18C358.641 263.18 358.929 262.886 358.929 262.524V256.012C358.929 255.65 358.641 255.357 358.286 255.357Z" fill="#BE1717"/>
<path d="M367.597 252.363H361.218C360.864 252.363 360.576 252.657 360.576 253.019C360.576 253.381 360.864 253.674 361.218 253.674H367.597C367.951 253.674 368.239 253.381 368.239 253.019C368.239 252.657 367.951 252.363 367.597 252.363Z" fill="#BE1717"/>
<path d="M355.354 252.363H348.976C348.621 252.363 348.334 252.657 348.334 253.019C348.334 253.381 348.621 253.674 348.976 253.674H355.354C355.709 253.674 355.996 253.381 355.996 253.019C355.996 252.657 355.709 252.363 355.354 252.363Z" fill="#BE1717"/>
</g>
</g>
<defs>
<clipPath id="clip0">
<rect width="99.5239" height="101.614" fill="white" transform="translate(0 192.05)"/>
</clipPath>
<clipPath id="clip1">
<rect width="19.9048" height="20.3228" fill="white" transform="translate(22.8908 199.163)"/>
</clipPath>
<clipPath id="clip2">
<rect width="99.5239" height="101.614" fill="white" transform="translate(159.238 192.05)"/>
</clipPath>
<clipPath id="clip3">
<rect width="19.9048" height="20.3228" fill="white" transform="translate(217.957 209.325)"/>
</clipPath>
<clipPath id="clip4">
<rect width="99.5239" height="101.614" fill="white"/>
</clipPath>
<clipPath id="clip5">
<rect width="19.9048" height="20.3228" fill="white" transform="translate(24.8807 34.5488)"/>
</clipPath>
<clipPath id="clip6">
<rect width="99.5239" height="101.614" fill="white" transform="translate(159.238)"/>
</clipPath>
<clipPath id="clip7">
<rect width="19.9048" height="20.3228" fill="white" transform="translate(184.119 68.0813)"/>
</clipPath>
<clipPath id="clip8">
<rect width="99.5239" height="101.614" fill="white" transform="translate(318.476)"/>
</clipPath>
<clipPath id="clip9">
<rect width="19.9048" height="20.3228" fill="white" transform="translate(325.443 74.1782)"/>
</clipPath>
<clipPath id="clip10">
<rect width="99.5239" height="101.614" fill="white" transform="translate(318.476 192.05)"/>
</clipPath>
<clipPath id="clip11">
<rect width="19.9048" height="20.3228" fill="white" transform="translate(348.334 242.857)"/>
</clipPath>
</defs>
</svg>
