<svg width="50" height="50" viewBox="0 0 50 50" fill="none" xmlns="http://www.w3.org/2000/svg">
<path d="M45.6055 2.92969H44.1406V1.46484C44.1406 0.655859 43.4848 0 42.6758 0C41.8668 0 41.2109 0.655859 41.2109 1.46484V2.92969H35.3516V1.46484C35.3516 0.655859 34.6957 0 33.8867 0C33.0777 0 32.4219 0.655859 32.4219 1.46484V2.92969H26.4648V1.46484C26.4648 0.655859 25.809 0 25 0C24.191 0 23.5352 0.655859 23.5352 1.46484V2.92969H17.5781V1.46484C17.5781 0.655859 16.9223 0 16.1133 0C15.3043 0 14.6484 0.655859 14.6484 1.46484V2.92969H8.78906V1.46484C8.78906 0.655859 8.1332 0 7.32422 0C6.51523 0 5.85938 0.655859 5.85938 1.46484V2.92969H4.39453C1.97139 2.92969 0 4.90107 0 7.32422V45.6055C0 48.0286 1.97139 50 4.39453 50H45.6055C48.0286 50 50 48.0286 50 45.6055V7.32422C50 4.90107 48.0286 2.92969 45.6055 2.92969ZM47.0703 45.6055C47.0703 46.4132 46.4132 47.0703 45.6055 47.0703H4.39453C3.58682 47.0703 2.92969 46.4132 2.92969 45.6055V44.1406H47.0703V45.6055ZM47.0703 41.2109H2.92969V14.6484H47.0703V41.2109ZM47.0703 11.7188H2.92969V7.32422C2.92969 6.5165 3.58682 5.85938 4.39453 5.85938H5.85938V7.32422C5.85938 8.1332 6.51523 8.78906 7.32422 8.78906C8.1332 8.78906 8.78906 8.1332 8.78906 7.32422V5.85938H14.6484V7.32422C14.6484 8.1332 15.3043 8.78906 16.1133 8.78906C16.9223 8.78906 17.5781 8.1332 17.5781 7.32422V5.85938H23.5352V7.32422C23.5352 8.1332 24.191 8.78906 25 8.78906C25.809 8.78906 26.4648 8.1332 26.4648 7.32422V5.85938H32.4219V7.32422C32.4219 8.1332 33.0777 8.78906 33.8867 8.78906C34.6957 8.78906 35.3516 8.1332 35.3516 7.32422V5.85938H41.2109V7.32422C41.2109 8.1332 41.8668 8.78906 42.6758 8.78906C43.4848 8.78906 44.1406 8.1332 44.1406 7.32422V5.85938H45.6055C46.4132 5.85938 47.0703 6.5165 47.0703 7.32422V11.7188Z" fill="#191919"/>
<path d="M42.6758 17.5781H7.32422C6.51523 17.5781 5.85938 18.234 5.85938 19.043V36.8164C5.85938 37.6254 6.51523 38.2812 7.32422 38.2812H42.6758C43.4848 38.2812 44.1406 37.6254 44.1406 36.8164V19.043C44.1406 18.234 43.4848 17.5781 42.6758 17.5781ZM14.6484 35.3516H8.78906V29.3945H14.6484V35.3516ZM14.6484 26.4648H8.78906V20.5078H14.6484V26.4648ZM23.5352 35.3516H17.5781V29.3945H23.5352V35.3516ZM23.5352 26.4648H17.5781V20.5078H23.5352V26.4648ZM32.4219 35.3516H26.4648V29.3945H32.4219V35.3516ZM32.4219 26.4648H26.4648V20.5078H32.4219V26.4648ZM41.2109 35.3516H35.3516V29.3945H41.2109V35.3516ZM41.2109 26.4648H35.3516V20.5078H41.2109V26.4648Z" fill="#191919"/>
</svg>
