<svg width="50" height="50" viewBox="0 0 50 50" fill="none" xmlns="http://www.w3.org/2000/svg">
<path d="M36.5234 0C32.3643 0 28.7182 1.85459 25.9794 5.36338C25.6142 5.83135 25.2886 6.29951 25 6.75293C24.7114 6.29941 24.3858 5.83135 24.0206 5.36338C21.2818 1.85459 17.6357 0 13.4766 0C5.61953 0 0 6.57881 0 14.473C0 23.4997 7.39814 32.0069 23.988 42.057C24.299 42.2454 24.6495 42.3396 25 42.3396C25.3505 42.3396 25.701 42.2455 26.012 42.0571C42.6019 32.007 50 23.4998 50 14.4731C50 6.58301 44.3851 0 36.5234 0ZM40.9333 25.7128C37.4795 29.5665 32.2603 33.6243 25 38.0979C17.7397 33.6243 12.5205 29.5665 9.0667 25.7129C5.59424 21.8383 3.90625 18.1617 3.90625 14.4731C3.90625 8.78916 7.74746 3.90625 13.4766 3.90625C16.3941 3.90625 18.8818 5.1748 20.8706 7.67676C22.4608 9.67764 23.1309 11.7438 23.1355 11.7585C23.3899 12.5744 24.1454 13.1302 25.0001 13.1302C25.8548 13.1302 26.6103 12.5745 26.8646 11.7585C26.8708 11.7388 27.5207 9.73711 29.0587 7.7668C31.0582 5.20508 33.5697 3.90615 36.5234 3.90615C42.2586 3.90615 46.0938 8.79375 46.0938 14.473C46.0938 18.1616 44.4058 21.8382 40.9333 25.7128Z" fill="#191919"/>
</svg>
