<svg width="359" height="342" viewBox="0 0 359 342" fill="none" xmlns="http://www.w3.org/2000/svg">
<g clip-path="url(#clip0)">
<path d="M127.146 284.208H74.7917C58.2926 284.208 44.875 271.461 44.875 255.787V156.314H14.9583C6.56671 156.314 0 150.076 0 142.104C0 138.111 1.82492 134.16 4.87642 131.56L151.977 1.88964C154.834 -0.63981 159.276 -0.63981 162.148 1.88964L209.417 43.5404V21.3153C209.417 17.3932 212.767 14.2101 216.896 14.2101H261.771C265.899 14.2101 269.25 17.3932 269.25 21.3153V96.2326L309.353 131.631C312.3 134.16 314.125 138.111 314.125 142.104C314.125 150.076 307.558 156.314 299.167 156.314H269.25V163.419C269.25 167.342 265.899 170.525 261.771 170.525C257.642 170.525 254.292 167.342 254.292 163.419V149.209C254.292 145.287 257.642 142.104 261.771 142.104H299.167L256.67 104.531C255.159 103.196 254.292 101.306 254.292 99.3305V28.4205H224.375V59.8255C224.375 62.6534 222.61 65.2113 219.887 66.3339C217.135 67.4565 213.964 66.9449 211.81 65.0265L157.062 16.7964L14.9583 142.061L52.3542 142.104C56.4827 142.104 59.8333 145.287 59.8333 149.209V255.787C59.8333 263.617 66.5347 269.998 74.7917 269.998H127.146C131.274 269.998 134.625 273.181 134.625 277.103C134.625 281.025 131.274 284.208 127.146 284.208Z" fill="black"/>
<path d="M261.771 341.05C259.632 341.05 257.613 340.183 256.177 338.663C213.53 293.104 213.53 246.892 256.177 201.333C259.034 198.292 264.508 198.292 267.366 201.333C310.012 246.892 310.012 293.104 267.366 338.663C265.93 340.183 263.91 341.05 261.771 341.05ZM261.771 217.064C231.929 252.604 231.929 287.377 261.771 322.917C291.613 287.377 291.613 252.618 261.771 217.064Z" fill="#820FF0"/>
<path d="M261.337 341.05C261.098 341.05 260.889 341.05 260.649 341.021C200.577 335.849 168.237 303.392 164.557 244.561C164.422 242.529 165.215 240.554 166.741 239.118C168.252 237.669 170.331 236.93 172.47 237.044C199.066 238.55 220.711 245.144 236.821 256.64C240.126 258.999 240.785 263.447 238.302 266.587C235.833 269.728 231.166 270.367 227.831 268.008C215.834 259.439 199.859 254.054 180.248 251.936C185.753 298.078 212.573 322.619 262.011 326.868C266.124 327.223 269.161 330.676 268.787 334.584C268.413 338.279 265.152 341.05 261.337 341.05Z" fill="#820FF0"/>
<path d="M262.204 341.05C258.39 341.05 255.114 338.279 254.77 334.584C254.411 330.676 257.433 327.223 261.546 326.868C310.983 322.619 337.804 298.078 343.308 251.936C323.698 254.039 307.723 259.439 295.726 268.008C292.39 270.367 287.723 269.742 285.255 266.587C282.772 263.447 283.43 258.999 286.736 256.64C302.846 245.144 324.476 238.55 351.087 237.044C353.226 236.916 355.305 237.669 356.816 239.119C358.342 240.554 359.119 242.543 359 244.561C355.32 303.392 322.98 335.849 262.907 341.021C262.683 341.05 262.444 341.05 262.204 341.05Z" fill="#820FF0"/>
</g>
<defs>
<clipPath id="clip0">
<rect width="359" height="341.05" fill="white"/>
</clipPath>
</defs>
</svg>
