<svg id="Capa_1" enable-background="new 0 0 512.062 512.062" height="512" viewBox="0 0 512.062 512.062" width="512" xmlns="http://www.w3.org/2000/svg"><g><path d="m160.321 40.523c0-4.142-3.357-7.5-7.5-7.5h-60.108c-4.143 0-7.5 3.358-7.5 7.5s3.357 7.5 7.5 7.5h60.108c4.143 0 7.5-3.358 7.5-7.5z"/><path d="m110.053 64.928c-4.143 0-7.5 3.358-7.5 7.5s3.357 7.5 7.5 7.5h25.429c4.143 0 7.5-3.358 7.5-7.5s-3.357-7.5-7.5-7.5z"/><path d="m110.667 150.561c-7.288 0-13.218 5.93-13.218 13.218v37.58c0 13.96 11.357 25.318 25.318 25.318 13.96 0 25.317-11.357 25.317-25.318v-37.58c0-7.288-5.93-13.218-13.218-13.218zm22.418 50.798c0 5.689-4.628 10.318-10.317 10.318s-10.318-4.628-10.318-10.318v-35.798h20.636v35.798z"/><path d="m455.646 39.061c-12.053 0-23.82 2.224-34.977 6.609-3.855 1.515-5.752 5.869-4.237 9.724 1.161 2.954 3.989 4.758 6.982 4.758.913 0 1.841-.168 2.741-.522 9.402-3.695 19.324-5.569 29.49-5.569 10.167 0 20.088 1.874 29.488 5.569 3.854 1.514 8.209-.381 9.725-4.236 1.515-3.855-.382-8.208-4.236-9.724-11.156-4.385-22.924-6.609-34.976-6.609z"/><path d="m404.595 158.722c9.032 19.146 28.515 32.432 51.05 32.432 31.107 0 56.416-25.308 56.416-56.416s-25.309-56.416-56.416-56.416c-22.535 0-42.019 13.286-51.05 32.432h-18.372c-1.628-7.812-8.564-13.699-16.852-13.699h-13.179c-1.544-10.58-10.675-18.733-21.677-18.733h-13.091c-1.61-8.422-9.02-14.81-17.904-14.81h-55.01c-4.143 0-7.5 3.358-7.5 7.5s3.357 7.5 7.5 7.5h55.01c1.785 0 3.238 1.453 3.238 3.238v105.975c0 1.786-1.453 3.238-3.238 3.238h-116.713c-4.143 0-7.5 3.358-7.5 7.5v60.029c0 1.538-1.251 2.79-2.789 2.79h-106.873c-1.538 0-2.789-1.251-2.789-2.79v-52.815c0-4.142-3.357-7.5-7.5-7.5h-8.835v-122.804h6.1l15.679 13.191c1.406 1.183 3.12 1.761 4.824 1.761 2.137 0 4.26-.909 5.743-2.672 2.666-3.169 2.259-7.901-.911-10.567l-15.101-12.705v-38.905c0-3.745 3.047-6.791 6.791-6.791h98.241c3.744 0 6.791 3.046 6.791 6.791v42l-50.859 41.944c-2.175 1.792-5.314 1.775-7.468-.036l-13.643-11.477c-3.17-2.667-7.901-2.258-10.567.911-2.667 3.17-2.259 7.901.911 10.567l13.643 11.477c3.875 3.26 8.643 4.892 13.412 4.892 4.701 0 9.404-1.586 13.255-4.762l51.51-42.48h27.677c4.143 0 7.5-3.358 7.5-7.5s-3.357-7.5-7.5-7.5h-22.87v-38.036c0-12.016-9.775-21.791-21.791-21.791h-98.242c-12.016 0-21.791 9.775-21.791 21.791v34.896h-28.89c-12.662.001-22.965 10.303-22.965 22.966v106.874c0 12.663 10.303 22.965 22.966 22.965h28.89v45.315c0 9.685 7.784 17.573 17.422 17.771v208.968c0 12.762 10.383 23.145 23.146 23.145h60.689c12.762 0 23.145-10.383 23.145-23.145v-106.787c0-4.142-3.357-7.5-7.5-7.5s-7.5 3.358-7.5 7.5v53.803h-76.981v-155.965h76.979v70.2c0 4.142 3.357 7.5 7.5 7.5s7.5-3.358 7.5-7.5v-70.2h.261c9.809 0 17.789-7.98 17.789-17.79v-52.529h109.214c8.884 0 16.294-6.388 17.904-14.81h13.091c11.002 0 20.133-8.152 21.677-18.733h13.179c8.288 0 15.224-5.888 16.852-13.699h18.372zm-389.595 31.49v-106.874c0-4.392 3.573-7.965 7.966-7.965h12.555v122.805h-12.555c-4.393-.001-7.966-3.574-7.966-7.966zm146.257 257.035v37.984c0 4.491-3.653 8.145-8.145 8.145h-60.689c-4.491 0-8.146-3.654-8.146-8.145v-37.984zm294.389-353.925c22.837 0 41.416 18.579 41.416 41.416s-18.579 41.416-41.416 41.416c-22.838 0-41.417-18.579-41.417-41.416s18.579-41.416 41.417-41.416zm-55.694 50.4h-13.365v-17.968h13.365c-.471 2.927-.724 5.926-.724 8.984s.253 6.057.724 8.984zm-58.526 25.522c0 3.81-3.1 6.91-6.91 6.91h-12.757v-82.832h12.757c3.811 0 6.91 3.1 6.91 6.91zm30.161-14.037c0 1.221-.993 2.214-2.215 2.214h-12.946v-45.366h12.946c1.222 0 2.215.993 2.215 2.214z"/><path d="m410.482 27.219c.913 0 1.841-.168 2.742-.522 13.523-5.316 27.796-8.012 42.421-8.012 14.624 0 28.896 2.696 42.42 8.012 3.855 1.514 8.208-.381 9.725-4.236 1.515-3.855-.382-8.208-4.236-9.724-15.279-6.006-31.398-9.052-47.908-9.052-16.511 0-32.63 3.045-47.909 9.052-3.854 1.515-5.751 5.869-4.236 9.724 1.161 2.954 3.988 4.758 6.981 4.758z"/><path d="m485.134 209.846c-9.4 3.695-19.321 5.569-29.488 5.569-10.166 0-20.088-1.874-29.49-5.569-3.853-1.518-8.209.38-9.724 4.236-1.515 3.855.382 8.208 4.237 9.724 11.156 4.385 22.924 6.609 34.977 6.609s23.82-2.224 34.977-6.609c3.854-1.515 5.751-5.869 4.236-9.724-1.517-3.856-5.871-5.752-9.725-4.236z"/><path d="m498.065 242.779c-13.523 5.316-27.796 8.012-42.42 8.012-14.625 0-28.897-2.696-42.421-8.012-3.856-1.515-8.208.381-9.725 4.236-1.515 3.854.382 8.208 4.236 9.724 15.279 6.006 31.398 9.052 47.909 9.052 16.51 0 32.629-3.045 47.908-9.052 3.854-1.515 5.751-5.869 4.236-9.724-1.515-3.856-5.867-5.751-9.723-4.236z"/></g></svg>