<svg width="50" height="50" viewBox="0 0 50 50" fill="none" xmlns="http://www.w3.org/2000/svg">
<g clip-path="url(#clip0)">
<path d="M47.3835 34.1244L42.3532 30.0032C39.076 27.3183 33.9887 27.5724 30.999 30.562L30.7993 30.7617C30.298 31.263 29.4814 31.2591 28.9871 30.7647L19.268 21.0455C18.7773 20.5549 18.7676 19.7657 19.2404 19.2646C19.2491 19.2555 19.2578 19.2465 19.2667 19.2376L19.24 19.2643C19.2488 19.2554 19.2577 19.2464 19.2666 19.2376C22.2397 16.2359 22.5242 11.1252 19.9198 7.83238L15.8399 2.67435C13.2174 -0.641188 8.65965 -0.897299 5.6703 2.09205L4.9209 2.84146C-0.388787 8.15114 -1.63999 17.7211 2.34278 24.084C2.34278 24.084 4.6873 29.5213 12.5994 37.4334C20.5115 45.3455 25.9488 47.69 25.9488 47.69C32.3711 51.5758 41.8784 50.4248 47.1869 45.1163L47.9006 44.4026C50.8923 41.411 50.6586 36.8075 47.3835 34.1244ZM44.2865 40.7886L43.5727 41.5023C39.9283 45.1468 33.0049 45.9855 28.5945 43.3171L28.2944 43.1355L27.9724 42.9967C27.5771 42.8262 26.5862 42.2889 25.0881 41.2841C22.4275 39.4995 19.4397 37.0457 16.2134 33.8194C12.9871 30.5931 10.5332 27.6054 8.74866 24.9447C7.74386 23.4466 7.20648 22.4557 7.03614 22.0604L6.88185 21.7026L6.6751 21.3723C3.9936 17.0884 4.85813 10.1325 8.53495 6.45563L9.28436 5.70623C10.1153 4.87525 11.1089 4.93179 11.8314 5.84531L15.9114 11.0033C16.9174 12.2751 16.7872 14.4893 15.6261 15.6505C13.1563 18.1491 13.1685 22.1744 15.6541 24.6598L25.3732 34.379C27.8647 36.8705 31.9176 36.8719 34.4136 34.376L34.6133 34.1763C35.7465 33.0431 37.8706 32.9381 39.1143 33.9571L44.1446 38.0783C45.0838 38.8476 45.1388 39.9364 44.2865 40.7886Z" fill="#191919"/>
</g>
<defs>
<clipPath id="clip0">
<rect width="50" height="50" fill="white"/>
</clipPath>
</defs>
</svg>
