<svg width="557" height="434" viewBox="0 0 557 434" fill="none" xmlns="http://www.w3.org/2000/svg">
<g clip-path="url(#clip0)">
<path d="M549.149 312.602C544.578 310.92 539.518 312.316 536.269 316.167L519.625 335.9L413.427 323.865L414.388 282.461C414.686 269.708 405.845 258.706 393.364 256.302L374.701 252.703C372.336 252.246 369.887 252.865 368.016 254.389C366.145 255.914 365.039 258.189 364.997 260.606L364.555 285.155L351.274 266.741L377.809 218.083L418.083 234.136C430.19 238.96 437.967 250.982 437.444 264.047L435.837 304.029C435.654 308.551 439.158 312.367 443.665 312.547C443.776 312.551 443.887 312.555 443.997 312.555C448.356 312.555 451.975 309.097 452.153 304.691L453.761 264.709C454.564 244.698 442.645 226.288 424.109 218.898L385.71 203.593L393.934 188.5C397.978 181.089 397.208 172.021 391.965 165.407C391.88 165.301 391.795 165.194 391.702 165.091L359.975 128.913C359.945 128.883 359.915 128.857 359.89 128.827L332.551 97.725C332.445 97.6055 332.339 97.4902 332.228 97.3792C322.405 87.4359 307.756 84.7419 295.335 89.7584C294.599 83.7727 292.239 77.9493 288.267 72.9499L271.241 51.5476C259.781 37.147 238.778 34.7946 224.431 46.2962L219.872 49.9465C205.529 61.4482 203.178 82.5304 214.629 96.9437L231.656 118.346C234.989 122.534 239.216 125.749 243.898 127.884L237.141 133.101C233.999 135.543 231.409 138.506 229.449 141.904L139.788 296.673C138.423 297.408 137.083 298.249 135.795 299.214L121.515 309.96C119.087 311.778 116.374 312.739 113.674 312.739H109.711C107.257 295.674 92.6036 282.516 74.935 282.516H45.6746C26.2966 282.516 10.5331 298.347 10.5331 317.802V324.07C10.5331 332.331 13.3822 339.931 18.1363 345.95C7.43312 351.005 0 361.935 0 374.576V380.959C0 388.157 5.83423 394.015 13.0037 394.015L523.044 394.019C523.07 394.019 523.099 394.015 523.125 394.015H549.2C553.712 394.015 557.365 390.343 557.365 385.818V325.065C557.365 319.331 554.137 314.442 549.149 312.602V312.602ZM514.88 377.62H437.121C436.589 374.649 435.088 371.865 432.711 369.731C432.592 369.62 432.465 369.517 432.337 369.415L415.91 356.342L403.574 339.243L514.88 351.859V377.62ZM351.062 377.62L348.804 371.656C345.793 363.702 339.24 358.28 331.705 357.503L257.621 349.887V322.695L306.527 328.241H306.569L326.836 330.538L363.815 365.726L364.295 377.625H351.062V377.62ZM194.932 278.191C191.428 275.344 186.292 275.881 183.447 279.399L170.724 295.158L160.331 293.826L212.537 203.708L232.259 218.945L203.807 254.185C200.966 257.702 201.506 262.864 205.006 265.716C206.52 266.946 208.34 267.548 210.143 267.548C212.524 267.548 214.88 266.51 216.492 264.512L266.308 202.807L295.245 236.219C290.84 238.64 287.004 242.119 284.142 246.436L245.472 304.742L189.774 297.6L196.136 289.723C198.972 286.205 198.436 281.043 194.932 278.191V278.191ZM320.802 252.925L335.047 272.188L379.608 333.966L393.964 353.87H375.092L320.691 302.104C318.923 300.417 316.499 299.615 314.075 299.918C311.655 300.217 309.495 301.587 308.185 303.654L303.295 311.373L263.672 306.881L297.733 255.525C300.497 251.354 304.932 248.895 309.912 248.745C310.001 248.741 310.095 248.741 310.184 248.737C314.207 248.686 317.957 250.193 320.802 252.925V252.925ZM416.357 377.616H380.637L380.339 370.264H407.116L416.357 377.616ZM330.042 373.816C331.135 373.927 332.641 375.106 333.542 377.484L333.593 377.616H197.951V360.231L330.042 373.816ZM381.152 270.639L390.29 272.402C394.904 273.29 398.174 277.363 398.067 282.076L397.14 322.016L390.617 321.278L380.497 307.244L381.152 270.639ZM379.612 180.628L340.673 252.046L335.894 245.415C335.596 245.001 335.281 244.604 334.967 244.211L356.475 187.766C357.415 185.303 357.113 182.532 355.667 180.329L338.934 154.836L352.55 145.256L379.28 175.731C380.335 177.157 380.467 179.061 379.612 180.628ZM244.417 108.112L227.395 86.7143C221.556 79.3668 222.751 68.6165 230.057 62.7589L234.615 59.1129C241.934 53.2425 252.641 54.4422 258.484 61.7812L275.506 83.1793C279.941 88.7551 280.447 96.3418 276.905 102.404L261.894 113.991C255.482 115.626 248.589 113.355 244.417 108.112ZM243.567 150.14C244.472 148.577 245.676 147.203 247.126 146.076L297.274 107.357C304.273 101.952 314.207 102.571 320.483 108.77L341.677 132.883L328.92 141.862L320.747 132.934C317.694 129.6 312.527 129.382 309.206 132.448C305.889 135.509 305.672 140.696 308.725 144.031L321.295 157.757L339.725 185.836L321.261 234.285C318.833 233.384 316.282 232.778 313.671 232.505L275.387 188.304C273.027 185.572 269.57 184.039 266.006 184.094C262.404 184.154 259.032 185.794 256.749 188.611L242.546 206.201L220.816 189.414L243.567 150.14ZM131.292 323.092L145.584 312.342C146.6 311.578 147.638 310.976 148.739 310.527C150.75 309.682 152.825 309.387 154.888 309.652L241.291 320.735V348.209L190.616 343C190.616 343 190.612 343 190.608 343C190.599 343 190.595 342.996 190.586 342.996L148.548 338.829C144.044 338.389 140.064 341.677 139.622 346.181C139.18 350.685 142.454 354.698 146.944 355.147L181.622 358.583V377.62H147.748C147.718 377.62 147.693 377.625 147.663 377.625H118.551V374.576C118.551 362.52 111.79 352.021 101.882 346.689C105.973 341.783 108.758 335.755 109.711 329.133H113.674C119.921 329.133 126.006 327.046 131.292 323.092V323.092ZM26.8621 317.802C26.8621 307.385 35.2988 298.91 45.6746 298.91H74.9393C85.3108 298.91 93.7517 307.385 93.7517 317.802V324.066C93.7517 334.483 85.3108 342.957 74.9393 342.957H45.6746C35.2988 342.957 26.8621 334.483 26.8621 324.066V317.802ZM16.3291 374.576C16.3291 366.183 23.1286 359.352 31.493 359.352H87.0628C95.4229 359.352 102.222 366.183 102.222 374.576V377.62H16.3291V374.576ZM541.036 377.616H531.209V347.539L541.036 335.887V377.616Z" fill="black"/>
</g>
<defs>
<clipPath id="clip0">
<rect width="557" height="434" fill="white"/>
</clipPath>
</defs>
</svg>

