<svg width="433" height="434" viewBox="0 0 433 434" fill="none" xmlns="http://www.w3.org/2000/svg">
<g clip-path="url(#clip0)">
<path d="M425.899 291.875C422.354 290.571 418.429 291.654 415.91 294.64L403.001 309.944L320.638 300.61L321.383 268.499C321.614 258.608 314.758 250.075 305.078 248.211L290.604 245.42C288.77 245.066 286.87 245.546 285.419 246.728C283.968 247.91 283.111 249.675 283.078 251.549L282.735 270.588L272.435 256.307L293.014 218.57L324.249 231.02C333.639 234.761 339.671 244.085 339.265 254.218L338.018 285.227C337.877 288.733 340.594 291.693 344.09 291.832C344.176 291.836 344.261 291.839 344.347 291.839C347.728 291.839 350.534 289.157 350.673 285.74L351.919 254.731C352.543 239.211 343.298 224.934 328.923 219.202L299.142 207.332L305.52 195.627C308.657 189.878 308.06 182.846 303.993 177.717C303.927 177.634 303.861 177.551 303.789 177.472L279.183 149.413C279.16 149.39 279.137 149.37 279.117 149.347L257.914 125.225C257.832 125.132 257.749 125.043 257.663 124.957C250.045 117.245 238.684 115.156 229.05 119.046C228.48 114.404 226.649 109.888 223.569 106.01L210.364 89.4113C201.476 78.2428 185.187 76.4184 174.06 85.3386L170.525 88.1697C159.401 97.0899 157.577 113.44 166.458 124.619L179.663 141.218C182.249 144.466 185.527 146.959 189.158 148.615L183.918 152.661C181.48 154.555 179.472 156.853 177.952 159.489L108.414 279.521C107.355 280.091 106.317 280.743 105.317 281.492L94.2427 289.826C92.3595 291.236 90.2554 291.981 88.1612 291.981H85.0875C83.1846 278.747 71.8198 268.542 58.1167 268.542H35.4234C20.3946 268.542 8.16906 280.819 8.16906 295.908V300.769C8.16906 307.176 10.3787 313.07 14.0658 317.739C5.76484 321.659 0 330.136 0 339.94V344.89C0 350.473 4.52481 355.016 10.0852 355.016L405.653 355.019C405.673 355.019 405.696 355.016 405.716 355.016H425.939C429.438 355.016 432.271 352.168 432.271 348.658V301.541C432.271 297.094 429.768 293.302 425.899 291.875ZM399.321 342.301H339.014C338.602 339.996 337.438 337.838 335.594 336.182C335.502 336.096 335.403 336.016 335.304 335.937L322.564 325.798L312.997 312.537L399.321 322.321V342.301ZM272.27 342.301L270.519 337.675C268.184 331.507 263.102 327.301 257.258 326.699L199.801 320.792V299.703L237.731 304.004H237.764L253.482 305.786L282.161 333.076L282.533 342.304H272.27V342.301ZM151.182 265.187C148.465 262.979 144.481 263.396 142.274 266.125L132.407 278.346L124.346 277.313L164.836 207.421L180.132 219.239L158.065 246.569C155.862 249.297 156.281 253.3 158.995 255.512C160.169 256.466 161.581 256.933 162.979 256.933C164.826 256.933 166.653 256.128 167.903 254.579L206.538 206.722L228.981 232.635C225.564 234.513 222.59 237.211 220.37 240.559L190.378 285.78L147.182 280.24L152.115 274.131C154.315 271.402 153.9 267.399 151.182 265.187ZM248.802 245.592L259.85 260.532L294.409 308.444L305.543 323.881H290.907L248.716 283.733C247.344 282.425 245.464 281.803 243.584 282.038C241.708 282.27 240.033 283.333 239.017 284.935L235.224 290.922L204.494 287.438L230.91 247.609C233.054 244.374 236.494 242.466 240.356 242.35C240.425 242.347 240.498 242.347 240.567 242.344C243.687 242.304 246.595 243.473 248.802 245.592ZM322.91 342.298H295.207L294.977 336.596H315.744L322.91 342.298ZM255.968 339.351C256.816 339.437 257.983 340.351 258.683 342.195L258.722 342.298H153.524V328.815L255.968 339.351ZM295.607 259.33L302.694 260.698C306.272 261.386 308.808 264.545 308.726 268.201L308.007 299.176L302.948 298.604L295.099 287.72L295.607 259.33ZM294.413 189.521L264.213 244.91L260.506 239.768C260.275 239.447 260.031 239.139 259.787 238.834L276.468 195.057C277.197 193.147 276.963 190.998 275.842 189.289L262.864 169.518L273.424 162.088L294.155 185.723C294.973 186.829 295.076 188.306 294.413 189.521ZM189.56 133.281L176.359 116.685C171.831 110.987 172.757 102.649 178.423 98.1064L181.959 95.2787C187.634 90.7259 195.939 91.6563 200.47 97.3482L213.672 113.944C217.112 118.268 217.504 124.152 214.757 128.854L203.115 137.84C198.142 139.109 192.796 137.347 189.56 133.281ZM188.901 165.876C189.603 164.664 190.537 163.598 191.661 162.724L230.554 132.695C235.983 128.503 243.687 128.983 248.554 133.791L264.992 152.492L255.098 159.456L248.759 152.532C246.391 149.946 242.384 149.777 239.808 152.154C237.236 154.529 237.068 158.552 239.436 161.138L249.184 171.783L263.478 193.56L249.158 231.135C247.275 230.437 245.296 229.967 243.271 229.755L213.58 195.474C211.749 193.355 209.068 192.166 206.304 192.21C203.511 192.256 200.896 193.527 199.125 195.713L188.109 209.355L171.257 196.335L188.901 165.876ZM101.825 300.011L112.909 291.673C113.697 291.081 114.502 290.614 115.356 290.266C116.916 289.611 118.526 289.382 120.125 289.587L187.136 298.183V319.49L147.835 315.451C147.835 315.451 147.831 315.451 147.828 315.451C147.821 315.451 147.818 315.448 147.812 315.448L115.208 312.216C111.715 311.875 108.628 314.424 108.285 317.918C107.942 321.411 110.482 324.523 113.964 324.871L140.859 327.537V342.301H114.588C114.565 342.301 114.545 342.304 114.522 342.304H91.944V339.94C91.944 330.589 86.7002 322.447 79.016 318.312C82.1886 314.507 84.3488 309.832 85.0875 304.696H88.1612C93.0059 304.696 97.7253 303.077 101.825 300.011ZM20.8332 295.908C20.8332 287.829 27.3764 281.257 35.4234 281.257H58.12C66.1638 281.257 72.7102 287.829 72.7102 295.908V300.766C72.7102 308.845 66.1638 315.418 58.12 315.418H35.4234C27.3764 315.418 20.8332 308.845 20.8332 300.766V295.908ZM12.6642 339.94C12.6642 333.43 17.9376 328.133 24.4247 328.133H67.5225C74.0063 328.133 79.2798 333.43 79.2798 339.94V342.301H12.6642V339.94ZM419.607 342.298H411.985V318.971L419.607 309.934V342.298Z" fill="black"/>
</g>
<defs>
<clipPath id="clip0">
<rect width="432.271" height="434" fill="white"/>
</clipPath>
</defs>
</svg>
