<svg width="50" height="50" viewBox="0 0 50 50" fill="none" xmlns="http://www.w3.org/2000/svg">
<g clip-path="url(#clip0)">
<path d="M7.32634 28.209C3.29577 28.209 0.015305 31.4815 0.0024144 35.5094C-0.0140895 36.1205 -0.0605737 43.2195 6.2906 49.571C6.86247 50.1431 7.79011 50.1432 8.36208 49.571C14.7134 43.2195 14.6668 36.1206 14.6503 35.5094C14.6374 31.4815 11.3569 28.209 7.32634 28.209ZM11.1092 39.4573C10.3754 41.9969 9.10525 44.3213 7.32634 46.3848C5.54743 44.3213 4.27741 41.9969 3.54353 39.4573C2.89011 37.1956 2.93064 35.5997 2.93093 35.5895C2.93161 35.5707 2.932 35.552 2.932 35.5331C2.932 33.11 4.90329 31.1386 7.32634 31.1386C9.74939 31.1386 11.7207 33.11 11.7207 35.5331C11.7207 35.5519 11.7209 35.565 11.7216 35.5838C11.722 35.5997 11.7626 37.1956 11.1092 39.4573Z" fill="#191919"/>
<path d="M7.32617 36.9976C8.13518 36.9976 8.79102 36.3417 8.79102 35.5327C8.79102 34.7237 8.13518 34.0679 7.32617 34.0679C6.51716 34.0679 5.86133 34.7237 5.86133 35.5327C5.86133 36.3417 6.51716 36.9976 7.32617 36.9976Z" fill="#191919"/>
<path d="M47.4314 5.52549L49.7253 2.3168C50.417 1.34932 49.7241 0 48.5338 0H36.8121C36.0031 0 35.3474 0.655859 35.3474 1.46484V17.3787H34.2289C33.4199 17.3787 32.7642 18.0346 32.7642 18.8436C32.7642 19.6525 33.42 20.3084 34.2289 20.3084H39.3952C40.2042 20.3084 40.86 19.6525 40.86 18.8436C40.86 18.0346 40.2041 17.3787 39.3952 17.3787H38.2768V10.7913H48.5337C49.7508 10.7913 50.437 9.38691 49.6895 8.42676L47.4314 5.52549ZM44.4483 6.4624L45.5375 7.86172H38.2769V2.92969H45.6859L44.4126 4.71074C44.0355 5.23818 44.0501 5.95078 44.4483 6.4624Z" fill="#191919"/>
<path d="M42.522 28.9287C41.3556 25.4062 38.0301 22.9482 34.2362 22.9482H22.6753C22.0812 21.224 20.4437 19.9814 18.5203 19.9814C16.599 19.9814 14.963 21.2214 14.3673 22.9426C11.2726 22.8247 8.79092 20.2716 8.79092 17.1484V14.0254C8.79092 10.8273 11.3927 8.22559 14.5905 8.22559H20.8569C21.4616 9.93057 23.0897 11.1553 24.9993 11.1553C26.9089 11.1553 28.537 9.93057 29.1417 8.22559H31.2599C32.0689 8.22559 32.7246 7.56973 32.7246 6.76074C32.7246 5.95176 32.0688 5.2959 31.2599 5.2959H29.1417C28.537 3.59092 26.9089 2.36621 24.9993 2.36621C23.0897 2.36621 21.4616 3.59092 20.8569 5.2959H14.5905C9.77725 5.2959 5.86133 9.21191 5.86133 14.0254V17.1484C5.86133 21.8947 9.66885 25.7683 14.3897 25.8754C15.004 27.5624 16.6236 28.7705 18.5204 28.7705C20.4162 28.7705 22.0353 27.5637 22.6502 25.8779H34.2362C36.548 25.8779 38.5972 27.2506 39.5188 29.2818C38.089 30.0077 37.1063 31.4918 37.1063 33.2021C37.1063 34.9124 38.089 36.3966 39.5188 37.1225C38.5971 39.1537 36.5479 40.5264 34.2361 40.5264H29.1416C28.5369 38.8215 26.9088 37.5969 24.9992 37.5969C23.0897 37.5969 21.4616 38.8215 20.8568 40.5264H17.2271C16.4181 40.5264 15.7623 41.1822 15.7623 41.9912C15.7623 42.8002 16.4182 43.4561 17.2271 43.4561H20.8567C21.4613 45.1611 23.0896 46.3859 24.9992 46.3859C26.9089 46.3859 28.5371 45.1611 29.1417 43.4561H34.2361C38.0301 43.4561 41.3555 40.9981 42.5219 37.4756C44.4538 37.0138 45.8949 35.2736 45.8949 33.2021C45.8949 31.1307 44.4539 29.3905 42.522 28.9287ZM24.9992 5.2959C25.8069 5.2959 26.464 5.95303 26.464 6.76074C26.464 7.56846 25.8069 8.22559 24.9992 8.22559C24.1915 8.22559 23.5345 7.56846 23.5345 6.76074C23.5345 5.95303 24.1915 5.2959 24.9992 5.2959ZM18.5203 25.8408C17.7126 25.8408 17.0556 25.1837 17.0556 24.376C17.0556 23.5683 17.7126 22.9111 18.5203 22.9111C19.328 22.9111 19.9851 23.5683 19.9851 24.376C19.9851 25.1837 19.328 25.8408 18.5203 25.8408ZM24.9992 43.4562C24.1915 43.4562 23.5345 42.7991 23.5345 41.9914C23.5345 41.1837 24.1915 40.5266 24.9992 40.5266C25.8069 40.5266 26.464 41.1837 26.464 41.9914C26.464 42.7991 25.8069 43.4562 24.9992 43.4562ZM41.5006 34.667C40.6929 34.667 40.0358 34.0099 40.0358 33.2021C40.0358 32.3944 40.6929 31.7373 41.5006 31.7373C42.3083 31.7373 42.9653 32.3944 42.9653 33.2021C42.9653 34.0099 42.3083 34.667 41.5006 34.667Z" fill="#191919"/>
</g>
<defs>
<clipPath id="clip0">
<rect width="50" height="50" fill="white"/>
</clipPath>
</defs>
</svg>
