<svg width="700" height="600" viewBox="0 0 700 600" fill="none" xmlns="http://www.w3.org/2000/svg">
<rect width="700" height="600" fill="#191919"/>
<path d="M119.887 160.844L114.325 166.625V182H108.325V136.5H114.325V159L134.544 136.5H141.794L123.887 156.594L143.2 182H136.012L119.887 160.844ZM160.225 182H154.444V148.188H160.225V182ZM153.975 139.219C153.975 138.281 154.256 137.49 154.819 136.844C155.402 136.198 156.256 135.875 157.381 135.875C158.506 135.875 159.36 136.198 159.944 136.844C160.527 137.49 160.819 138.281 160.819 139.219C160.819 140.156 160.527 140.938 159.944 141.562C159.36 142.188 158.506 142.5 157.381 142.5C156.256 142.5 155.402 142.188 154.819 141.562C154.256 140.938 153.975 140.156 153.975 139.219ZM181.375 148.188L181.562 152.438C184.146 149.188 187.521 147.562 191.688 147.562C198.833 147.562 202.438 151.594 202.5 159.656V182H196.719V159.625C196.698 157.188 196.135 155.385 195.031 154.219C193.948 153.052 192.25 152.469 189.938 152.469C188.062 152.469 186.417 152.969 185 153.969C183.583 154.969 182.479 156.281 181.688 157.906V182H175.906V148.188H181.375ZM231.65 182.625C227.067 182.625 223.337 181.125 220.462 178.125C217.587 175.104 216.15 171.073 216.15 166.031V164.969C216.15 161.615 216.785 158.625 218.056 156C219.348 153.354 221.14 151.292 223.431 149.812C225.744 148.312 228.244 147.562 230.931 147.562C235.327 147.562 238.744 149.01 241.181 151.906C243.619 154.802 244.837 158.948 244.837 164.344V166.75H221.931C222.015 170.083 222.983 172.781 224.837 174.844C226.712 176.885 229.087 177.906 231.962 177.906C234.004 177.906 235.733 177.49 237.15 176.656C238.567 175.823 239.806 174.719 240.869 173.344L244.4 176.094C241.567 180.448 237.317 182.625 231.65 182.625ZM230.931 152.312C228.598 152.312 226.64 153.167 225.056 154.875C223.473 156.562 222.494 158.938 222.119 162H239.056V161.562C238.89 158.625 238.098 156.354 236.681 154.75C235.265 153.125 233.348 152.312 230.931 152.312ZM233.744 134H240.744L232.369 143.188H227.712L233.744 134ZM277.644 173.031C277.644 171.469 277.05 170.26 275.863 169.406C274.696 168.531 272.644 167.781 269.706 167.156C266.79 166.531 264.467 165.781 262.738 164.906C261.029 164.031 259.758 162.99 258.925 161.781C258.113 160.573 257.706 159.135 257.706 157.469C257.706 154.698 258.873 152.354 261.206 150.438C263.56 148.521 266.56 147.562 270.206 147.562C274.04 147.562 277.144 148.552 279.519 150.531C281.915 152.51 283.113 155.042 283.113 158.125H277.3C277.3 156.542 276.623 155.177 275.269 154.031C273.935 152.885 272.248 152.312 270.206 152.312C268.102 152.312 266.456 152.771 265.269 153.688C264.081 154.604 263.488 155.802 263.488 157.281C263.488 158.677 264.04 159.729 265.144 160.438C266.248 161.146 268.238 161.823 271.113 162.469C274.008 163.115 276.352 163.885 278.144 164.781C279.935 165.677 281.258 166.76 282.113 168.031C282.988 169.281 283.425 170.812 283.425 172.625C283.425 175.646 282.217 178.073 279.8 179.906C277.383 181.719 274.248 182.625 270.394 182.625C267.685 182.625 265.29 182.146 263.206 181.188C261.123 180.229 259.488 178.896 258.3 177.188C257.133 175.458 256.55 173.594 256.55 171.594H262.331C262.435 173.531 263.206 175.073 264.644 176.219C266.102 177.344 268.019 177.906 270.394 177.906C272.581 177.906 274.331 177.469 275.644 176.594C276.977 175.698 277.644 174.51 277.644 173.031ZM303.637 182H297.856V148.188H303.637V182ZM297.387 139.219C297.387 138.281 297.669 137.49 298.231 136.844C298.815 136.198 299.669 135.875 300.794 135.875C301.919 135.875 302.773 136.198 303.356 136.844C303.94 137.49 304.231 138.281 304.231 139.219C304.231 140.156 303.94 140.938 303.356 141.562C302.773 142.188 301.919 142.5 300.794 142.5C299.669 142.5 298.815 142.188 298.231 141.562C297.669 140.938 297.387 140.156 297.387 139.219ZM327.162 140V148.188H333.475V152.656H327.162V173.625C327.162 174.979 327.444 176 328.006 176.688C328.569 177.354 329.527 177.688 330.881 177.688C331.548 177.688 332.465 177.562 333.631 177.312V182C332.11 182.417 330.631 182.625 329.194 182.625C326.61 182.625 324.662 181.844 323.35 180.281C322.037 178.719 321.381 176.5 321.381 173.625V152.656H315.225V148.188H321.381V140H327.162ZM352.438 152.281C355 149.135 358.333 147.562 362.438 147.562C369.583 147.562 373.188 151.594 373.25 159.656V182H367.469V159.625C367.448 157.188 366.885 155.385 365.781 154.219C364.698 153.052 363 152.469 360.688 152.469C358.812 152.469 357.167 152.969 355.75 153.969C354.333 154.969 353.229 156.281 352.438 157.906V182H346.656V134H352.438V152.281ZM402.338 182.625C397.754 182.625 394.025 181.125 391.15 178.125C388.275 175.104 386.838 171.073 386.838 166.031V164.969C386.838 161.615 387.473 158.625 388.744 156C390.035 153.354 391.827 151.292 394.119 149.812C396.431 148.312 398.931 147.562 401.619 147.562C406.015 147.562 409.431 149.01 411.869 151.906C414.306 154.802 415.525 158.948 415.525 164.344V166.75H392.619C392.702 170.083 393.671 172.781 395.525 174.844C397.4 176.885 399.775 177.906 402.65 177.906C404.692 177.906 406.421 177.49 407.838 176.656C409.254 175.823 410.494 174.719 411.556 173.344L415.088 176.094C412.254 180.448 408.004 182.625 402.338 182.625ZM401.619 152.312C399.285 152.312 397.327 153.167 395.744 154.875C394.16 156.562 393.181 158.938 392.806 162H409.744V161.562C409.577 158.625 408.785 156.354 407.369 154.75C405.952 153.125 404.035 152.312 401.619 152.312ZM404.431 134H411.431L403.056 143.188H398.4L404.431 134ZM444.987 153.375C444.112 153.229 443.165 153.156 442.144 153.156C438.352 153.156 435.779 154.771 434.425 158V182H428.644V148.188H434.269L434.362 152.094C436.258 149.073 438.946 147.562 442.425 147.562C443.55 147.562 444.404 147.708 444.987 148V153.375ZM476.356 182C476.023 181.333 475.752 180.146 475.544 178.438C472.856 181.229 469.648 182.625 465.919 182.625C462.585 182.625 459.846 181.688 457.7 179.812C455.575 177.917 454.513 175.521 454.513 172.625C454.513 169.104 455.846 166.375 458.513 164.438C461.2 162.479 464.971 161.5 469.825 161.5H475.45V158.844C475.45 156.823 474.846 155.219 473.638 154.031C472.429 152.823 470.648 152.219 468.294 152.219C466.231 152.219 464.502 152.74 463.106 153.781C461.71 154.823 461.013 156.083 461.013 157.562H455.2C455.2 155.875 455.794 154.25 456.981 152.688C458.19 151.104 459.815 149.854 461.856 148.938C463.919 148.021 466.179 147.562 468.638 147.562C472.533 147.562 475.585 148.542 477.794 150.5C480.002 152.438 481.148 155.115 481.231 158.531V174.094C481.231 177.198 481.627 179.667 482.419 181.5V182H476.356ZM466.763 177.594C468.575 177.594 470.294 177.125 471.919 176.188C473.544 175.25 474.721 174.031 475.45 172.531V165.594H470.919C463.835 165.594 460.294 167.667 460.294 171.812C460.294 173.625 460.898 175.042 462.106 176.062C463.315 177.083 464.867 177.594 466.763 177.594ZM525.256 165.469C525.256 170.615 524.079 174.76 521.725 177.906C519.371 181.052 516.183 182.625 512.162 182.625C508.058 182.625 504.829 181.323 502.475 178.719V195H496.694V148.188H501.975L502.256 151.938C504.61 149.021 507.881 147.562 512.069 147.562C516.131 147.562 519.34 149.094 521.694 152.156C524.069 155.219 525.256 159.479 525.256 164.938V165.469ZM519.475 164.812C519.475 161 518.662 157.99 517.037 155.781C515.412 153.573 513.183 152.469 510.35 152.469C506.85 152.469 504.225 154.021 502.475 157.125V173.281C504.204 176.365 506.85 177.906 510.412 177.906C513.183 177.906 515.381 176.812 517.006 174.625C518.652 172.417 519.475 169.146 519.475 164.812ZM545.312 182H539.531V148.188H545.312V182ZM539.062 139.219C539.062 138.281 539.344 137.49 539.906 136.844C540.49 136.198 541.344 135.875 542.469 135.875C543.594 135.875 544.448 136.198 545.031 136.844C545.615 137.49 545.906 138.281 545.906 139.219C545.906 140.156 545.615 140.938 545.031 141.562C544.448 142.188 543.594 142.5 542.469 142.5C541.344 142.5 540.49 142.188 539.906 141.562C539.344 140.938 539.062 140.156 539.062 139.219ZM575.025 182.625C570.442 182.625 566.713 181.125 563.838 178.125C560.963 175.104 559.525 171.073 559.525 166.031V164.969C559.525 161.615 560.16 158.625 561.431 156C562.723 153.354 564.515 151.292 566.806 149.812C569.119 148.312 571.619 147.562 574.306 147.562C578.702 147.562 582.119 149.01 584.556 151.906C586.994 154.802 588.213 158.948 588.213 164.344V166.75H565.306C565.39 170.083 566.358 172.781 568.213 174.844C570.088 176.885 572.463 177.906 575.338 177.906C577.379 177.906 579.108 177.49 580.525 176.656C581.942 175.823 583.181 174.719 584.244 173.344L587.775 176.094C584.942 180.448 580.692 182.625 575.025 182.625ZM574.306 152.312C571.973 152.312 570.015 153.167 568.431 154.875C566.848 156.562 565.869 158.938 565.494 162H582.431V161.562C582.265 158.625 581.473 156.354 580.056 154.75C578.64 153.125 576.723 152.312 574.306 152.312ZM174.456 233.375C173.581 233.229 172.633 233.156 171.613 233.156C167.821 233.156 165.248 234.771 163.894 238V262H158.113V228.188H163.738L163.831 232.094C165.727 229.073 168.415 227.562 171.894 227.562C173.019 227.562 173.873 227.708 174.456 228V233.375ZM199.606 262.625C195.023 262.625 191.294 261.125 188.419 258.125C185.544 255.104 184.106 251.073 184.106 246.031V244.969C184.106 241.615 184.742 238.625 186.012 236C187.304 233.354 189.096 231.292 191.387 229.812C193.7 228.312 196.2 227.562 198.887 227.562C203.283 227.562 206.7 229.01 209.137 231.906C211.575 234.802 212.794 238.948 212.794 244.344V246.75H189.887C189.971 250.083 190.94 252.781 192.794 254.844C194.669 256.885 197.044 257.906 199.919 257.906C201.96 257.906 203.69 257.49 205.106 256.656C206.523 255.823 207.762 254.719 208.825 253.344L212.356 256.094C209.523 260.448 205.273 262.625 199.606 262.625ZM198.887 232.312C196.554 232.312 194.596 233.167 193.012 234.875C191.429 236.562 190.45 238.938 190.075 242H207.012V241.562C206.846 238.625 206.054 236.354 204.637 234.75C203.221 233.125 201.304 232.312 198.887 232.312ZM245.6 253.031C245.6 251.469 245.006 250.26 243.819 249.406C242.652 248.531 240.6 247.781 237.663 247.156C234.746 246.531 232.423 245.781 230.694 244.906C228.985 244.031 227.715 242.99 226.881 241.781C226.069 240.573 225.663 239.135 225.663 237.469C225.663 234.698 226.829 232.354 229.163 230.438C231.517 228.521 234.517 227.562 238.163 227.562C241.996 227.562 245.1 228.552 247.475 230.531C249.871 232.51 251.069 235.042 251.069 238.125H245.256C245.256 236.542 244.579 235.177 243.225 234.031C241.892 232.885 240.204 232.312 238.163 232.312C236.058 232.312 234.413 232.771 233.225 233.688C232.038 234.604 231.444 235.802 231.444 237.281C231.444 238.677 231.996 239.729 233.1 240.438C234.204 241.146 236.194 241.823 239.069 242.469C241.965 243.115 244.308 243.885 246.1 244.781C247.892 245.677 249.215 246.76 250.069 248.031C250.944 249.281 251.381 250.812 251.381 252.625C251.381 255.646 250.173 258.073 247.756 259.906C245.34 261.719 242.204 262.625 238.35 262.625C235.642 262.625 233.246 262.146 231.163 261.188C229.079 260.229 227.444 258.896 226.256 257.188C225.09 255.458 224.506 253.594 224.506 251.594H230.288C230.392 253.531 231.163 255.073 232.6 256.219C234.058 257.344 235.975 257.906 238.35 257.906C240.538 257.906 242.288 257.469 243.6 256.594C244.933 255.698 245.6 254.51 245.6 253.031ZM293.875 245.469C293.875 250.615 292.698 254.76 290.344 257.906C287.99 261.052 284.802 262.625 280.781 262.625C276.677 262.625 273.448 261.323 271.094 258.719V275H265.312V228.188H270.594L270.875 231.938C273.229 229.021 276.5 227.562 280.688 227.562C284.75 227.562 287.958 229.094 290.312 232.156C292.688 235.219 293.875 239.479 293.875 244.938V245.469ZM288.094 244.812C288.094 241 287.281 237.99 285.656 235.781C284.031 233.573 281.802 232.469 278.969 232.469C275.469 232.469 272.844 234.021 271.094 237.125V253.281C272.823 256.365 275.469 257.906 279.031 257.906C281.802 257.906 284 256.812 285.625 254.625C287.271 252.417 288.094 249.146 288.094 244.812ZM313.931 262H308.15V228.188H313.931V262ZM307.681 219.219C307.681 218.281 307.963 217.49 308.525 216.844C309.108 216.198 309.963 215.875 311.088 215.875C312.213 215.875 313.067 216.198 313.65 216.844C314.233 217.49 314.525 218.281 314.525 219.219C314.525 220.156 314.233 220.938 313.65 221.562C313.067 222.188 312.213 222.5 311.088 222.5C309.963 222.5 309.108 222.188 308.525 221.562C307.963 220.938 307.681 220.156 307.681 219.219ZM345.956 233.375C345.081 233.229 344.133 233.156 343.112 233.156C339.321 233.156 336.748 234.771 335.394 238V262H329.612V228.188H335.237L335.331 232.094C337.227 229.073 339.915 227.562 343.394 227.562C344.519 227.562 345.373 227.708 345.956 228V233.375ZM377.325 262C376.992 261.333 376.721 260.146 376.513 258.438C373.825 261.229 370.617 262.625 366.888 262.625C363.554 262.625 360.815 261.688 358.669 259.812C356.544 257.917 355.481 255.521 355.481 252.625C355.481 249.104 356.815 246.375 359.481 244.438C362.169 242.479 365.94 241.5 370.794 241.5H376.419V238.844C376.419 236.823 375.815 235.219 374.606 234.031C373.398 232.823 371.617 232.219 369.263 232.219C367.2 232.219 365.471 232.74 364.075 233.781C362.679 234.823 361.981 236.083 361.981 237.562H356.169C356.169 235.875 356.763 234.25 357.95 232.688C359.158 231.104 360.783 229.854 362.825 228.938C364.888 228.021 367.148 227.562 369.606 227.562C373.502 227.562 376.554 228.542 378.763 230.5C380.971 232.438 382.117 235.115 382.2 238.531V254.094C382.2 257.198 382.596 259.667 383.388 261.5V262H377.325ZM367.731 257.594C369.544 257.594 371.263 257.125 372.888 256.188C374.513 255.25 375.69 254.031 376.419 252.531V245.594H371.888C364.804 245.594 361.263 247.667 361.263 251.812C361.263 253.625 361.867 255.042 363.075 256.062C364.283 257.083 365.835 257.594 367.731 257.594ZM405.506 220V228.188H411.819V232.656H405.506V253.625C405.506 254.979 405.788 256 406.35 256.688C406.913 257.354 407.871 257.688 409.225 257.688C409.892 257.688 410.808 257.562 411.975 257.312V262C410.454 262.417 408.975 262.625 407.538 262.625C404.954 262.625 403.006 261.844 401.694 260.281C400.381 258.719 399.725 256.5 399.725 253.625V232.656H393.569V228.188H399.725V220H405.506ZM422.844 244.781C422.844 241.469 423.49 238.49 424.781 235.844C426.094 233.198 427.906 231.156 430.219 229.719C432.552 228.281 435.208 227.562 438.188 227.562C442.792 227.562 446.51 229.156 449.344 232.344C452.198 235.531 453.625 239.771 453.625 245.062V245.469C453.625 248.76 452.99 251.719 451.719 254.344C450.469 256.948 448.667 258.979 446.312 260.438C443.979 261.896 441.292 262.625 438.25 262.625C433.667 262.625 429.948 261.031 427.094 257.844C424.26 254.656 422.844 250.438 422.844 245.188V244.781ZM428.656 245.469C428.656 249.219 429.521 252.229 431.25 254.5C433 256.771 435.333 257.906 438.25 257.906C441.188 257.906 443.521 256.76 445.25 254.469C446.979 252.156 447.844 248.927 447.844 244.781C447.844 241.073 446.958 238.073 445.188 235.781C443.438 233.469 441.104 232.312 438.188 232.312C435.333 232.312 433.031 233.448 431.281 235.719C429.531 237.99 428.656 241.24 428.656 245.469ZM473.556 262H467.775V228.188H473.556V262ZM467.306 219.219C467.306 218.281 467.588 217.49 468.15 216.844C468.733 216.198 469.588 215.875 470.713 215.875C471.838 215.875 472.692 216.198 473.275 216.844C473.858 217.49 474.15 218.281 474.15 219.219C474.15 220.156 473.858 220.938 473.275 221.562C472.692 222.188 471.838 222.5 470.713 222.5C469.588 222.5 468.733 222.188 468.15 221.562C467.588 220.938 467.306 220.156 467.306 219.219ZM505.581 233.375C504.706 233.229 503.758 233.156 502.737 233.156C498.946 233.156 496.373 234.771 495.019 238V262H489.237V228.188H494.862L494.956 232.094C496.852 229.073 499.54 227.562 503.019 227.562C504.144 227.562 504.998 227.708 505.581 228V233.375ZM530.731 262.625C526.148 262.625 522.419 261.125 519.544 258.125C516.669 255.104 515.231 251.073 515.231 246.031V244.969C515.231 241.615 515.867 238.625 517.138 236C518.429 233.354 520.221 231.292 522.513 229.812C524.825 228.312 527.325 227.562 530.013 227.562C534.408 227.562 537.825 229.01 540.263 231.906C542.7 234.802 543.919 238.948 543.919 244.344V246.75H521.013C521.096 250.083 522.065 252.781 523.919 254.844C525.794 256.885 528.169 257.906 531.044 257.906C533.085 257.906 534.815 257.49 536.231 256.656C537.648 255.823 538.888 254.719 539.95 253.344L543.481 256.094C540.648 260.448 536.398 262.625 530.731 262.625ZM530.013 232.312C527.679 232.312 525.721 233.167 524.138 234.875C522.554 236.562 521.575 238.938 521.2 242H538.138V241.562C537.971 238.625 537.179 236.354 535.763 234.75C534.346 233.125 532.429 232.312 530.013 232.312Z" fill="white"/>
<g clip-path="url(#clip0)">
<path d="M429.328 454.291C429.311 454.224 429.292 454.158 429.271 454.092L411.506 399.582C406.853 381.487 391.173 371.522 367.34 371.522C364.858 371.522 362.441 372.295 360.427 373.693C359.875 373.2 359.146 372.9 358.348 372.9H358.34C356.614 372.905 355.219 374.307 355.223 376.032C355.229 378.922 355.248 386.984 355.248 386.984H344.752L344.746 347.572H355.224L355.223 347.753C355.207 349.478 356.593 350.89 358.319 350.907C360.043 350.938 361.457 349.537 361.472 347.811L361.503 344.476C361.511 343.642 361.185 342.84 360.598 342.248C360.011 341.655 359.212 341.322 358.378 341.322H341.621C339.895 341.322 338.496 342.721 338.496 344.447V373.026C336.723 372.051 334.714 371.522 332.66 371.522C308.827 371.522 293.146 381.486 288.494 399.582L270.729 454.093C270.708 454.158 270.689 454.224 270.672 454.291C268.828 461.54 270.821 468.462 276.141 473.281C280.049 476.822 285.173 478.678 290.528 478.678C293.253 478.678 296.038 478.197 298.754 477.213C301.106 476.36 310.529 474.819 315.916 474.047C315.999 474.035 316.081 474.02 316.163 474.002C325.624 471.859 334.079 466.642 339.971 459.313C343.989 454.314 344.287 448.756 344.576 443.381C344.625 442.468 344.675 441.524 344.744 440.598C344.749 440.521 344.752 440.444 344.752 440.367V419.395L350 417.003L355.248 419.395V440.367C355.248 440.444 355.251 440.521 355.257 440.598C355.325 441.524 355.376 442.468 355.425 443.381C355.713 448.756 356.011 454.314 360.03 459.313C365.921 466.642 374.376 471.858 383.837 474.002C383.919 474.02 384.002 474.035 384.085 474.047C389.471 474.819 398.894 476.36 401.247 477.213C403.962 478.197 406.747 478.678 409.472 478.678C414.827 478.677 419.951 476.822 423.859 473.281C429.179 468.462 431.172 461.54 429.328 454.291V454.291ZM338.503 440.253C338.434 441.203 338.383 442.139 338.335 443.046C338.078 447.834 337.856 451.969 335.099 455.398C330.113 461.601 322.944 466.03 314.902 467.88C312.908 468.166 300.262 470.019 296.624 471.338C290.755 473.464 284.514 472.434 280.336 468.649C276.812 465.456 275.491 460.824 276.705 455.927L294.467 401.423C294.488 401.357 294.507 401.291 294.525 401.224C299.455 381.841 317.985 377.772 332.66 377.772C334.307 377.772 335.831 378.437 336.953 379.645C337.836 380.597 338.367 381.772 338.497 383.032V389.714C338.497 389.82 338.495 389.927 338.493 390.032V390.036C338.352 395.933 334.267 401.095 328.559 402.59L327.261 402.931C324.485 403.658 321.544 403.351 318.98 402.065L318.394 401.772C317.257 401.202 315.888 401.378 314.933 402.217C313.977 403.056 313.625 404.391 314.042 405.592L316.871 413.73H307.403C305.677 413.73 304.278 415.129 304.278 416.854C304.278 418.58 305.677 419.979 307.403 419.979H319.044L321.851 428.055V428.37C321.851 428.908 321.839 429.43 321.817 429.939L299.6 432.98C297.89 433.214 296.693 434.79 296.928 436.5C297.142 438.066 298.482 439.202 300.02 439.202C300.161 439.202 300.304 439.192 300.447 439.172L320.723 436.396C318.794 442.31 314.366 446.34 307.224 451.836L306.591 452.323C305.224 453.376 304.968 455.337 306.02 456.705C306.636 457.505 307.562 457.925 308.499 457.925C309.164 457.925 309.834 457.713 310.402 457.276L311.035 456.789C320.986 449.131 328.041 442.613 328.099 428.546C328.106 428.52 328.112 428.493 328.118 428.467C328.347 427.431 329.058 426.551 330.02 426.113L338.503 422.246V440.253ZM327.427 420.425C326.955 420.64 326.503 420.893 326.077 421.179L321.99 409.422C324.263 409.711 326.59 409.567 328.845 408.976L330.143 408.636C337.53 406.7 343.067 400.584 344.424 393.233H346.875V411.559L327.427 420.425ZM353.125 393.233H355.576C356.933 400.585 362.47 406.701 369.857 408.636L371.155 408.976C373.41 409.567 375.736 409.711 378.01 409.422L373.924 421.18C373.497 420.894 373.045 420.641 372.573 420.426L353.125 411.559V393.233H353.125ZM419.664 468.649C415.486 472.434 409.245 473.465 403.376 471.338C399.738 470.019 387.092 468.167 385.098 467.88C377.056 466.031 369.887 461.601 364.9 455.398C362.143 451.969 361.922 447.834 361.665 443.047C361.616 442.14 361.566 441.203 361.497 440.254V422.245L369.98 426.112C370.942 426.551 371.652 427.431 371.881 428.466C371.887 428.493 371.894 428.52 371.9 428.546C371.959 442.613 379.014 449.13 388.965 456.789L389.597 457.276C390.165 457.713 390.835 457.924 391.501 457.924C392.438 457.924 393.364 457.504 393.98 456.704C395.032 455.337 394.776 453.375 393.408 452.323L392.776 451.836C385.634 446.339 381.205 442.309 379.277 436.396L399.552 439.172C399.696 439.191 399.839 439.201 399.98 439.201C401.518 439.201 402.858 438.066 403.072 436.5C403.306 434.79 402.11 433.214 400.4 432.98L378.183 429.938C378.16 429.429 378.149 428.907 378.149 428.37V428.054L380.956 419.979H392.597C394.323 419.979 395.722 418.58 395.722 416.854C395.722 415.129 394.323 413.729 392.597 413.729H383.129L385.957 405.591C386.375 404.39 386.022 403.056 385.067 402.217C384.111 401.378 382.742 401.202 381.605 401.772L381.02 402.065C378.454 403.35 375.514 403.658 372.738 402.93L371.44 402.59C365.737 401.096 361.655 395.942 361.507 390.053C361.506 389.835 361.49 383.508 361.489 383.189C361.589 381.87 362.127 380.636 363.046 379.646C364.169 378.437 365.693 377.772 367.339 377.772C382.015 377.772 400.544 381.841 405.475 401.225C405.492 401.292 405.511 401.358 405.532 401.423L423.295 455.927C424.509 460.824 423.188 465.456 419.664 468.649V468.649Z" fill="#F2E2CD"/>
<path d="M357.737 358.898C356.449 359.16 355.443 360.218 355.254 361.52C355.065 362.822 355.752 364.141 356.922 364.74C358.118 365.353 359.607 365.118 360.559 364.17C361.482 363.25 361.724 361.808 361.174 360.631C360.576 359.352 359.123 358.617 357.737 358.898Z" fill="#F2E2CD"/>
</g>
<rect width="700" height="600" fill="#F2E2CD" fill-opacity="0.02"/>
<defs>
<clipPath id="clip0">
<rect width="160" height="160" fill="white" transform="translate(270 330)"/>
</clipPath>
</defs>
</svg>
