<svg width="700" height="600" viewBox="0 0 700 600" fill="none" xmlns="http://www.w3.org/2000/svg">
<rect width="700" height="600" fill="#191919"/>
<path d="M119.887 160.844L114.325 166.625V182H108.325V136.5H114.325V159L134.544 136.5H141.794L123.887 156.594L143.2 182H136.012L119.887 160.844ZM160.225 182H154.444V148.188H160.225V182ZM153.975 139.219C153.975 138.281 154.256 137.49 154.819 136.844C155.402 136.198 156.256 135.875 157.381 135.875C158.506 135.875 159.36 136.198 159.944 136.844C160.527 137.49 160.819 138.281 160.819 139.219C160.819 140.156 160.527 140.938 159.944 141.562C159.36 142.188 158.506 142.5 157.381 142.5C156.256 142.5 155.402 142.188 154.819 141.562C154.256 140.938 153.975 140.156 153.975 139.219ZM181.375 148.188L181.562 152.438C184.146 149.188 187.521 147.562 191.688 147.562C198.833 147.562 202.438 151.594 202.5 159.656V182H196.719V159.625C196.698 157.188 196.135 155.385 195.031 154.219C193.948 153.052 192.25 152.469 189.938 152.469C188.062 152.469 186.417 152.969 185 153.969C183.583 154.969 182.479 156.281 181.688 157.906V182H175.906V148.188H181.375ZM231.65 182.625C227.067 182.625 223.337 181.125 220.462 178.125C217.587 175.104 216.15 171.073 216.15 166.031V164.969C216.15 161.615 216.785 158.625 218.056 156C219.348 153.354 221.14 151.292 223.431 149.812C225.744 148.312 228.244 147.562 230.931 147.562C235.327 147.562 238.744 149.01 241.181 151.906C243.619 154.802 244.837 158.948 244.837 164.344V166.75H221.931C222.015 170.083 222.983 172.781 224.837 174.844C226.712 176.885 229.087 177.906 231.962 177.906C234.004 177.906 235.733 177.49 237.15 176.656C238.567 175.823 239.806 174.719 240.869 173.344L244.4 176.094C241.567 180.448 237.317 182.625 231.65 182.625ZM230.931 152.312C228.598 152.312 226.64 153.167 225.056 154.875C223.473 156.562 222.494 158.938 222.119 162H239.056V161.562C238.89 158.625 238.098 156.354 236.681 154.75C235.265 153.125 233.348 152.312 230.931 152.312ZM233.744 134H240.744L232.369 143.188H227.712L233.744 134ZM277.644 173.031C277.644 171.469 277.05 170.26 275.863 169.406C274.696 168.531 272.644 167.781 269.706 167.156C266.79 166.531 264.467 165.781 262.738 164.906C261.029 164.031 259.758 162.99 258.925 161.781C258.113 160.573 257.706 159.135 257.706 157.469C257.706 154.698 258.873 152.354 261.206 150.438C263.56 148.521 266.56 147.562 270.206 147.562C274.04 147.562 277.144 148.552 279.519 150.531C281.915 152.51 283.113 155.042 283.113 158.125H277.3C277.3 156.542 276.623 155.177 275.269 154.031C273.935 152.885 272.248 152.312 270.206 152.312C268.102 152.312 266.456 152.771 265.269 153.688C264.081 154.604 263.488 155.802 263.488 157.281C263.488 158.677 264.04 159.729 265.144 160.438C266.248 161.146 268.238 161.823 271.113 162.469C274.008 163.115 276.352 163.885 278.144 164.781C279.935 165.677 281.258 166.76 282.113 168.031C282.988 169.281 283.425 170.812 283.425 172.625C283.425 175.646 282.217 178.073 279.8 179.906C277.383 181.719 274.248 182.625 270.394 182.625C267.685 182.625 265.29 182.146 263.206 181.188C261.123 180.229 259.488 178.896 258.3 177.188C257.133 175.458 256.55 173.594 256.55 171.594H262.331C262.435 173.531 263.206 175.073 264.644 176.219C266.102 177.344 268.019 177.906 270.394 177.906C272.581 177.906 274.331 177.469 275.644 176.594C276.977 175.698 277.644 174.51 277.644 173.031ZM303.637 182H297.856V148.188H303.637V182ZM297.387 139.219C297.387 138.281 297.669 137.49 298.231 136.844C298.815 136.198 299.669 135.875 300.794 135.875C301.919 135.875 302.773 136.198 303.356 136.844C303.94 137.49 304.231 138.281 304.231 139.219C304.231 140.156 303.94 140.938 303.356 141.562C302.773 142.188 301.919 142.5 300.794 142.5C299.669 142.5 298.815 142.188 298.231 141.562C297.669 140.938 297.387 140.156 297.387 139.219ZM327.162 140V148.188H333.475V152.656H327.162V173.625C327.162 174.979 327.444 176 328.006 176.688C328.569 177.354 329.527 177.688 330.881 177.688C331.548 177.688 332.465 177.562 333.631 177.312V182C332.11 182.417 330.631 182.625 329.194 182.625C326.61 182.625 324.662 181.844 323.35 180.281C322.037 178.719 321.381 176.5 321.381 173.625V152.656H315.225V148.188H321.381V140H327.162ZM352.438 152.281C355 149.135 358.333 147.562 362.438 147.562C369.583 147.562 373.188 151.594 373.25 159.656V182H367.469V159.625C367.448 157.188 366.885 155.385 365.781 154.219C364.698 153.052 363 152.469 360.688 152.469C358.812 152.469 357.167 152.969 355.75 153.969C354.333 154.969 353.229 156.281 352.438 157.906V182H346.656V134H352.438V152.281ZM402.338 182.625C397.754 182.625 394.025 181.125 391.15 178.125C388.275 175.104 386.838 171.073 386.838 166.031V164.969C386.838 161.615 387.473 158.625 388.744 156C390.035 153.354 391.827 151.292 394.119 149.812C396.431 148.312 398.931 147.562 401.619 147.562C406.015 147.562 409.431 149.01 411.869 151.906C414.306 154.802 415.525 158.948 415.525 164.344V166.75H392.619C392.702 170.083 393.671 172.781 395.525 174.844C397.4 176.885 399.775 177.906 402.65 177.906C404.692 177.906 406.421 177.49 407.838 176.656C409.254 175.823 410.494 174.719 411.556 173.344L415.088 176.094C412.254 180.448 408.004 182.625 402.338 182.625ZM401.619 152.312C399.285 152.312 397.327 153.167 395.744 154.875C394.16 156.562 393.181 158.938 392.806 162H409.744V161.562C409.577 158.625 408.785 156.354 407.369 154.75C405.952 153.125 404.035 152.312 401.619 152.312ZM404.431 134H411.431L403.056 143.188H398.4L404.431 134ZM444.987 153.375C444.112 153.229 443.165 153.156 442.144 153.156C438.352 153.156 435.779 154.771 434.425 158V182H428.644V148.188H434.269L434.362 152.094C436.258 149.073 438.946 147.562 442.425 147.562C443.55 147.562 444.404 147.708 444.987 148V153.375ZM476.356 182C476.023 181.333 475.752 180.146 475.544 178.438C472.856 181.229 469.648 182.625 465.919 182.625C462.585 182.625 459.846 181.688 457.7 179.812C455.575 177.917 454.513 175.521 454.513 172.625C454.513 169.104 455.846 166.375 458.513 164.438C461.2 162.479 464.971 161.5 469.825 161.5H475.45V158.844C475.45 156.823 474.846 155.219 473.638 154.031C472.429 152.823 470.648 152.219 468.294 152.219C466.231 152.219 464.502 152.74 463.106 153.781C461.71 154.823 461.013 156.083 461.013 157.562H455.2C455.2 155.875 455.794 154.25 456.981 152.688C458.19 151.104 459.815 149.854 461.856 148.938C463.919 148.021 466.179 147.562 468.638 147.562C472.533 147.562 475.585 148.542 477.794 150.5C480.002 152.438 481.148 155.115 481.231 158.531V174.094C481.231 177.198 481.627 179.667 482.419 181.5V182H476.356ZM466.763 177.594C468.575 177.594 470.294 177.125 471.919 176.188C473.544 175.25 474.721 174.031 475.45 172.531V165.594H470.919C463.835 165.594 460.294 167.667 460.294 171.812C460.294 173.625 460.898 175.042 462.106 176.062C463.315 177.083 464.867 177.594 466.763 177.594ZM525.256 165.469C525.256 170.615 524.079 174.76 521.725 177.906C519.371 181.052 516.183 182.625 512.162 182.625C508.058 182.625 504.829 181.323 502.475 178.719V195H496.694V148.188H501.975L502.256 151.938C504.61 149.021 507.881 147.562 512.069 147.562C516.131 147.562 519.34 149.094 521.694 152.156C524.069 155.219 525.256 159.479 525.256 164.938V165.469ZM519.475 164.812C519.475 161 518.662 157.99 517.037 155.781C515.412 153.573 513.183 152.469 510.35 152.469C506.85 152.469 504.225 154.021 502.475 157.125V173.281C504.204 176.365 506.85 177.906 510.412 177.906C513.183 177.906 515.381 176.812 517.006 174.625C518.652 172.417 519.475 169.146 519.475 164.812ZM545.312 182H539.531V148.188H545.312V182ZM539.062 139.219C539.062 138.281 539.344 137.49 539.906 136.844C540.49 136.198 541.344 135.875 542.469 135.875C543.594 135.875 544.448 136.198 545.031 136.844C545.615 137.49 545.906 138.281 545.906 139.219C545.906 140.156 545.615 140.938 545.031 141.562C544.448 142.188 543.594 142.5 542.469 142.5C541.344 142.5 540.49 142.188 539.906 141.562C539.344 140.938 539.062 140.156 539.062 139.219ZM575.025 182.625C570.442 182.625 566.713 181.125 563.838 178.125C560.963 175.104 559.525 171.073 559.525 166.031V164.969C559.525 161.615 560.16 158.625 561.431 156C562.723 153.354 564.515 151.292 566.806 149.812C569.119 148.312 571.619 147.562 574.306 147.562C578.702 147.562 582.119 149.01 584.556 151.906C586.994 154.802 588.213 158.948 588.213 164.344V166.75H565.306C565.39 170.083 566.358 172.781 568.213 174.844C570.088 176.885 572.463 177.906 575.338 177.906C577.379 177.906 579.108 177.49 580.525 176.656C581.942 175.823 583.181 174.719 584.244 173.344L587.775 176.094C584.942 180.448 580.692 182.625 575.025 182.625ZM574.306 152.312C571.973 152.312 570.015 153.167 568.431 154.875C566.848 156.562 565.869 158.938 565.494 162H582.431V161.562C582.265 158.625 581.473 156.354 580.056 154.75C578.64 153.125 576.723 152.312 574.306 152.312ZM236.819 253.031C236.819 251.469 236.225 250.26 235.038 249.406C233.871 248.531 231.819 247.781 228.881 247.156C225.965 246.531 223.642 245.781 221.913 244.906C220.204 244.031 218.933 242.99 218.1 241.781C217.288 240.573 216.881 239.135 216.881 237.469C216.881 234.698 218.048 232.354 220.381 230.438C222.735 228.521 225.735 227.562 229.381 227.562C233.215 227.562 236.319 228.552 238.694 230.531C241.09 232.51 242.288 235.042 242.288 238.125H236.475C236.475 236.542 235.798 235.177 234.444 234.031C233.11 232.885 231.423 232.312 229.381 232.312C227.277 232.312 225.631 232.771 224.444 233.688C223.256 234.604 222.663 235.802 222.663 237.281C222.663 238.677 223.215 239.729 224.319 240.438C225.423 241.146 227.413 241.823 230.288 242.469C233.183 243.115 235.527 243.885 237.319 244.781C239.11 245.677 240.433 246.76 241.288 248.031C242.163 249.281 242.6 250.812 242.6 252.625C242.6 255.646 241.392 258.073 238.975 259.906C236.558 261.719 233.423 262.625 229.569 262.625C226.86 262.625 224.465 262.146 222.381 261.188C220.298 260.229 218.663 258.896 217.475 257.188C216.308 255.458 215.725 253.594 215.725 251.594H221.506C221.61 253.531 222.381 255.073 223.819 256.219C225.277 257.344 227.194 257.906 229.569 257.906C231.756 257.906 233.506 257.469 234.819 256.594C236.152 255.698 236.819 254.51 236.819 253.031ZM285.094 245.469C285.094 250.615 283.917 254.76 281.562 257.906C279.208 261.052 276.021 262.625 272 262.625C267.896 262.625 264.667 261.323 262.312 258.719V275H256.531V228.188H261.812L262.094 231.938C264.448 229.021 267.719 227.562 271.906 227.562C275.969 227.562 279.177 229.094 281.531 232.156C283.906 235.219 285.094 239.479 285.094 244.938V245.469ZM279.312 244.812C279.312 241 278.5 237.99 276.875 235.781C275.25 233.573 273.021 232.469 270.188 232.469C266.688 232.469 264.062 234.021 262.312 237.125V253.281C264.042 256.365 266.688 257.906 270.25 257.906C273.021 257.906 275.219 256.812 276.844 254.625C278.49 252.417 279.312 249.146 279.312 244.812ZM297.338 244.781C297.338 241.469 297.983 238.49 299.275 235.844C300.588 233.198 302.4 231.156 304.713 229.719C307.046 228.281 309.702 227.562 312.681 227.562C317.285 227.562 321.004 229.156 323.838 232.344C326.692 235.531 328.119 239.771 328.119 245.062V245.469C328.119 248.76 327.483 251.719 326.213 254.344C324.963 256.948 323.16 258.979 320.806 260.438C318.473 261.896 315.785 262.625 312.744 262.625C308.16 262.625 304.442 261.031 301.588 257.844C298.754 254.656 297.338 250.438 297.338 245.188V244.781ZM303.15 245.469C303.15 249.219 304.015 252.229 305.744 254.5C307.494 256.771 309.827 257.906 312.744 257.906C315.681 257.906 318.015 256.76 319.744 254.469C321.473 252.156 322.338 248.927 322.338 244.781C322.338 241.073 321.452 238.073 319.681 235.781C317.931 233.469 315.598 232.312 312.681 232.312C309.827 232.312 307.525 233.448 305.775 235.719C304.025 237.99 303.15 241.24 303.15 245.469ZM358.112 233.375C357.237 233.229 356.29 233.156 355.269 233.156C351.477 233.156 348.904 234.771 347.55 238V262H341.769V228.188H347.394L347.487 232.094C349.383 229.073 352.071 227.562 355.55 227.562C356.675 227.562 357.529 227.708 358.112 228V233.375ZM379.263 220V228.188H385.575V232.656H379.263V253.625C379.263 254.979 379.544 256 380.106 256.688C380.669 257.354 381.627 257.688 382.981 257.688C383.648 257.688 384.565 257.562 385.731 257.312V262C384.21 262.417 382.731 262.625 381.294 262.625C378.71 262.625 376.763 261.844 375.45 260.281C374.138 258.719 373.481 256.5 373.481 253.625V232.656H367.325V228.188H373.481V220H379.263ZM405.038 262H399.256V228.188H405.038V262ZM398.788 219.219C398.788 218.281 399.069 217.49 399.631 216.844C400.215 216.198 401.069 215.875 402.194 215.875C403.319 215.875 404.173 216.198 404.756 216.844C405.34 217.49 405.631 218.281 405.631 219.219C405.631 220.156 405.34 220.938 404.756 221.562C404.173 222.188 403.319 222.5 402.194 222.5C401.069 222.5 400.215 222.188 399.631 221.562C399.069 220.938 398.788 220.156 398.788 219.219ZM431.875 254.156L440.25 228.188H446.156L434.031 262H429.625L417.375 228.188H423.281L431.875 254.156ZM471.713 262.625C467.129 262.625 463.4 261.125 460.525 258.125C457.65 255.104 456.213 251.073 456.213 246.031V244.969C456.213 241.615 456.848 238.625 458.119 236C459.41 233.354 461.202 231.292 463.494 229.812C465.806 228.312 468.306 227.562 470.994 227.562C475.39 227.562 478.806 229.01 481.244 231.906C483.681 234.802 484.9 238.948 484.9 244.344V246.75H461.994C462.077 250.083 463.046 252.781 464.9 254.844C466.775 256.885 469.15 257.906 472.025 257.906C474.067 257.906 475.796 257.49 477.213 256.656C478.629 255.823 479.869 254.719 480.931 253.344L484.463 256.094C481.629 260.448 477.379 262.625 471.713 262.625ZM470.994 232.312C468.66 232.312 466.702 233.167 465.119 234.875C463.535 236.562 462.556 238.938 462.181 242H479.119V241.562C478.952 238.625 478.16 236.354 476.744 234.75C475.327 233.125 473.41 232.312 470.994 232.312Z" fill="white"/>
<g clip-path="url(#clip0)">
<path d="M427.656 445.125C428.95 445.125 430 444.076 430 442.782V438.249C430 433.667 426.501 429.939 422.201 429.939H418.408V425.136C418.408 421.776 415.674 419.042 412.314 419.042H393.448C390.088 419.042 387.354 421.776 387.354 425.136V437.643C370.501 435.677 349.523 435.674 332.642 437.643V425.136C332.642 421.776 329.908 419.042 326.548 419.042H325.058C337.906 411.218 352.275 400.609 363.478 390.276L370.835 400.39C372.815 403.111 376.636 403.706 379.348 401.733L394.605 390.636C394.605 390.636 394.605 390.636 394.605 390.636C397.322 388.66 397.925 384.841 395.948 382.123L393.123 378.239L396.191 376.008C399.669 373.478 400.305 368.406 397.61 364.7L384.888 347.21C382.192 343.505 377.171 342.548 373.693 345.078L370.625 347.309L367.801 343.426C365.824 340.708 362.005 340.105 359.287 342.082L344.031 353.178C341.314 355.155 340.711 358.974 342.687 361.692L350.044 371.805C335.255 380.131 318.292 392.466 305.799 403.988L300.387 396.549C297.34 392.359 291.444 391.428 287.254 394.476L277.346 401.683C273.154 404.732 272.225 410.624 275.274 414.816L276.153 416.025L273.086 418.256C269.539 420.836 269.027 425.934 271.667 429.564L284.389 447.054C285.781 448.968 287.821 450.185 289.996 450.508V459.876C289.996 464.459 293.495 468.187 297.795 468.187H301.588V472.989C301.588 476.349 304.323 479.083 307.683 479.083H326.548C329.908 479.083 332.642 476.349 332.642 472.989V460.484C339.303 461.259 346.791 461.746 354.482 461.9C354.498 461.901 354.514 461.901 354.53 461.901C355.802 461.901 356.847 460.882 356.873 459.604C356.899 458.31 355.871 457.24 354.576 457.214C346.822 457.058 339.288 456.559 332.642 455.764V442.361C349.222 440.374 370.43 440.333 387.354 442.361V455.764C380.709 456.559 373.175 457.058 365.42 457.214C364.126 457.24 363.097 458.31 363.123 459.604C363.149 460.882 364.193 461.901 365.466 461.901C365.482 461.901 365.498 461.901 365.514 461.9C373.206 461.746 380.693 461.259 387.354 460.484V472.989C387.354 476.349 390.088 479.083 393.448 479.083H412.314C415.674 479.083 418.408 476.349 418.408 472.989V468.187H422.201C426.501 468.187 430 464.459 430 459.876V453.72C430 452.425 428.95 451.376 427.656 451.376C426.362 451.376 425.312 452.425 425.312 453.72V459.876C425.312 461.84 423.888 463.499 422.201 463.499H418.408V434.627H422.201C423.887 434.627 425.312 436.286 425.312 438.249V442.782C425.312 444.076 426.362 445.125 427.656 445.125ZM376.45 348.868C377.814 347.877 379.942 348.38 381.097 349.968L393.819 367.458C394.974 369.046 394.797 371.226 393.433 372.217L390.366 374.448C388.467 371.837 375.313 353.753 373.383 351.099L376.45 348.868ZM346.478 358.935C346.03 358.318 346.172 357.418 346.788 356.97L362.045 345.873C362.664 345.423 363.562 345.568 364.009 346.183C364.958 347.488 386.821 377.545 387.953 379.102C387.954 379.102 387.954 379.103 387.955 379.104L392.157 384.881C392.606 385.497 392.464 386.397 391.847 386.845L376.59 397.942C375.971 398.392 375.08 398.257 374.626 397.632C373.701 396.361 347.594 360.469 346.478 358.935ZM352.819 375.622L360.703 386.46C348.509 397.778 331.405 410.289 316.457 418.641L308.574 407.804C320.736 396.516 337.85 383.985 352.819 375.622ZM289.996 438.249V445.689C289.299 445.429 288.655 444.949 288.18 444.296L275.459 426.806C274.251 425.146 274.521 423.009 275.844 422.047L278.911 419.816C279.283 420.327 282.194 424.33 290.401 435.613C290.122 436.5 289.996 437.417 289.996 438.249ZM301.588 463.499H297.795C296.109 463.499 294.684 461.84 294.684 459.876C294.684 457.759 294.684 440.456 294.684 438.249C294.684 437.43 294.954 436.546 295.49 435.851C296.127 435.023 296.989 434.626 297.795 434.626H301.588V463.499H301.588ZM301.588 425.136V429.939H297.795C297.605 429.939 297.417 429.948 297.229 429.963C297.196 429.965 297.163 429.968 297.13 429.971C295.679 430.102 294.34 430.658 293.224 431.522L279.065 412.058C277.536 409.956 278.002 407.002 280.104 405.474L290.012 398.267C292.104 396.744 295.073 397.212 296.596 399.306C298.303 401.652 309.125 416.531 310.951 419.042H307.682C304.323 419.042 301.588 421.776 301.588 425.136ZM327.955 472.989C327.955 473.751 327.311 474.395 326.548 474.395H307.683C306.921 474.395 306.277 473.751 306.277 472.989C306.277 470.783 306.277 426.575 306.277 425.136C306.277 424.374 306.921 423.73 307.683 423.73C312.453 423.73 315.086 423.73 316.457 423.73C317.445 423.73 317.778 423.73 317.78 423.73C319.151 423.73 321.783 423.73 326.548 423.73C327.311 423.73 327.955 424.374 327.955 425.136C327.955 428.037 327.955 471.205 327.955 472.989ZM413.72 472.989C413.72 473.751 413.076 474.395 412.314 474.395H393.448C392.686 474.395 392.042 473.751 392.042 472.989V425.136C392.042 424.374 392.686 423.73 393.448 423.73H412.314C413.076 423.73 413.72 424.374 413.72 425.136C413.72 428.023 413.72 471.44 413.72 472.989Z" fill="white"/>
</g>
<rect width="700" height="600" fill="white" fill-opacity="0.02"/>
<defs>
<clipPath id="clip0">
<rect width="160" height="160" fill="white" transform="translate(270 330)"/>
</clipPath>
</defs>
</svg>
