<svg width="700" height="600" viewBox="0 0 700 600" fill="none" xmlns="http://www.w3.org/2000/svg">
<rect width="700" height="600" fill="#191919"/>
<path d="M237.087 141.438H222.462V182H216.494V141.438H201.9V136.5H237.087V141.438ZM255.112 152.281C257.675 149.135 261.008 147.562 265.112 147.562C272.258 147.562 275.862 151.594 275.925 159.656V182H270.144V159.625C270.123 157.188 269.56 155.385 268.456 154.219C267.373 153.052 265.675 152.469 263.362 152.469C261.487 152.469 259.842 152.969 258.425 153.969C257.008 154.969 255.904 156.281 255.112 157.906V182H249.331V134H255.112V152.281ZM305.012 182.625C300.429 182.625 296.7 181.125 293.825 178.125C290.95 175.104 289.512 171.073 289.512 166.031V164.969C289.512 161.615 290.148 158.625 291.419 156C292.71 153.354 294.502 151.292 296.794 149.812C299.106 148.312 301.606 147.562 304.294 147.562C308.69 147.562 312.106 149.01 314.544 151.906C316.981 154.802 318.2 158.948 318.2 164.344V166.75H295.294C295.377 170.083 296.346 172.781 298.2 174.844C300.075 176.885 302.45 177.906 305.325 177.906C307.367 177.906 309.096 177.49 310.512 176.656C311.929 175.823 313.169 174.719 314.231 173.344L317.762 176.094C314.929 180.448 310.679 182.625 305.012 182.625ZM304.294 152.312C301.96 152.312 300.002 153.167 298.419 154.875C296.835 156.562 295.856 158.938 295.481 162H312.419V161.562C312.252 158.625 311.46 156.354 310.044 154.75C308.627 153.125 306.71 152.312 304.294 152.312ZM307.106 134H314.106L305.731 143.188H301.075L307.106 134ZM347.662 153.375C346.787 153.229 345.84 153.156 344.819 153.156C341.027 153.156 338.454 154.771 337.1 158V182H331.319V148.188H336.944L337.037 152.094C338.933 149.073 341.621 147.562 345.1 147.562C346.225 147.562 347.079 147.708 347.662 148V153.375ZM379.031 182C378.698 181.333 378.427 180.146 378.219 178.438C375.531 181.229 372.323 182.625 368.594 182.625C365.26 182.625 362.521 181.688 360.375 179.812C358.25 177.917 357.188 175.521 357.188 172.625C357.188 169.104 358.521 166.375 361.188 164.438C363.875 162.479 367.646 161.5 372.5 161.5H378.125V158.844C378.125 156.823 377.521 155.219 376.312 154.031C375.104 152.823 373.323 152.219 370.969 152.219C368.906 152.219 367.177 152.74 365.781 153.781C364.385 154.823 363.688 156.083 363.688 157.562H357.875C357.875 155.875 358.469 154.25 359.656 152.688C360.865 151.104 362.49 149.854 364.531 148.938C366.594 148.021 368.854 147.562 371.312 147.562C375.208 147.562 378.26 148.542 380.469 150.5C382.677 152.438 383.823 155.115 383.906 158.531V174.094C383.906 177.198 384.302 179.667 385.094 181.5V182H379.031ZM369.438 177.594C371.25 177.594 372.969 177.125 374.594 176.188C376.219 175.25 377.396 174.031 378.125 172.531V165.594H373.594C366.51 165.594 362.969 167.667 362.969 171.812C362.969 173.625 363.573 175.042 364.781 176.062C365.99 177.083 367.542 177.594 369.438 177.594ZM427.931 165.469C427.931 170.615 426.754 174.76 424.4 177.906C422.046 181.052 418.858 182.625 414.837 182.625C410.733 182.625 407.504 181.323 405.15 178.719V195H399.369V148.188H404.65L404.931 151.938C407.285 149.021 410.556 147.562 414.744 147.562C418.806 147.562 422.015 149.094 424.369 152.156C426.744 155.219 427.931 159.479 427.931 164.938V165.469ZM422.15 164.812C422.15 161 421.337 157.99 419.712 155.781C418.087 153.573 415.858 152.469 413.025 152.469C409.525 152.469 406.9 154.021 405.15 157.125V173.281C406.879 176.365 409.525 177.906 413.087 177.906C415.858 177.906 418.056 176.812 419.681 174.625C421.327 172.417 422.15 169.146 422.15 164.812ZM447.987 182H442.206V148.188H447.987V182ZM441.737 139.219C441.737 138.281 442.019 137.49 442.581 136.844C443.165 136.198 444.019 135.875 445.144 135.875C446.269 135.875 447.123 136.198 447.706 136.844C448.29 137.49 448.581 138.281 448.581 139.219C448.581 140.156 448.29 140.938 447.706 141.562C447.123 142.188 446.269 142.5 445.144 142.5C444.019 142.5 443.165 142.188 442.581 141.562C442.019 140.938 441.737 140.156 441.737 139.219ZM477.7 182.625C473.117 182.625 469.387 181.125 466.512 178.125C463.637 175.104 462.2 171.073 462.2 166.031V164.969C462.2 161.615 462.835 158.625 464.106 156C465.398 153.354 467.19 151.292 469.481 149.812C471.794 148.312 474.294 147.562 476.981 147.562C481.377 147.562 484.794 149.01 487.231 151.906C489.669 154.802 490.887 158.948 490.887 164.344V166.75H467.981C468.065 170.083 469.033 172.781 470.887 174.844C472.762 176.885 475.137 177.906 478.012 177.906C480.054 177.906 481.783 177.49 483.2 176.656C484.617 175.823 485.856 174.719 486.919 173.344L490.45 176.094C487.617 180.448 483.367 182.625 477.7 182.625ZM476.981 152.312C474.648 152.312 472.69 153.167 471.106 154.875C469.523 156.562 468.544 158.938 468.169 162H485.106V161.562C484.94 158.625 484.148 156.354 482.731 154.75C481.315 153.125 479.398 152.312 476.981 152.312ZM207.131 228.188L207.288 231.938C209.767 229.021 213.11 227.562 217.319 227.562C222.048 227.562 225.267 229.375 226.975 233C228.1 231.375 229.558 230.062 231.35 229.062C233.163 228.062 235.298 227.562 237.756 227.562C245.173 227.562 248.944 231.49 249.069 239.344V262H243.288V239.688C243.288 237.271 242.735 235.469 241.631 234.281C240.527 233.073 238.673 232.469 236.069 232.469C233.923 232.469 232.142 233.115 230.725 234.406C229.308 235.677 228.485 237.396 228.256 239.562V262H222.444V239.844C222.444 234.927 220.038 232.469 215.225 232.469C211.433 232.469 208.84 234.083 207.444 237.312V262H201.663V228.188H207.131ZM285.094 262C284.76 261.333 284.49 260.146 284.281 258.438C281.594 261.229 278.385 262.625 274.656 262.625C271.323 262.625 268.583 261.688 266.438 259.812C264.312 257.917 263.25 255.521 263.25 252.625C263.25 249.104 264.583 246.375 267.25 244.438C269.938 242.479 273.708 241.5 278.562 241.5H284.188V238.844C284.188 236.823 283.583 235.219 282.375 234.031C281.167 232.823 279.385 232.219 277.031 232.219C274.969 232.219 273.24 232.74 271.844 233.781C270.448 234.823 269.75 236.083 269.75 237.562H263.938C263.938 235.875 264.531 234.25 265.719 232.688C266.927 231.104 268.552 229.854 270.594 228.938C272.656 228.021 274.917 227.562 277.375 227.562C281.271 227.562 284.323 228.542 286.531 230.5C288.74 232.438 289.885 235.115 289.969 238.531V254.094C289.969 257.198 290.365 259.667 291.156 261.5V262H285.094ZM275.5 257.594C277.312 257.594 279.031 257.125 280.656 256.188C282.281 255.25 283.458 254.031 284.188 252.531V245.594H279.656C272.573 245.594 269.031 247.667 269.031 251.812C269.031 253.625 269.635 255.042 270.844 256.062C272.052 257.083 273.604 257.594 275.5 257.594ZM310.9 228.188L311.088 232.438C313.671 229.188 317.046 227.562 321.213 227.562C328.358 227.562 331.963 231.594 332.025 239.656V262H326.244V239.625C326.223 237.188 325.66 235.385 324.556 234.219C323.473 233.052 321.775 232.469 319.463 232.469C317.588 232.469 315.942 232.969 314.525 233.969C313.108 234.969 312.004 236.281 311.213 237.906V262H305.431V228.188H310.9ZM368.019 258.656C365.769 261.302 362.467 262.625 358.112 262.625C354.508 262.625 351.758 261.583 349.862 259.5C347.987 257.396 347.04 254.292 347.019 250.188V228.188H352.8V250.031C352.8 255.156 354.883 257.719 359.05 257.719C363.467 257.719 366.404 256.073 367.862 252.781V228.188H373.644V262H368.144L368.019 258.656ZM402.888 262.625C398.304 262.625 394.575 261.125 391.7 258.125C388.825 255.104 387.388 251.073 387.388 246.031V244.969C387.388 241.615 388.023 238.625 389.294 236C390.585 233.354 392.377 231.292 394.669 229.812C396.981 228.312 399.481 227.562 402.169 227.562C406.565 227.562 409.981 229.01 412.419 231.906C414.856 234.802 416.075 238.948 416.075 244.344V246.75H393.169C393.252 250.083 394.221 252.781 396.075 254.844C397.95 256.885 400.325 257.906 403.2 257.906C405.242 257.906 406.971 257.49 408.388 256.656C409.804 255.823 411.044 254.719 412.106 253.344L415.638 256.094C412.804 260.448 408.554 262.625 402.888 262.625ZM402.169 232.312C399.835 232.312 397.877 233.167 396.294 234.875C394.71 236.562 393.731 238.938 393.356 242H410.294V241.562C410.127 238.625 409.335 236.354 407.919 234.75C406.502 233.125 404.585 232.312 402.169 232.312ZM435.475 262H429.694V214H435.475V262ZM457.438 262H451.656V214H457.438V262ZM487.15 262.625C482.567 262.625 478.837 261.125 475.962 258.125C473.087 255.104 471.65 251.073 471.65 246.031V244.969C471.65 241.615 472.285 238.625 473.556 236C474.848 233.354 476.64 231.292 478.931 229.812C481.244 228.312 483.744 227.562 486.431 227.562C490.827 227.562 494.244 229.01 496.681 231.906C499.119 234.802 500.337 238.948 500.337 244.344V246.75H477.431C477.515 250.083 478.483 252.781 480.337 254.844C482.212 256.885 484.587 257.906 487.462 257.906C489.504 257.906 491.233 257.49 492.65 256.656C494.067 255.823 495.306 254.719 496.369 253.344L499.9 256.094C497.067 260.448 492.817 262.625 487.15 262.625ZM486.431 232.312C484.098 232.312 482.14 233.167 480.556 234.875C478.973 236.562 477.994 238.938 477.619 242H494.556V241.562C494.39 238.625 493.598 236.354 492.181 234.75C490.765 233.125 488.848 232.312 486.431 232.312Z" fill="white"/>
<g clip-path="url(#clip0)">
<path d="M426.15 447.914H416.659C418.976 445.96 420.73 443.206 421.654 439.319C422.263 436.754 421.986 434.359 421.693 431.823C421.356 428.913 421.008 425.905 421.882 422.007V422.006C422.554 419.008 422.065 416.759 420.429 415.319C418.448 413.577 415.213 413.503 410.813 415.101C409.418 415.608 408.17 416.374 407.109 417.35C404.478 416.358 401.644 415.992 398.813 416.293C393.681 416.841 388.932 419.92 385.906 424.397C382.825 422.324 379.051 420.673 374.833 419.572C373.579 419.244 372.3 419.995 371.973 421.247C371.646 422.499 372.396 423.78 373.648 424.107C377.582 425.134 381.035 426.676 383.748 428.602C383.676 428.798 383.605 428.996 383.539 429.195C382.766 431.545 382.485 433.977 382.726 436.226C383.219 440.848 385.152 444.908 388.127 447.913H365.193V440.624H371.424C372.718 440.624 373.767 439.575 373.767 438.281C373.767 436.986 372.718 435.937 371.424 435.937H344.447V427.178C344.728 427.054 345.022 426.906 345.332 426.724C349.876 424.069 356.395 422.611 363.218 422.721C363.231 422.722 363.244 422.722 363.257 422.722C364.534 422.722 365.579 421.698 365.6 420.416C365.621 419.122 364.589 418.055 363.295 418.034C360.593 417.991 357.961 418.167 355.449 418.539V406.082C357.526 404.563 359.487 402.598 361.009 399.96C363.249 396.071 363.339 393.942 363.501 390.076C363.527 389.457 363.555 388.779 363.595 388.026C363.596 388.005 363.595 387.984 363.595 387.963C363.596 387.943 363.598 387.923 363.598 387.902V382.153C363.598 375.336 358.052 369.79 351.236 369.79H350.416C353.888 366.241 356.21 361.638 356.21 357.5V352.69C356.21 346.648 354.276 341.514 350.615 337.844C347.336 334.556 342.923 332.704 338.189 332.629C338.164 332.629 338.14 332.629 338.115 332.629C333.381 332.704 328.967 334.556 325.685 337.844C322.021 341.515 320.085 346.648 320.085 352.69V357.5C320.085 361.637 322.407 366.239 325.883 369.79H325.059C318.983 369.79 315.99 373.505 314.267 376.3L300.62 398.462C299.077 395.691 295.251 389.73 290.726 389.383C289.467 389.288 287.888 389.326 286.835 390.493C285.727 391.72 286.005 393.257 286.208 394.379L289.506 413.182C289.798 414.849 290.029 416.166 291.13 417.061C292.283 417.998 293.609 417.856 295.146 417.691C295.462 417.658 295.817 417.62 296.219 417.583C302.724 416.983 307.658 418.875 309.477 419.715C311.446 420.625 313.189 421.616 314.733 422.639V435.201C314.66 435.201 314.592 435.202 314.518 435.202H295.659C292.902 435.202 292.828 435.045 292.472 434.295C292.013 433.323 287.825 424.786 282.117 424.348C280.854 424.251 279.27 424.29 278.217 425.46C277.109 426.692 277.382 428.176 277.601 429.368L280.848 447.914H273.841C271.723 447.914 270 449.637 270 451.755V470.127C270 472.25 271.723 473.977 273.841 473.977H279.682V478.33C279.682 483.315 283.738 487.371 288.723 487.371H411.268C416.253 487.371 420.309 483.315 420.309 478.33V473.977H426.15C428.273 473.977 430 472.25 430 470.127V451.755C430 449.637 428.273 447.914 426.15 447.914V447.914ZM409.704 433.979C407.818 429.882 407.442 426.04 408.643 423.162C409.378 421.401 410.682 420.137 412.414 419.507C414.277 418.831 415.535 418.641 416.318 418.641C416.912 418.641 417.232 418.751 417.333 418.839C417.413 418.91 417.645 419.481 417.308 420.982V420.982C416.26 425.655 416.691 429.374 417.036 432.362C417.292 434.568 417.512 436.473 417.093 438.235C415.763 443.828 412.524 446.523 404.887 447.484C404.907 447.467 404.927 447.45 404.947 447.433C411.429 441.837 411.111 437.026 409.704 433.979ZM387.387 435.728C387.216 434.134 387.425 432.382 387.989 430.668C389.45 426.278 393.517 421.573 399.31 420.954C401.004 420.773 402.697 420.921 404.312 421.369C402.606 425.468 403.008 430.642 405.447 435.942C407.741 440.909 399.01 446.192 396.241 447.713C391.346 445.857 387.986 441.348 387.387 435.728ZM360.505 440.625V447.914H340.106C338.255 447.737 336.802 446.174 336.802 444.278C336.802 442.263 338.441 440.625 340.455 440.625H360.505ZM350.761 419.503C347.888 420.276 345.254 421.34 342.966 422.677C342.921 422.703 342.879 422.728 342.84 422.75C342.579 422.442 342.242 422.008 341.929 421.608C341.548 421.119 341.074 420.511 340.504 419.812C339.289 418.332 337.552 416.553 335.759 414.923L348.668 409.714C349.342 409.442 350.045 409.14 350.761 408.807V419.503H350.761ZM330.406 412.028C329.692 412.314 328.904 412.302 328.187 411.995C327.471 411.688 326.919 411.126 326.631 410.405C326.344 409.691 326.354 408.903 326.66 408.186C326.968 407.467 327.532 406.913 328.25 406.627C328.271 406.619 328.291 406.61 328.312 406.601L340.153 401.471L342.936 406.973L330.406 412.028ZM338.152 337.317C343.983 337.425 350.204 341.407 351.34 349.861C346.219 348.885 335.773 346.794 334.559 346.479C334.558 346.479 334.558 346.479 334.557 346.478C333.877 346.303 333.248 346.226 332.664 346.226C330.448 346.226 328.871 347.323 327.549 348.242C326.739 348.806 325.954 349.352 324.97 349.752C326.146 341.373 332.342 337.425 338.152 337.317V337.317ZM324.772 357.5V354.707C327.283 354.133 328.944 352.982 330.226 352.09C331.764 351.021 332.257 350.725 333.384 351.017V351.016C334.225 351.234 346.381 353.721 351.523 354.667V357.5C351.523 361.528 347.677 367.432 342.378 369.955C342.304 369.984 342.231 370.017 342.161 370.053C341.871 370.185 341.577 370.31 341.279 370.421C340.061 370.867 339.096 371.066 338.152 371.066C337.214 371.066 336.218 370.861 335.027 370.424C334.742 370.318 334.459 370.198 334.177 370.07C334.102 370.029 334.024 369.994 333.945 369.962C329.021 367.598 324.772 361.944 324.772 357.5V357.5ZM343.559 374.558V375.261C343.559 378.673 341.134 381.448 338.152 381.448C335.166 381.448 332.736 378.673 332.736 375.261V374.557C332.958 374.65 333.18 374.739 333.404 374.822C335.138 375.458 336.647 375.753 338.152 375.753C339.651 375.753 341.157 375.458 342.902 374.818C343.122 374.737 343.341 374.649 343.559 374.558V374.558ZM318.258 378.759C320.132 375.718 322.103 374.478 325.059 374.478H328.048V375.262C328.048 381.258 332.581 386.136 338.152 386.136C343.718 386.136 348.247 381.258 348.247 375.262V374.478H351.235C355.467 374.478 358.91 377.922 358.91 382.154V387.843C358.872 388.589 358.843 389.263 358.817 389.88C358.661 393.603 358.614 394.727 356.947 397.619C355.051 400.907 352.148 403.191 347.296 405.208L344.439 399.561C345.531 398.99 346.308 398.387 347.404 397.236C347.521 397.114 347.623 396.98 347.711 396.836L350.537 392.185C351.209 391.079 350.857 389.637 349.751 388.965C348.645 388.292 347.203 388.645 346.531 389.751L343.84 394.18C342.945 395.098 342.538 395.324 341.188 395.913L326.477 402.288C325.158 402.822 324.046 403.702 323.223 404.826C321.13 403.673 318.873 402.827 316.543 402.196L321.316 394.437C321.994 393.335 321.65 391.891 320.547 391.213C319.445 390.535 318.001 390.879 317.323 391.981L311.673 401.166C309.409 400.803 307.137 400.573 304.934 400.398L318.258 378.759ZM302.871 413.055C300.765 412.778 298.381 412.676 295.791 412.915C295.363 412.954 294.381 413.059 294.25 413.073C294.202 412.821 290.938 394.209 290.938 394.209C292.79 394.996 295.579 398.642 297.11 401.855C297.98 403.697 298.905 404.478 300.143 404.773C301.602 404.961 302.664 404.93 303.145 404.963C303.765 405.008 304.394 405.057 305.027 405.109L302.871 413.055ZM319.421 426.367C323.098 429.889 324.683 433.164 324.882 434.398C324.174 434.76 322.343 435 319.421 435.118V426.367ZM299.757 439.889H314.518C323.616 439.889 326.747 439.352 328.478 437.495C329.041 436.89 329.69 435.832 329.577 434.233C329.281 429.907 323.313 420.949 311.444 415.46C310.62 415.079 309.259 414.518 307.47 414.007L309.745 405.62C314.038 406.22 318.284 407.268 321.735 409.383C321.741 410.321 321.922 411.258 322.281 412.15C323.031 414.028 324.473 415.503 326.341 416.304C327.306 416.717 328.322 416.924 329.338 416.924C329.814 416.924 330.289 416.879 330.759 416.788C332.952 418.594 335.405 420.987 336.877 422.781C337.409 423.434 337.847 423.995 338.233 424.491C338.744 425.146 339.236 425.775 339.759 426.297V435.969C335.485 436.324 332.115 439.914 332.115 444.278C332.115 445.581 332.415 446.814 332.95 447.914H299.757V439.889ZM288.235 436.3C289.814 439.628 292.542 439.87 295.069 439.888V447.914H285.607L282.326 429.161C284.191 429.893 286.815 433.291 288.235 436.3V436.3ZM425.312 469.29H355.594C354.3 469.29 353.25 470.339 353.25 471.633C353.25 472.928 354.3 473.977 355.594 473.977H415.622V478.331C415.622 480.731 413.669 482.684 411.268 482.684H288.723C286.322 482.684 284.37 480.731 284.37 478.331V473.977H345.283C346.577 473.977 347.627 472.928 347.627 471.633C347.627 470.339 346.577 469.29 345.283 469.29H274.688V452.602H283.628C283.631 452.602 283.633 452.602 283.635 452.602C283.637 452.602 425.312 452.602 425.312 452.602V469.29Z" fill="white"/>
</g>
<rect width="700" height="600" fill="white" fill-opacity="0.02"/>
<defs>
<clipPath id="clip0">
<rect width="160" height="160" fill="white" transform="translate(270 330)"/>
</clipPath>
</defs>
</svg>
