<svg width="700" height="600" viewBox="0 0 700 600" fill="none" xmlns="http://www.w3.org/2000/svg">
<rect width="700" height="600" fill="#191919"/>
<path d="M203.762 200.719C203.762 205.177 203.012 209.073 201.512 212.406C200.012 215.719 197.887 218.25 195.137 220C192.387 221.75 189.179 222.625 185.512 222.625C181.929 222.625 178.752 221.75 175.981 220C173.21 218.229 171.054 215.719 169.512 212.469C167.992 209.198 167.21 205.417 167.169 201.125V197.844C167.169 193.469 167.929 189.604 169.45 186.25C170.971 182.896 173.117 180.333 175.887 178.562C178.679 176.771 181.867 175.875 185.45 175.875C189.096 175.875 192.304 176.76 195.075 178.531C197.867 180.281 200.012 182.833 201.512 186.188C203.012 189.521 203.762 193.406 203.762 197.844V200.719ZM197.794 197.781C197.794 192.385 196.71 188.25 194.544 185.375C192.377 182.479 189.346 181.031 185.45 181.031C181.658 181.031 178.669 182.479 176.481 185.375C174.315 188.25 173.2 192.25 173.137 197.375V200.719C173.137 205.948 174.231 210.062 176.419 213.062C178.627 216.042 181.658 217.531 185.512 217.531C189.387 217.531 192.387 216.125 194.512 213.312C196.637 210.479 197.731 206.427 197.794 201.156V197.781ZM234.6 193.375C233.725 193.229 232.777 193.156 231.756 193.156C227.965 193.156 225.392 194.771 224.038 198V222H218.256V188.188H223.881L223.975 192.094C225.871 189.073 228.558 187.562 232.038 187.562C233.163 187.562 234.017 187.708 234.6 188V193.375ZM255.75 180V188.188H262.062V192.656H255.75V213.625C255.75 214.979 256.031 216 256.594 216.688C257.156 217.354 258.115 217.688 259.469 217.688C260.135 217.688 261.052 217.562 262.219 217.312V222C260.698 222.417 259.219 222.625 257.781 222.625C255.198 222.625 253.25 221.844 251.938 220.281C250.625 218.719 249.969 216.5 249.969 213.625V192.656H243.812V188.188H249.969V180H255.75ZM281.025 192.281C283.587 189.135 286.921 187.562 291.025 187.562C298.171 187.562 301.775 191.594 301.837 199.656V222H296.056V199.625C296.035 197.188 295.473 195.385 294.369 194.219C293.285 193.052 291.587 192.469 289.275 192.469C287.4 192.469 285.754 192.969 284.337 193.969C282.921 194.969 281.817 196.281 281.025 197.906V222H275.244V174H281.025V192.281ZM315.362 204.781C315.362 201.469 316.008 198.49 317.3 195.844C318.612 193.198 320.425 191.156 322.737 189.719C325.071 188.281 327.727 187.562 330.706 187.562C335.31 187.562 339.029 189.156 341.862 192.344C344.717 195.531 346.144 199.771 346.144 205.062V205.469C346.144 208.76 345.508 211.719 344.237 214.344C342.987 216.948 341.185 218.979 338.831 220.438C336.498 221.896 333.81 222.625 330.769 222.625C326.185 222.625 322.467 221.031 319.612 217.844C316.779 214.656 315.362 210.438 315.362 205.188V204.781ZM321.175 205.469C321.175 209.219 322.04 212.229 323.769 214.5C325.519 216.771 327.852 217.906 330.769 217.906C333.706 217.906 336.04 216.76 337.769 214.469C339.498 212.156 340.362 208.927 340.362 204.781C340.362 201.073 339.477 198.073 337.706 195.781C335.956 193.469 333.623 192.312 330.706 192.312C327.852 192.312 325.55 193.448 323.8 195.719C322.05 197.99 321.175 201.24 321.175 205.469ZM388.356 205.469C388.356 210.615 387.179 214.76 384.825 217.906C382.471 221.052 379.283 222.625 375.263 222.625C371.158 222.625 367.929 221.323 365.575 218.719V235H359.794V188.188H365.075L365.356 191.938C367.71 189.021 370.981 187.562 375.169 187.562C379.231 187.562 382.44 189.094 384.794 192.156C387.169 195.219 388.356 199.479 388.356 204.938V205.469ZM382.575 204.812C382.575 201 381.763 197.99 380.138 195.781C378.513 193.573 376.283 192.469 373.45 192.469C369.95 192.469 367.325 194.021 365.575 197.125V213.281C367.304 216.365 369.95 217.906 373.513 217.906C376.283 217.906 378.481 216.812 380.106 214.625C381.752 212.417 382.575 209.146 382.575 204.812ZM416.162 222.625C411.579 222.625 407.85 221.125 404.975 218.125C402.1 215.104 400.662 211.073 400.662 206.031V204.969C400.662 201.615 401.298 198.625 402.569 196C403.86 193.354 405.652 191.292 407.944 189.812C410.256 188.312 412.756 187.562 415.444 187.562C419.84 187.562 423.256 189.01 425.694 191.906C428.131 194.802 429.35 198.948 429.35 204.344V206.75H406.444C406.527 210.083 407.496 212.781 409.35 214.844C411.225 216.885 413.6 217.906 416.475 217.906C418.517 217.906 420.246 217.49 421.662 216.656C423.079 215.823 424.319 214.719 425.381 213.344L428.912 216.094C426.079 220.448 421.829 222.625 416.162 222.625ZM415.444 192.312C413.11 192.312 411.152 193.167 409.569 194.875C407.985 196.562 407.006 198.938 406.631 202H423.569V201.562C423.402 198.625 422.61 196.354 421.194 194.75C419.777 193.125 417.86 192.312 415.444 192.312ZM418.256 174H425.256L416.881 183.188H412.225L418.256 174ZM441.062 204.812C441.062 199.625 442.292 195.458 444.75 192.312C447.208 189.146 450.427 187.562 454.406 187.562C458.365 187.562 461.5 188.917 463.812 191.625V174H469.594V222H464.281L464 218.375C461.688 221.208 458.469 222.625 454.344 222.625C450.427 222.625 447.229 221.021 444.75 217.812C442.292 214.604 441.062 210.417 441.062 205.25V204.812ZM446.844 205.469C446.844 209.302 447.635 212.302 449.219 214.469C450.802 216.635 452.99 217.719 455.781 217.719C459.448 217.719 462.125 216.073 463.812 212.781V197.25C462.083 194.062 459.427 192.469 455.844 192.469C453.01 192.469 450.802 193.562 449.219 195.75C447.635 197.938 446.844 201.177 446.844 205.469ZM491.275 222H485.494V188.188H491.275V222ZM485.025 179.219C485.025 178.281 485.306 177.49 485.869 176.844C486.452 176.198 487.306 175.875 488.431 175.875C489.556 175.875 490.41 176.198 490.994 176.844C491.577 177.49 491.869 178.281 491.869 179.219C491.869 180.156 491.577 180.938 490.994 181.562C490.41 182.188 489.556 182.5 488.431 182.5C487.306 182.5 486.452 182.188 485.869 181.562C485.306 180.938 485.025 180.156 485.025 179.219ZM520.987 222.625C516.404 222.625 512.675 221.125 509.8 218.125C506.925 215.104 505.487 211.073 505.487 206.031V204.969C505.487 201.615 506.123 198.625 507.394 196C508.685 193.354 510.477 191.292 512.769 189.812C515.081 188.312 517.581 187.562 520.269 187.562C524.665 187.562 528.081 189.01 530.519 191.906C532.956 194.802 534.175 198.948 534.175 204.344V206.75H511.269C511.352 210.083 512.321 212.781 514.175 214.844C516.05 216.885 518.425 217.906 521.3 217.906C523.342 217.906 525.071 217.49 526.487 216.656C527.904 215.823 529.144 214.719 530.206 213.344L533.737 216.094C530.904 220.448 526.654 222.625 520.987 222.625ZM520.269 192.312C517.935 192.312 515.977 193.167 514.394 194.875C512.81 196.562 511.831 198.938 511.456 202H528.394V201.562C528.227 198.625 527.435 196.354 526.019 194.75C524.602 193.125 522.685 192.312 520.269 192.312Z" fill="white"/>
<g clip-path="url(#clip0)">
<path d="M390 422.308C396.787 422.308 402.308 416.787 402.308 410C402.308 403.213 396.787 397.692 390 397.692H383.846V371.025H390C396.787 371.025 402.308 365.504 402.308 358.718C402.308 351.931 396.787 346.41 390 346.41H383.846V333.077C383.846 331.378 382.469 330 380.769 330H319.231C317.531 330 316.154 331.378 316.154 333.077V346.41H310C303.213 346.41 297.692 351.931 297.692 358.718C297.692 365.505 303.213 371.026 310 371.026H316.154V397.692H310C303.213 397.692 297.692 403.214 297.692 410C297.692 416.787 303.213 422.308 310 422.308H316.154V448.975H310C303.213 448.975 297.692 454.496 297.692 461.283C297.692 468.069 303.213 473.59 310 473.59H316.154V486.924C316.154 488.623 317.531 490.001 319.231 490.001H380.769C382.468 490.001 383.846 488.623 383.846 486.924V473.59H390C396.787 473.59 402.308 468.069 402.308 461.283C402.308 454.496 396.787 448.974 390 448.974H383.846V422.308H390V422.308ZM310 364.872C306.607 364.872 303.846 362.111 303.846 358.718C303.846 355.325 306.607 352.564 310 352.564H319.231C320.93 352.564 322.307 351.186 322.307 349.487V336.154H377.692V346.41H368.462C366.762 346.41 365.385 347.788 365.385 349.487C365.385 351.186 366.762 352.564 368.462 352.564H380.769H390C393.393 352.564 396.154 355.325 396.154 358.718C396.154 362.111 393.393 364.871 390 364.871H380.769C379.07 364.871 377.692 366.249 377.692 367.948V381.281H322.308V367.948C322.308 366.249 320.93 364.871 319.231 364.871H310V364.872ZM390 455.128C393.393 455.128 396.154 457.889 396.154 461.282C396.154 464.675 393.393 467.436 390 467.436H380.769C379.07 467.436 377.692 468.813 377.692 470.513V483.846H322.308V470.513C322.308 468.813 320.93 467.436 319.231 467.436H310C306.607 467.436 303.846 464.675 303.846 461.282C303.846 457.889 306.607 455.128 310 455.128H319.231C320.93 455.128 322.307 453.75 322.307 452.051V438.718H377.692V452.051C377.692 453.75 379.07 455.128 380.769 455.128H390ZM380.769 416.154C379.07 416.154 377.692 417.532 377.692 419.231V432.564H322.308V419.231C322.308 417.532 320.93 416.154 319.231 416.154H310C306.607 416.154 303.846 413.393 303.846 410C303.846 406.607 306.607 403.846 310 403.846H319.231C320.93 403.846 322.307 402.468 322.307 400.769V387.436H377.692V400.769C377.692 402.468 379.07 403.846 380.769 403.846H390C393.393 403.846 396.154 406.607 396.154 410C396.154 413.393 393.393 416.154 390 416.154H380.769Z" fill="#F2E2CD"/>
<path d="M343.846 364.872H340.769C337.376 364.872 334.615 362.111 334.615 358.718C334.615 355.325 337.376 352.564 340.769 352.564H343.846C345.545 352.564 346.923 351.186 346.923 349.487C346.923 347.788 345.545 346.41 343.846 346.41H340.769C333.983 346.41 328.461 351.932 328.461 358.718C328.461 365.505 333.983 371.026 340.769 371.026H343.846C345.545 371.026 346.923 369.648 346.923 367.949C346.923 366.25 345.545 364.872 343.846 364.872Z" fill="#F2E2CD"/>
<path d="M343.846 416.154H340.769C337.376 416.154 334.615 413.393 334.615 410C334.615 406.607 337.376 403.846 340.769 403.846H343.846C345.545 403.846 346.923 402.468 346.923 400.769C346.923 399.07 345.545 397.693 343.846 397.693H340.769C333.983 397.693 328.461 403.214 328.461 410C328.461 416.787 333.983 422.308 340.769 422.308H343.846C345.545 422.308 346.923 420.93 346.923 419.231C346.923 417.532 345.545 416.154 343.846 416.154Z" fill="#F2E2CD"/>
<path d="M343.846 467.436H340.769C337.376 467.436 334.615 464.675 334.615 461.282C334.615 457.889 337.376 455.128 340.769 455.128H343.846C345.545 455.128 346.923 453.751 346.923 452.052C346.923 450.353 345.545 448.975 343.846 448.975H340.769C333.983 448.975 328.461 454.496 328.461 461.283C328.461 468.069 333.983 473.59 340.769 473.59H343.846C345.545 473.59 346.923 472.213 346.923 470.513C346.923 468.814 345.545 467.436 343.846 467.436Z" fill="#F2E2CD"/>
<path d="M426.923 406.923H411.538C409.839 406.923 408.461 408.301 408.461 410C408.461 411.699 409.839 413.077 411.538 413.077H426.923C428.622 413.077 430 411.699 430 410C430 408.301 428.622 406.923 426.923 406.923Z" fill="#F2E2CD"/>
<path d="M422.843 380.234C421.641 379.033 419.693 379.033 418.491 380.234L409.363 389.363C408.161 390.564 408.161 392.513 409.363 393.714C409.964 394.315 410.751 394.615 411.538 394.615C412.326 394.615 413.113 394.315 413.714 393.714L422.843 384.586C424.044 383.384 424.044 381.436 422.843 380.234Z" fill="#F2E2CD"/>
<path d="M422.843 435.414L413.714 426.286C412.513 425.085 410.564 425.084 409.363 426.286C408.161 427.487 408.161 429.436 409.363 430.637L418.491 439.766C419.092 440.366 419.88 440.667 420.667 440.667C421.454 440.667 422.242 440.366 422.843 439.766C424.044 438.564 424.045 436.616 422.843 435.414Z" fill="#F2E2CD"/>
<path d="M288.462 406.923H273.077C271.377 406.923 270 408.301 270 410C270 411.699 271.377 413.077 273.077 413.077H288.462C290.161 413.077 291.538 411.699 291.538 410C291.538 408.301 290.161 406.923 288.462 406.923Z" fill="#F2E2CD"/>
<path d="M290.637 389.362L281.509 380.234C280.307 379.033 278.359 379.033 277.158 380.234C275.956 381.436 275.956 383.384 277.158 384.586L286.286 393.714C286.887 394.315 287.674 394.615 288.461 394.615C289.249 394.615 290.036 394.315 290.637 393.714C291.839 392.512 291.839 390.564 290.637 389.362Z" fill="#F2E2CD"/>
<path d="M290.637 426.286C289.436 425.084 287.488 425.084 286.286 426.286L277.158 435.414C275.956 436.616 275.956 438.564 277.158 439.766C277.759 440.367 278.546 440.667 279.333 440.667C280.121 440.667 280.908 440.367 281.509 439.766L290.637 430.638C291.839 429.436 291.839 427.488 290.637 426.286Z" fill="#F2E2CD"/>
<path d="M361.406 347.311C360.834 346.738 360.04 346.409 359.231 346.409C358.422 346.409 357.628 346.738 357.056 347.311C356.483 347.883 356.154 348.677 356.154 349.486C356.154 350.298 356.483 351.089 357.056 351.661C357.628 352.237 358.422 352.563 359.231 352.563C360.04 352.563 360.834 352.236 361.406 351.661C361.978 351.089 362.308 350.298 362.308 349.486C362.308 348.677 361.978 347.883 361.406 347.311Z" fill="#F2E2CD"/>
</g>
<rect width="700" height="600" fill="#F2E2CD" fill-opacity="0.02"/>
<defs>
<clipPath id="clip0">
<rect width="160" height="160" fill="white" transform="translate(270 330)"/>
</clipPath>
</defs>
</svg>
