<svg width="700" height="600" viewBox="0 0 700 600" fill="none" xmlns="http://www.w3.org/2000/svg">
<rect width="700" height="600" fill="#191919"/>
<path d="M206.481 222H200.45L177.544 186.938V222H171.512V176.5H177.544L200.512 211.719V176.5H206.481V222ZM236.663 222.625C232.079 222.625 228.35 221.125 225.475 218.125C222.6 215.104 221.163 211.073 221.163 206.031V204.969C221.163 201.615 221.798 198.625 223.069 196C224.36 193.354 226.152 191.292 228.444 189.812C230.756 188.312 233.256 187.562 235.944 187.562C240.34 187.562 243.756 189.01 246.194 191.906C248.631 194.802 249.85 198.948 249.85 204.344V206.75H226.944C227.027 210.083 227.996 212.781 229.85 214.844C231.725 216.885 234.1 217.906 236.975 217.906C239.017 217.906 240.746 217.49 242.163 216.656C243.579 215.823 244.819 214.719 245.881 213.344L249.413 216.094C246.579 220.448 242.329 222.625 236.663 222.625ZM235.944 192.312C233.61 192.312 231.652 193.167 230.069 194.875C228.485 196.562 227.506 198.938 227.131 202H244.069V201.562C243.902 198.625 243.11 196.354 241.694 194.75C240.277 193.125 238.36 192.312 235.944 192.312ZM283.844 218.656C281.594 221.302 278.292 222.625 273.938 222.625C270.333 222.625 267.583 221.583 265.688 219.5C263.812 217.396 262.865 214.292 262.844 210.188V188.188H268.625V210.031C268.625 215.156 270.708 217.719 274.875 217.719C279.292 217.719 282.229 216.073 283.688 212.781V188.188H289.469V222H283.969L283.844 218.656ZM321.025 193.375C320.15 193.229 319.202 193.156 318.181 193.156C314.39 193.156 311.817 194.771 310.462 198V222H304.681V188.188H310.306L310.4 192.094C312.296 189.073 314.983 187.562 318.462 187.562C319.587 187.562 320.442 187.708 321.025 188V193.375ZM330.612 204.781C330.612 201.469 331.258 198.49 332.55 195.844C333.862 193.198 335.675 191.156 337.987 189.719C340.321 188.281 342.977 187.562 345.956 187.562C350.56 187.562 354.279 189.156 357.112 192.344C359.967 195.531 361.394 199.771 361.394 205.062V205.469C361.394 208.76 360.758 211.719 359.487 214.344C358.237 216.948 356.435 218.979 354.081 220.438C351.748 221.896 349.06 222.625 346.019 222.625C341.435 222.625 337.717 221.031 334.862 217.844C332.029 214.656 330.612 210.438 330.612 205.188V204.781ZM336.425 205.469C336.425 209.219 337.29 212.229 339.019 214.5C340.769 216.771 343.102 217.906 346.019 217.906C348.956 217.906 351.29 216.76 353.019 214.469C354.748 212.156 355.612 208.927 355.612 204.781C355.612 201.073 354.727 198.073 352.956 195.781C351.206 193.469 348.873 192.312 345.956 192.312C343.102 192.312 340.8 193.448 339.05 195.719C337.3 197.99 336.425 201.24 336.425 205.469ZM381.325 222H375.544V174H381.325V222ZM395.475 204.781C395.475 201.469 396.121 198.49 397.412 195.844C398.725 193.198 400.537 191.156 402.85 189.719C405.183 188.281 407.84 187.562 410.819 187.562C415.423 187.562 419.142 189.156 421.975 192.344C424.829 195.531 426.256 199.771 426.256 205.062V205.469C426.256 208.76 425.621 211.719 424.35 214.344C423.1 216.948 421.298 218.979 418.944 220.438C416.61 221.896 413.923 222.625 410.881 222.625C406.298 222.625 402.579 221.031 399.725 217.844C396.892 214.656 395.475 210.438 395.475 205.188V204.781ZM401.287 205.469C401.287 209.219 402.152 212.229 403.881 214.5C405.631 216.771 407.965 217.906 410.881 217.906C413.819 217.906 416.152 216.76 417.881 214.469C419.61 212.156 420.475 208.927 420.475 204.781C420.475 201.073 419.59 198.073 417.819 195.781C416.069 193.469 413.735 192.312 410.819 192.312C407.965 192.312 405.662 193.448 403.912 195.719C402.162 197.99 401.287 201.24 401.287 205.469ZM438.531 204.812C438.531 199.542 439.75 195.354 442.188 192.25C444.625 189.125 447.854 187.562 451.875 187.562C456 187.562 459.219 189.021 461.531 191.938L461.812 188.188H467.094V221.188C467.094 225.562 465.792 229.01 463.188 231.531C460.604 234.052 457.125 235.312 452.75 235.312C450.312 235.312 447.927 234.792 445.594 233.75C443.26 232.708 441.479 231.281 440.25 229.469L443.25 226C445.729 229.062 448.76 230.594 452.344 230.594C455.156 230.594 457.344 229.802 458.906 228.219C460.49 226.635 461.281 224.406 461.281 221.531V218.625C458.969 221.292 455.812 222.625 451.812 222.625C447.854 222.625 444.646 221.031 442.188 217.844C439.75 214.656 438.531 210.312 438.531 204.812ZM444.344 205.469C444.344 209.281 445.125 212.281 446.688 214.469C448.25 216.635 450.438 217.719 453.25 217.719C456.896 217.719 459.573 216.062 461.281 212.75V197.312C459.51 194.083 456.854 192.469 453.312 192.469C450.5 192.469 448.302 193.562 446.719 195.75C445.135 197.938 444.344 201.177 444.344 205.469ZM488.525 222H482.744V188.188H488.525V222ZM482.275 179.219C482.275 178.281 482.556 177.49 483.119 176.844C483.702 176.198 484.556 175.875 485.681 175.875C486.806 175.875 487.66 176.198 488.244 176.844C488.827 177.49 489.119 178.281 489.119 179.219C489.119 180.156 488.827 180.938 488.244 181.562C487.66 182.188 486.806 182.5 485.681 182.5C484.556 182.5 483.702 182.188 483.119 181.562C482.556 180.938 482.275 180.156 482.275 179.219ZM518.237 222.625C513.654 222.625 509.925 221.125 507.05 218.125C504.175 215.104 502.737 211.073 502.737 206.031V204.969C502.737 201.615 503.373 198.625 504.644 196C505.935 193.354 507.727 191.292 510.019 189.812C512.331 188.312 514.831 187.562 517.519 187.562C521.915 187.562 525.331 189.01 527.769 191.906C530.206 194.802 531.425 198.948 531.425 204.344V206.75H508.519C508.602 210.083 509.571 212.781 511.425 214.844C513.3 216.885 515.675 217.906 518.55 217.906C520.592 217.906 522.321 217.49 523.737 216.656C525.154 215.823 526.394 214.719 527.456 213.344L530.987 216.094C528.154 220.448 523.904 222.625 518.237 222.625ZM517.519 192.312C515.185 192.312 513.227 193.167 511.644 194.875C510.06 196.562 509.081 198.938 508.706 202H525.644V201.562C525.477 198.625 524.685 196.354 523.269 194.75C521.852 193.125 519.935 192.312 517.519 192.312Z" fill="white"/>
<path d="M365.625 355.938C363.9 355.938 362.5 357.338 362.5 359.062C362.5 360.787 363.9 362.188 365.625 362.188C367.35 362.188 368.75 360.787 368.75 359.062C368.75 357.338 367.35 355.938 365.625 355.938Z" fill="white"/>
<path d="M334.375 355.938C332.65 355.938 331.25 357.338 331.25 359.062C331.25 360.787 332.65 362.188 334.375 362.188C336.1 362.188 337.5 360.787 337.5 359.062C337.5 357.338 336.1 355.938 334.375 355.938Z" fill="white"/>
<path d="M417.851 423.401C420.533 419.375 421.875 414.352 421.875 410C421.875 403.439 418.96 397.343 413.959 393.209C415.066 390.564 415.625 387.813 415.625 385C415.625 376.295 410.545 368.187 402.992 364.4C404.138 354.896 397.945 346.184 388.767 343.962C385.175 335.657 377.18 330 368.75 330C360.903 330 353.865 334.577 350 341.255C346.134 334.577 339.097 330 331.25 330C322.82 330 314.824 335.658 311.233 343.962C302 346.198 295.865 354.953 297.008 364.4C289.455 368.186 284.375 376.295 284.375 385C284.375 387.813 284.934 390.564 286.041 393.209C281.04 397.343 278.125 403.439 278.125 410C278.125 414.375 279.478 419.391 282.149 423.4C279.539 427.085 278.125 431.451 278.125 435.938C278.125 441.755 280.484 447.297 284.656 451.412C282.511 464.378 292.852 477.5 306.25 477.5C306.347 477.5 306.442 477.498 306.536 477.496C310.978 485.159 319.223 490 328.125 490C337.402 490 345.692 484.431 350 476.408C354.308 484.431 362.598 490 371.875 490C380.777 490 389.022 485.159 393.464 477.496C393.558 477.498 393.653 477.5 393.75 477.5C405.608 477.5 415.625 467.053 415.625 454.688C415.625 453.635 415.533 452.552 415.344 451.412C419.516 447.297 421.875 441.755 421.875 435.938C421.875 431.451 420.461 427.085 417.851 423.401ZM346.875 377.307C345.035 376.239 342.901 375.625 340.625 375.625C338.899 375.625 337.5 377.024 337.5 378.75C337.5 380.476 338.899 381.875 340.625 381.875C344.071 381.875 346.875 384.679 346.875 388.125V447.553C342.29 442.353 335.587 439.062 328.125 439.062C326.399 439.062 325 440.462 325 442.188C325 443.913 326.399 445.312 328.125 445.312C338.464 445.312 346.875 453.724 346.875 464.062C346.875 474.734 338.288 483.75 328.125 483.75C320.89 483.75 314.23 479.472 311.157 472.85C310.59 471.63 309.307 470.91 307.969 471.061C307.748 471.086 307.528 471.115 307.309 471.145C298.415 472.362 288.399 462.291 291.111 451.024C291.389 449.867 290.986 448.653 290.071 447.892C286.451 444.879 284.375 440.522 284.375 435.938C284.375 433.103 285.177 430.329 286.668 427.896C290.416 430.968 295.078 432.812 300 432.812C301.726 432.812 303.125 431.413 303.125 429.688C303.125 427.962 301.726 426.562 300 426.562C291.519 426.562 284.375 418.822 284.375 410C284.375 404.648 287.103 399.725 291.672 396.831C293.08 395.939 293.541 394.099 292.718 392.649C291.329 390.2 290.625 387.626 290.625 385C290.625 376.566 297.501 368.438 306.25 368.438C314.574 368.438 321.875 376.177 321.875 385C321.875 386.726 323.274 388.125 325 388.125C326.726 388.125 328.125 386.726 328.125 385C328.125 372.634 318.108 362.188 306.25 362.188C305.204 362.188 304.163 362.272 303.133 362.432C303.131 362.35 303.125 362.27 303.125 362.188C303.125 355.213 308.787 349.688 315.625 349.688C318.963 349.688 322.103 350.988 324.466 353.348C325.687 354.568 327.666 354.567 328.886 353.346C330.105 352.125 330.104 350.147 328.883 348.927C326.033 346.079 322.427 344.263 318.519 343.661C321.275 339.57 325.857 336.25 331.25 336.25C339.574 336.25 346.875 343.989 346.875 352.812V377.307ZM400 432.812C404.922 432.812 409.584 430.968 413.332 427.897C414.823 430.329 415.625 433.103 415.625 435.938C415.625 440.522 413.549 444.879 409.929 447.892C409.014 448.653 408.611 449.868 408.89 451.024C409.221 452.4 409.375 453.564 409.375 454.687C409.375 464.387 400.602 472.227 392.692 471.145C392.472 471.115 392.252 471.086 392.031 471.061C390.691 470.909 389.41 471.63 388.844 472.85C385.771 479.472 379.11 483.75 371.875 483.75C361.712 483.75 353.125 474.734 353.125 464.062C353.125 453.724 361.536 445.312 371.875 445.312C373.601 445.312 375 443.913 375 442.188C375 440.462 373.601 439.062 371.875 439.062C364.413 439.062 357.71 442.353 353.125 447.553V388.125C353.125 384.679 355.929 381.875 359.375 381.875C361.101 381.875 362.5 380.476 362.5 378.75C362.5 377.024 361.101 375.625 359.375 375.625C357.099 375.625 354.965 376.239 353.125 377.307V352.812C353.125 343.989 360.426 336.25 368.75 336.25C374.143 336.25 378.725 339.57 381.481 343.661C377.573 344.263 373.968 346.079 371.117 348.927C369.895 350.146 369.894 352.125 371.114 353.346C372.333 354.567 374.312 354.568 375.533 353.348C377.897 350.988 381.037 349.688 384.375 349.688C391.248 349.688 396.875 355.246 396.875 362.188C396.875 362.27 396.869 362.35 396.867 362.432C395.837 362.272 394.796 362.188 393.75 362.188C381.892 362.188 371.875 372.634 371.875 385C371.875 386.726 373.274 388.125 375 388.125C376.726 388.125 378.125 386.726 378.125 385C378.125 376.177 385.426 368.438 393.75 368.438C402.494 368.438 409.375 376.562 409.375 385C409.375 387.626 408.671 390.2 407.282 392.649C406.46 394.099 406.92 395.939 408.328 396.831C412.897 399.725 415.625 404.648 415.625 410C415.625 418.853 408.456 426.562 400 426.562C398.274 426.562 396.875 427.962 396.875 429.688C396.875 431.413 398.274 432.812 400 432.812Z" fill="white"/>
<path d="M339.829 396.892C338.678 395.605 336.703 395.495 335.417 396.646C325.395 405.61 309.375 398.446 309.375 385C309.375 383.274 307.976 381.875 306.25 381.875C304.524 381.875 303.125 383.274 303.125 385C303.125 395.848 311.065 404.873 321.437 406.58C320.234 410.37 316.683 413.125 312.5 413.125C310.774 413.125 309.375 414.524 309.375 416.25C309.375 417.976 310.774 419.375 312.5 419.375C320.112 419.375 326.466 413.903 327.844 406.687C332.19 406.118 336.281 404.259 339.583 401.304C340.87 400.153 340.98 398.178 339.829 396.892Z" fill="white"/>
<path d="M306.25 451.562C304.524 451.562 303.125 452.962 303.125 454.688C303.125 456.413 304.524 457.812 306.25 457.812C314.574 457.812 321.875 465.552 321.875 474.375C321.875 476.101 323.274 477.5 325 477.5C326.726 477.5 328.125 476.101 328.125 474.375C328.125 462.009 318.108 451.562 306.25 451.562Z" fill="white"/>
<path d="M331.25 426.562C320.661 426.562 311.569 432.37 306.781 440.815C305.93 442.317 306.458 444.224 307.959 445.075C309.46 445.926 311.367 445.399 312.219 443.897C315.948 437.317 323.025 432.813 331.25 432.813C332.976 432.813 334.375 431.413 334.375 429.688C334.375 427.962 332.976 426.562 331.25 426.562Z" fill="white"/>
<path d="M387.5 413.125C383.317 413.125 379.765 410.37 378.562 406.58C388.935 404.873 396.875 395.848 396.875 385C396.875 383.274 395.475 381.875 393.75 381.875C392.024 381.875 390.625 383.274 390.625 385C390.625 393.616 383.615 400.625 375 400.625C371.151 400.625 367.452 399.212 364.583 396.646C363.297 395.495 361.321 395.605 360.171 396.892C359.02 398.178 359.13 400.153 360.416 401.304C363.719 404.259 367.81 406.118 372.155 406.687C373.534 413.903 379.888 419.375 387.5 419.375C389.225 419.375 390.625 417.976 390.625 416.25C390.625 414.524 389.225 413.125 387.5 413.125Z" fill="white"/>
<path d="M393.75 451.562C381.892 451.562 371.875 462.009 371.875 474.375C371.875 476.101 373.274 477.5 375 477.5C376.726 477.5 378.125 476.101 378.125 474.375C378.125 465.552 385.426 457.812 393.75 457.812C395.476 457.812 396.875 456.413 396.875 454.688C396.875 452.962 395.476 451.562 393.75 451.562Z" fill="white"/>
<path d="M393.219 440.815C388.443 432.391 379.364 426.562 368.75 426.562C367.024 426.562 365.625 427.962 365.625 429.687C365.625 431.413 367.024 432.812 368.75 432.812C376.969 432.812 384.051 437.316 387.781 443.897C388.633 445.401 390.542 445.925 392.041 445.075C393.542 444.224 394.069 442.317 393.219 440.815Z" fill="white"/>
<rect width="700" height="600" fill="white" fill-opacity="0.02"/>
</svg>
