<svg width="700" height="600" viewBox="0 0 700 600" fill="none" xmlns="http://www.w3.org/2000/svg">
<rect width="700" height="600" fill="#191919"/>
<path d="M142.506 181.438H127.881V222H121.913V181.438H107.319V176.5H142.506V181.438ZM168.719 193.375C167.844 193.229 166.896 193.156 165.875 193.156C162.083 193.156 159.51 194.771 158.156 198V222H152.375V188.188H158L158.094 192.094C159.99 189.073 162.677 187.562 166.156 187.562C167.281 187.562 168.135 187.708 168.719 188V193.375ZM200.088 222C199.754 221.333 199.483 220.146 199.275 218.438C196.588 221.229 193.379 222.625 189.65 222.625C186.317 222.625 183.577 221.688 181.431 219.812C179.306 217.917 178.244 215.521 178.244 212.625C178.244 209.104 179.577 206.375 182.244 204.438C184.931 202.479 188.702 201.5 193.556 201.5H199.181V198.844C199.181 196.823 198.577 195.219 197.369 194.031C196.16 192.823 194.379 192.219 192.025 192.219C189.963 192.219 188.233 192.74 186.838 193.781C185.442 194.823 184.744 196.083 184.744 197.562H178.931C178.931 195.875 179.525 194.25 180.713 192.688C181.921 191.104 183.546 189.854 185.588 188.938C187.65 188.021 189.91 187.562 192.369 187.562C196.265 187.562 199.317 188.542 201.525 190.5C203.733 192.438 204.879 195.115 204.963 198.531V214.094C204.963 217.198 205.358 219.667 206.15 221.5V222H200.088ZM190.494 217.594C192.306 217.594 194.025 217.125 195.65 216.188C197.275 215.25 198.452 214.031 199.181 212.531V205.594H194.65C187.567 205.594 184.025 207.667 184.025 211.812C184.025 213.625 184.629 215.042 185.838 216.062C187.046 217.083 188.598 217.594 190.494 217.594ZM241.3 218.656C239.05 221.302 235.748 222.625 231.394 222.625C227.79 222.625 225.04 221.583 223.144 219.5C221.269 217.396 220.321 214.292 220.3 210.188V188.188H226.081V210.031C226.081 215.156 228.165 217.719 232.331 217.719C236.748 217.719 239.685 216.073 241.144 212.781V188.188H246.925V222H241.425L241.3 218.656ZM267.575 188.188L267.731 191.938C270.21 189.021 273.554 187.562 277.763 187.562C282.492 187.562 285.71 189.375 287.419 193C288.544 191.375 290.002 190.062 291.794 189.062C293.606 188.062 295.742 187.562 298.2 187.562C305.617 187.562 309.388 191.49 309.513 199.344V222H303.731V199.688C303.731 197.271 303.179 195.469 302.075 194.281C300.971 193.073 299.117 192.469 296.513 192.469C294.367 192.469 292.585 193.115 291.169 194.406C289.752 195.677 288.929 197.396 288.7 199.562V222H282.888V199.844C282.888 194.927 280.481 192.469 275.669 192.469C271.877 192.469 269.283 194.083 267.888 197.312V222H262.106V188.188H267.575ZM345.538 222C345.204 221.333 344.933 220.146 344.725 218.438C342.038 221.229 338.829 222.625 335.1 222.625C331.767 222.625 329.027 221.688 326.881 219.812C324.756 217.917 323.694 215.521 323.694 212.625C323.694 209.104 325.027 206.375 327.694 204.438C330.381 202.479 334.152 201.5 339.006 201.5H344.631V198.844C344.631 196.823 344.027 195.219 342.819 194.031C341.61 192.823 339.829 192.219 337.475 192.219C335.413 192.219 333.683 192.74 332.288 193.781C330.892 194.823 330.194 196.083 330.194 197.562H324.381C324.381 195.875 324.975 194.25 326.163 192.688C327.371 191.104 328.996 189.854 331.038 188.938C333.1 188.021 335.36 187.562 337.819 187.562C341.715 187.562 344.767 188.542 346.975 190.5C349.183 192.438 350.329 195.115 350.413 198.531V214.094C350.413 217.198 350.808 219.667 351.6 221.5V222H345.538ZM335.944 217.594C337.756 217.594 339.475 217.125 341.1 216.188C342.725 215.25 343.902 214.031 344.631 212.531V205.594H340.1C333.017 205.594 329.475 207.667 329.475 211.812C329.475 213.625 330.079 215.042 331.288 216.062C332.496 217.083 334.048 217.594 335.944 217.594ZM373.719 180V188.188H380.031V192.656H373.719V213.625C373.719 214.979 374 216 374.562 216.688C375.125 217.354 376.083 217.688 377.438 217.688C378.104 217.688 379.021 217.562 380.188 217.312V222C378.667 222.417 377.188 222.625 375.75 222.625C373.167 222.625 371.219 221.844 369.906 220.281C368.594 218.719 367.938 216.5 367.938 213.625V192.656H361.781V188.188H367.938V180H373.719ZM391.056 204.781C391.056 201.469 391.702 198.49 392.994 195.844C394.306 193.198 396.119 191.156 398.431 189.719C400.765 188.281 403.421 187.562 406.4 187.562C411.004 187.562 414.723 189.156 417.556 192.344C420.41 195.531 421.837 199.771 421.837 205.062V205.469C421.837 208.76 421.202 211.719 419.931 214.344C418.681 216.948 416.879 218.979 414.525 220.438C412.192 221.896 409.504 222.625 406.462 222.625C401.879 222.625 398.16 221.031 395.306 217.844C392.473 214.656 391.056 210.438 391.056 205.188V204.781ZM396.869 205.469C396.869 209.219 397.733 212.229 399.462 214.5C401.212 216.771 403.546 217.906 406.462 217.906C409.4 217.906 411.733 216.76 413.462 214.469C415.192 212.156 416.056 208.927 416.056 204.781C416.056 201.073 415.171 198.073 413.4 195.781C411.65 193.469 409.317 192.312 406.4 192.312C403.546 192.312 401.244 193.448 399.494 195.719C397.744 197.99 396.869 201.24 396.869 205.469ZM441.769 222H435.988V174H441.769V222ZM455.919 204.781C455.919 201.469 456.565 198.49 457.856 195.844C459.169 193.198 460.981 191.156 463.294 189.719C465.627 188.281 468.283 187.562 471.263 187.562C475.867 187.562 479.585 189.156 482.419 192.344C485.273 195.531 486.7 199.771 486.7 205.062V205.469C486.7 208.76 486.065 211.719 484.794 214.344C483.544 216.948 481.742 218.979 479.388 220.438C477.054 221.896 474.367 222.625 471.325 222.625C466.742 222.625 463.023 221.031 460.169 217.844C457.335 214.656 455.919 210.438 455.919 205.188V204.781ZM461.731 205.469C461.731 209.219 462.596 212.229 464.325 214.5C466.075 216.771 468.408 217.906 471.325 217.906C474.263 217.906 476.596 216.76 478.325 214.469C480.054 212.156 480.919 208.927 480.919 204.781C480.919 201.073 480.033 198.073 478.263 195.781C476.513 193.469 474.179 192.312 471.263 192.312C468.408 192.312 466.106 193.448 464.356 195.719C462.606 197.99 461.731 201.24 461.731 205.469ZM498.975 204.812C498.975 199.542 500.194 195.354 502.631 192.25C505.069 189.125 508.298 187.562 512.319 187.562C516.444 187.562 519.663 189.021 521.975 191.938L522.256 188.188H527.538V221.188C527.538 225.562 526.235 229.01 523.631 231.531C521.048 234.052 517.569 235.312 513.194 235.312C510.756 235.312 508.371 234.792 506.038 233.75C503.704 232.708 501.923 231.281 500.694 229.469L503.694 226C506.173 229.062 509.204 230.594 512.788 230.594C515.6 230.594 517.788 229.802 519.35 228.219C520.933 226.635 521.725 224.406 521.725 221.531V218.625C519.413 221.292 516.256 222.625 512.256 222.625C508.298 222.625 505.09 221.031 502.631 217.844C500.194 214.656 498.975 210.312 498.975 204.812ZM504.788 205.469C504.788 209.281 505.569 212.281 507.131 214.469C508.694 216.635 510.881 217.719 513.694 217.719C517.34 217.719 520.017 216.062 521.725 212.75V197.312C519.954 194.083 517.298 192.469 513.756 192.469C510.944 192.469 508.746 193.562 507.163 195.75C505.579 197.938 504.788 201.177 504.788 205.469ZM548.969 222H543.188V188.188H548.969V222ZM542.719 179.219C542.719 178.281 543 177.49 543.562 176.844C544.146 176.198 545 175.875 546.125 175.875C547.25 175.875 548.104 176.198 548.688 176.844C549.271 177.49 549.562 178.281 549.562 179.219C549.562 180.156 549.271 180.938 548.688 181.562C548.104 182.188 547.25 182.5 546.125 182.5C545 182.5 544.146 182.188 543.562 181.562C543 180.938 542.719 180.156 542.719 179.219ZM578.681 222.625C574.098 222.625 570.369 221.125 567.494 218.125C564.619 215.104 563.181 211.073 563.181 206.031V204.969C563.181 201.615 563.817 198.625 565.087 196C566.379 193.354 568.171 191.292 570.462 189.812C572.775 188.312 575.275 187.562 577.962 187.562C582.358 187.562 585.775 189.01 588.212 191.906C590.65 194.802 591.869 198.948 591.869 204.344V206.75H568.962C569.046 210.083 570.015 212.781 571.869 214.844C573.744 216.885 576.119 217.906 578.994 217.906C581.035 217.906 582.765 217.49 584.181 216.656C585.598 215.823 586.837 214.719 587.9 213.344L591.431 216.094C588.598 220.448 584.348 222.625 578.681 222.625ZM577.962 192.312C575.629 192.312 573.671 193.167 572.087 194.875C570.504 196.562 569.525 198.938 569.15 202H586.087V201.562C585.921 198.625 585.129 196.354 583.712 194.75C582.296 193.125 580.379 192.312 577.962 192.312Z" fill="white"/>
<path d="M312.304 440.028L313.219 439.113C314.135 438.198 314.135 436.714 313.22 435.799C312.305 434.883 310.821 434.883 309.906 435.798L308.99 436.713C308.075 437.628 308.075 439.112 308.99 440.028C309.447 440.486 310.047 440.715 310.647 440.715C311.247 440.715 311.846 440.486 312.304 440.028V440.028Z" fill="white"/>
<path d="M320.887 446.781L319.972 447.696C319.057 448.612 319.057 450.095 319.972 451.011C320.429 451.468 321.029 451.697 321.629 451.697C322.229 451.697 322.829 451.468 323.286 451.011L324.202 450.095C325.117 449.18 325.117 447.696 324.202 446.781C323.287 445.866 321.803 445.866 320.887 446.781Z" fill="white"/>
<path d="M303.152 449.18L304.068 448.265C304.983 447.349 304.983 445.865 304.068 444.95C303.152 444.035 301.668 444.035 300.753 444.95L299.838 445.865C298.923 446.781 298.923 448.265 299.838 449.18C300.295 449.638 300.895 449.866 301.495 449.866C302.095 449.867 302.695 449.638 303.152 449.18Z" fill="white"/>
<path d="M311.735 455.932L310.82 456.848C309.905 457.763 309.905 459.247 310.82 460.162C311.278 460.62 311.878 460.849 312.477 460.849C313.077 460.849 313.677 460.62 314.134 460.162L315.05 459.247C315.965 458.332 315.965 456.848 315.05 455.932C314.134 455.017 312.65 455.017 311.735 455.932V455.932Z" fill="white"/>
<path d="M291.601 454.102L290.686 455.017C289.77 455.933 289.77 457.416 290.686 458.332C291.143 458.789 291.743 459.018 292.343 459.018C292.943 459.018 293.543 458.789 294 458.332L294.915 457.416C295.831 456.501 295.831 455.017 294.915 454.102C294 453.187 292.516 453.187 291.601 454.102Z" fill="white"/>
<path d="M302.583 465.085L301.668 466C300.753 466.915 300.753 468.399 301.669 469.315C302.126 469.773 302.726 470.001 303.326 470.001C303.926 470.001 304.525 469.772 304.983 469.314L305.898 468.399C306.814 467.484 306.813 466 305.898 465.084C304.983 464.169 303.499 464.169 302.583 465.085V465.085Z" fill="white"/>
<path d="M395.76 355.602C396.359 355.602 396.959 355.373 397.417 354.916L398.332 354C399.247 353.085 399.247 351.601 398.332 350.686C397.416 349.77 395.932 349.771 395.017 350.686L394.102 351.602C393.187 352.517 393.187 354.001 394.103 354.916C394.56 355.374 395.16 355.602 395.76 355.602Z" fill="white"/>
<path d="M406.741 366.585C407.341 366.585 407.941 366.356 408.399 365.898L409.314 364.983C410.229 364.067 410.229 362.584 409.314 361.668C408.399 360.753 406.915 360.753 405.999 361.668L405.084 362.584C404.169 363.499 404.169 364.983 405.084 365.898C405.542 366.356 406.142 366.585 406.741 366.585Z" fill="white"/>
<path d="M386.608 364.754C387.207 364.754 387.807 364.525 388.265 364.068L389.18 363.152C390.095 362.237 390.095 360.753 389.18 359.838C388.265 358.923 386.781 358.923 385.865 359.838L384.95 360.753C384.035 361.669 384.035 363.152 384.95 364.068C385.408 364.525 386.008 364.754 386.608 364.754Z" fill="white"/>
<path d="M396.848 370.82L395.933 371.735C395.017 372.651 395.017 374.135 395.933 375.05C396.39 375.508 396.99 375.736 397.59 375.736C398.189 375.736 398.789 375.508 399.247 375.05L400.162 374.135C401.078 373.219 401.078 371.735 400.162 370.82C399.247 369.905 397.763 369.905 396.848 370.82Z" fill="white"/>
<path d="M377.455 373.906C378.055 373.906 378.655 373.677 379.113 373.22L380.028 372.304C380.943 371.389 380.943 369.905 380.028 368.99C379.113 368.075 377.629 368.075 376.714 368.99L375.798 369.905C374.883 370.821 374.883 372.304 375.798 373.22C376.256 373.677 376.855 373.906 377.455 373.906Z" fill="white"/>
<path d="M391.011 379.973C390.096 379.057 388.612 379.057 387.696 379.972L386.781 380.887C385.865 381.802 385.865 383.286 386.78 384.202C387.238 384.659 387.838 384.888 388.438 384.888C389.037 384.888 389.637 384.659 390.095 384.202L391.01 383.287C391.926 382.372 391.926 380.888 391.011 379.973V379.973Z" fill="white"/>
<path d="M362.514 375.271C361.127 373.884 359.283 373.12 357.321 373.12C355.36 373.12 353.515 373.884 352.129 375.271L315.271 412.129C313.884 413.516 313.12 415.36 313.12 417.321C313.12 419.283 313.884 421.127 315.271 422.514L337.486 444.729C338.873 446.116 340.717 446.88 342.679 446.88C344.64 446.88 346.485 446.116 347.872 444.729L384.729 407.871C386.116 406.485 386.88 404.64 386.88 402.679C386.88 400.717 386.116 398.873 384.729 397.486L362.514 375.271ZM381.415 404.557L344.557 441.415C344.055 441.916 343.388 442.193 342.679 442.193C341.969 442.193 341.302 441.916 340.8 441.415L318.585 419.2C318.084 418.698 317.807 418.031 317.807 417.321C317.807 416.612 318.084 415.945 318.585 415.443L355.444 378.585C355.945 378.084 356.612 377.807 357.322 377.807C358.031 377.807 358.698 378.084 359.2 378.585L381.415 400.8C381.916 401.302 382.193 401.969 382.193 402.679C382.193 403.388 381.916 404.055 381.415 404.557V404.557Z" fill="white"/>
<path d="M397.244 410L420.216 387.028C426.525 380.718 430 372.33 430 363.407C430 354.483 426.525 346.094 420.215 339.784C407.19 326.759 385.997 326.759 372.972 339.784L350 362.757L327.028 339.785C314.003 326.76 292.81 326.76 279.785 339.785C273.475 346.094 270 354.483 270 363.406C270 372.33 273.475 380.718 279.784 387.028L302.756 410L279.784 432.972C273.475 439.282 270 447.671 270 456.594C270 465.517 273.475 473.906 279.784 480.216C286.297 486.728 294.852 489.984 303.406 489.984C311.961 489.984 320.515 486.728 327.028 480.216L350 457.244L372.972 480.216C379.484 486.728 388.039 489.984 396.594 489.984C405.148 489.984 413.703 486.728 420.215 480.216C426.525 473.906 430 465.517 430 456.594C430 447.671 426.525 439.282 420.215 432.972L397.244 410ZM283.099 383.713C271.902 372.516 271.902 354.296 283.099 343.099C294.297 331.902 312.516 331.902 323.713 343.099L346.685 366.071L306.071 406.685L283.099 383.713ZM323.713 476.901C318.114 482.5 310.761 485.3 303.406 485.299C296.053 485.298 288.697 482.499 283.099 476.901C277.675 471.477 274.688 464.265 274.688 456.594C274.688 448.923 277.675 441.711 283.099 436.287L376.287 343.099C387.484 331.902 405.704 331.902 416.901 343.099C422.325 348.523 425.312 355.735 425.312 363.407C425.312 371.078 422.325 378.289 416.901 383.713C416.901 383.713 392.268 408.347 392.266 408.349L323.713 476.901ZM416.901 476.901C411.302 482.5 403.949 485.3 396.594 485.299C389.24 485.298 381.885 482.499 376.287 476.901L353.315 453.929L393.929 413.315L416.901 436.287C428.098 447.484 428.098 465.704 416.901 476.901Z" fill="white"/>
<path d="M324.202 369.905L323.286 368.99C322.371 368.075 320.887 368.075 319.972 368.99C319.057 369.905 319.057 371.389 319.972 372.304L320.887 373.22C321.345 373.677 321.945 373.906 322.544 373.906C323.144 373.906 323.744 373.677 324.202 373.22C325.117 372.304 325.117 370.82 324.202 369.905Z" fill="white"/>
<path d="M312.304 379.972C311.389 379.057 309.905 379.057 308.99 379.973C308.075 380.888 308.075 382.372 308.99 383.287L309.906 384.202C310.363 384.66 310.963 384.888 311.562 384.888C312.162 384.888 312.762 384.659 313.22 384.202C314.135 383.286 314.135 381.802 313.219 380.887L312.304 379.972Z" fill="white"/>
<path d="M314.134 359.838C313.219 358.923 311.735 358.923 310.82 359.838C309.904 360.753 309.904 362.237 310.82 363.152L311.735 364.068C312.193 364.525 312.793 364.754 313.392 364.754C313.992 364.754 314.592 364.525 315.049 364.068C315.965 363.152 315.965 361.668 315.049 360.753L314.134 359.838Z" fill="white"/>
<path d="M303.152 370.82C302.237 369.905 300.753 369.905 299.838 370.82C298.923 371.736 298.923 373.219 299.838 374.135L300.753 375.05C301.211 375.508 301.811 375.736 302.41 375.736C303.01 375.736 303.61 375.508 304.068 375.05C304.983 374.134 304.983 372.651 304.068 371.735L303.152 370.82Z" fill="white"/>
<path d="M304.983 350.686C304.068 349.771 302.584 349.771 301.669 350.686C300.753 351.601 300.753 353.085 301.668 354L302.583 354.916C303.041 355.373 303.641 355.602 304.241 355.602C304.841 355.602 305.44 355.373 305.898 354.916C306.813 354.001 306.814 352.517 305.898 351.602L304.983 350.686Z" fill="white"/>
<path d="M294 361.668C293.085 360.753 291.601 360.753 290.686 361.668C289.771 362.584 289.771 364.067 290.686 364.983L291.601 365.898C292.059 366.356 292.659 366.584 293.258 366.584C293.858 366.584 294.458 366.356 294.916 365.898C295.831 364.982 295.831 363.499 294.916 362.583L294 361.668Z" fill="white"/>
<path d="M408.399 454.102C407.483 453.187 405.999 453.187 405.084 454.102C404.169 455.017 404.169 456.501 405.084 457.416L405.999 458.332C406.457 458.789 407.057 459.018 407.656 459.018C408.256 459.018 408.856 458.789 409.314 458.332C410.229 457.416 410.229 455.932 409.314 455.017L408.399 454.102Z" fill="white"/>
<path d="M397.417 465.085C396.502 464.169 395.017 464.169 394.102 465.084C393.187 466 393.187 467.484 394.102 468.399L395.017 469.314C395.474 469.772 396.074 470.001 396.674 470.001C397.274 470.001 397.874 469.772 398.332 469.315C399.247 468.399 399.247 466.915 398.332 466L397.417 465.085Z" fill="white"/>
<path d="M399.247 444.95C398.332 444.035 396.848 444.035 395.933 444.95C395.017 445.866 395.017 447.349 395.933 448.265L396.848 449.18C397.305 449.638 397.905 449.866 398.505 449.866C399.105 449.866 399.705 449.638 400.162 449.18C401.078 448.264 401.078 446.781 400.162 445.865L399.247 444.95Z" fill="white"/>
<path d="M388.265 455.932C387.35 455.017 385.865 455.017 384.95 455.932C384.035 456.848 384.035 458.332 384.95 459.247L385.865 460.162C386.323 460.62 386.923 460.849 387.523 460.849C388.122 460.849 388.722 460.62 389.18 460.162C390.095 459.247 390.095 457.763 389.18 456.848L388.265 455.932Z" fill="white"/>
<path d="M390.095 435.798C389.179 434.883 387.695 434.883 386.78 435.799C385.865 436.714 385.865 438.198 386.781 439.113L387.696 440.028C388.154 440.486 388.753 440.714 389.353 440.714C389.953 440.714 390.553 440.486 391.01 440.028C391.925 439.112 391.925 437.628 391.01 436.713L390.095 435.798Z" fill="white"/>
<path d="M379.113 446.781C378.197 445.866 376.713 445.866 375.798 446.781C374.883 447.696 374.883 449.18 375.798 450.095L376.714 451.011C377.171 451.468 377.771 451.697 378.371 451.697C378.97 451.697 379.57 451.468 380.028 451.011C380.943 450.095 380.943 448.611 380.028 447.696L379.113 446.781Z" fill="white"/>
<rect width="700" height="600" fill="white" fill-opacity="0.02"/>
</svg>
