<svg width="1120" height="548" viewBox="0 0 1120 548" fill="none" xmlns="http://www.w3.org/2000/svg">
<rect width="1120" height="548" fill="white" fill-opacity="0.02"/>
<path d="M637.475 118.1L634.346 121.352V130H630.971V104.406H634.346V117.062L645.719 104.406H649.797L639.725 115.709L650.588 130H646.545L637.475 118.1ZM660.164 130H656.913V110.98H660.164V130ZM656.649 105.936C656.649 105.408 656.807 104.963 657.123 104.6C657.452 104.236 657.932 104.055 658.565 104.055C659.198 104.055 659.678 104.236 660.006 104.6C660.334 104.963 660.498 105.408 660.498 105.936C660.498 106.463 660.334 106.902 660.006 107.254C659.678 107.605 659.198 107.781 658.565 107.781C657.932 107.781 657.452 107.605 657.123 107.254C656.807 106.902 656.649 106.463 656.649 105.936ZM672.061 110.98L672.167 113.371C673.62 111.543 675.518 110.629 677.862 110.629C681.882 110.629 683.909 112.896 683.944 117.432V130H680.692V117.414C680.68 116.043 680.364 115.029 679.743 114.373C679.134 113.717 678.179 113.389 676.878 113.389C675.823 113.389 674.897 113.67 674.1 114.232C673.304 114.795 672.682 115.533 672.237 116.447V130H668.985V110.98H672.061ZM700.341 130.352C697.763 130.352 695.665 129.508 694.048 127.82C692.431 126.121 691.622 123.854 691.622 121.018V120.42C691.622 118.533 691.98 116.852 692.695 115.375C693.421 113.887 694.429 112.727 695.718 111.895C697.019 111.051 698.425 110.629 699.937 110.629C702.409 110.629 704.331 111.443 705.702 113.072C707.073 114.701 707.759 117.033 707.759 120.068V121.422H694.874C694.921 123.297 695.466 124.814 696.509 125.975C697.564 127.123 698.9 127.697 700.517 127.697C701.665 127.697 702.638 127.463 703.435 126.994C704.232 126.525 704.929 125.904 705.527 125.131L707.513 126.678C705.919 129.127 703.529 130.352 700.341 130.352ZM699.937 113.301C698.624 113.301 697.523 113.781 696.632 114.742C695.741 115.691 695.191 117.027 694.98 118.75H704.507V118.504C704.413 116.852 703.968 115.574 703.171 114.672C702.374 113.758 701.296 113.301 699.937 113.301ZM701.519 103H705.456L700.745 108.168H698.126L701.519 103ZM726.213 124.955C726.213 124.076 725.879 123.396 725.211 122.916C724.554 122.424 723.4 122.002 721.748 121.65C720.107 121.299 718.8 120.877 717.828 120.385C716.867 119.893 716.152 119.307 715.683 118.627C715.226 117.947 714.998 117.139 714.998 116.201C714.998 114.643 715.654 113.324 716.966 112.246C718.291 111.168 719.978 110.629 722.029 110.629C724.185 110.629 725.931 111.186 727.267 112.299C728.615 113.412 729.289 114.836 729.289 116.57H726.019C726.019 115.68 725.638 114.912 724.877 114.268C724.127 113.623 723.177 113.301 722.029 113.301C720.845 113.301 719.92 113.559 719.252 114.074C718.584 114.59 718.25 115.264 718.25 116.096C718.25 116.881 718.56 117.473 719.181 117.871C719.802 118.27 720.921 118.65 722.539 119.014C724.168 119.377 725.486 119.811 726.494 120.314C727.502 120.818 728.246 121.428 728.726 122.143C729.218 122.846 729.464 123.707 729.464 124.727C729.464 126.426 728.785 127.791 727.425 128.822C726.066 129.842 724.302 130.352 722.134 130.352C720.611 130.352 719.263 130.082 718.091 129.543C716.92 129.004 716 128.254 715.332 127.293C714.675 126.32 714.347 125.271 714.347 124.146H717.599C717.658 125.236 718.091 126.104 718.9 126.748C719.72 127.381 720.798 127.697 722.134 127.697C723.365 127.697 724.349 127.451 725.088 126.959C725.838 126.455 726.213 125.787 726.213 124.955ZM740.834 130H737.582V110.98H740.834V130ZM737.318 105.936C737.318 105.408 737.477 104.963 737.793 104.6C738.121 104.236 738.602 104.055 739.234 104.055C739.867 104.055 740.348 104.236 740.676 104.6C741.004 104.963 741.168 105.408 741.168 105.936C741.168 106.463 741.004 106.902 740.676 107.254C740.348 107.605 739.867 107.781 739.234 107.781C738.602 107.781 738.121 107.605 737.793 107.254C737.477 106.902 737.318 106.463 737.318 105.936ZM754.067 106.375V110.98H757.618V113.494H754.067V125.289C754.067 126.051 754.225 126.625 754.541 127.012C754.858 127.387 755.397 127.574 756.159 127.574C756.534 127.574 757.049 127.504 757.705 127.363V130C756.85 130.234 756.018 130.352 755.209 130.352C753.756 130.352 752.661 129.912 751.922 129.033C751.184 128.154 750.815 126.906 750.815 125.289V113.494H747.352V110.98H750.815V106.375H754.067ZM768.284 113.283C769.725 111.514 771.6 110.629 773.909 110.629C777.929 110.629 779.956 112.896 779.991 117.432V130H776.739V117.414C776.727 116.043 776.411 115.029 775.79 114.373C775.18 113.717 774.225 113.389 772.925 113.389C771.87 113.389 770.944 113.67 770.147 114.232C769.35 114.795 768.729 115.533 768.284 116.447V130H765.032V103H768.284V113.283ZM796.353 130.352C793.775 130.352 791.677 129.508 790.06 127.82C788.443 126.121 787.634 123.854 787.634 121.018V120.42C787.634 118.533 787.991 116.852 788.706 115.375C789.433 113.887 790.441 112.727 791.73 111.895C793.03 111.051 794.437 110.629 795.948 110.629C798.421 110.629 800.343 111.443 801.714 113.072C803.085 114.701 803.771 117.033 803.771 120.068V121.422H790.886C790.933 123.297 791.478 124.814 792.521 125.975C793.575 127.123 794.911 127.697 796.529 127.697C797.677 127.697 798.65 127.463 799.446 126.994C800.243 126.525 800.941 125.904 801.538 125.131L803.525 126.678C801.931 129.127 799.54 130.352 796.353 130.352ZM795.948 113.301C794.636 113.301 793.534 113.781 792.644 114.742C791.753 115.691 791.202 117.027 790.991 118.75H800.519V118.504C800.425 116.852 799.98 115.574 799.183 114.672C798.386 113.758 797.308 113.301 795.948 113.301ZM797.53 103H801.468L796.757 108.168H794.138L797.53 103ZM820.343 113.898C819.851 113.816 819.318 113.775 818.744 113.775C816.611 113.775 815.164 114.684 814.402 116.5V130H811.15V110.98H814.314L814.367 113.178C815.433 111.479 816.945 110.629 818.902 110.629C819.535 110.629 820.015 110.711 820.343 110.875V113.898ZM837.988 130C837.801 129.625 837.648 128.957 837.531 127.996C836.02 129.566 834.215 130.352 832.117 130.352C830.242 130.352 828.701 129.824 827.494 128.77C826.299 127.703 825.701 126.355 825.701 124.727C825.701 122.746 826.451 121.211 827.951 120.121C829.463 119.02 831.584 118.469 834.314 118.469H837.479V116.975C837.479 115.838 837.139 114.936 836.459 114.268C835.779 113.588 834.777 113.248 833.453 113.248C832.293 113.248 831.32 113.541 830.535 114.127C829.75 114.713 829.357 115.422 829.357 116.254H826.088C826.088 115.305 826.422 114.391 827.09 113.512C827.77 112.621 828.684 111.918 829.832 111.402C830.992 110.887 832.264 110.629 833.646 110.629C835.838 110.629 837.555 111.18 838.797 112.281C840.039 113.371 840.684 114.877 840.73 116.799V125.553C840.73 127.299 840.953 128.688 841.398 129.719V130H837.988ZM832.592 127.521C833.611 127.521 834.578 127.258 835.492 126.73C836.406 126.203 837.068 125.518 837.479 124.674V120.771H834.93C830.945 120.771 828.953 121.938 828.953 124.27C828.953 125.289 829.293 126.086 829.973 126.66C830.652 127.234 831.525 127.521 832.592 127.521ZM865.495 120.701C865.495 123.596 864.832 125.928 863.508 127.697C862.184 129.467 860.391 130.352 858.129 130.352C855.821 130.352 854.004 129.619 852.68 128.154V137.312H849.428V110.98H852.399L852.557 113.09C853.881 111.449 855.721 110.629 858.077 110.629C860.362 110.629 862.166 111.49 863.491 113.213C864.827 114.936 865.495 117.332 865.495 120.402V120.701ZM862.243 120.332C862.243 118.188 861.786 116.494 860.871 115.252C859.957 114.01 858.704 113.389 857.11 113.389C855.141 113.389 853.664 114.262 852.68 116.008V125.096C853.653 126.83 855.141 127.697 857.145 127.697C858.704 127.697 859.94 127.082 860.854 125.852C861.78 124.609 862.243 122.77 862.243 120.332ZM876.776 130H873.524V110.98H876.776V130ZM873.261 105.936C873.261 105.408 873.419 104.963 873.735 104.6C874.063 104.236 874.544 104.055 875.177 104.055C875.809 104.055 876.29 104.236 876.618 104.6C876.946 104.963 877.11 105.408 877.11 105.936C877.11 106.463 876.946 106.902 876.618 107.254C876.29 107.605 875.809 107.781 875.177 107.781C874.544 107.781 874.063 107.605 873.735 107.254C873.419 106.902 873.261 106.463 873.261 105.936ZM893.489 130.352C890.911 130.352 888.814 129.508 887.196 127.82C885.579 126.121 884.771 123.854 884.771 121.018V120.42C884.771 118.533 885.128 116.852 885.843 115.375C886.57 113.887 887.577 112.727 888.866 111.895C890.167 111.051 891.573 110.629 893.085 110.629C895.558 110.629 897.48 111.443 898.851 113.072C900.222 114.701 900.907 117.033 900.907 120.068V121.422H888.023C888.07 123.297 888.614 124.814 889.657 125.975C890.712 127.123 892.048 127.697 893.665 127.697C894.814 127.697 895.786 127.463 896.583 126.994C897.38 126.525 898.077 125.904 898.675 125.131L900.661 126.678C899.068 129.127 896.677 130.352 893.489 130.352ZM893.085 113.301C891.773 113.301 890.671 113.781 889.78 114.742C888.89 115.691 888.339 117.027 888.128 118.75H897.655V118.504C897.562 116.852 897.116 115.574 896.32 114.672C895.523 113.758 894.445 113.301 893.085 113.301ZM639.654 163.898C639.162 163.816 638.629 163.775 638.055 163.775C635.922 163.775 634.475 164.684 633.713 166.5V180H630.461V160.98H633.625L633.678 163.178C634.744 161.479 636.256 160.629 638.213 160.629C638.846 160.629 639.326 160.711 639.654 160.875V163.898ZM653.801 180.352C651.223 180.352 649.125 179.508 647.508 177.82C645.891 176.121 645.082 173.854 645.082 171.018V170.42C645.082 168.533 645.44 166.852 646.155 165.375C646.881 163.887 647.889 162.727 649.178 161.895C650.479 161.051 651.885 160.629 653.397 160.629C655.87 160.629 657.791 161.443 659.163 163.072C660.534 164.701 661.219 167.033 661.219 170.068V171.422H648.334C648.381 173.297 648.926 174.814 649.969 175.975C651.024 177.123 652.36 177.697 653.977 177.697C655.125 177.697 656.098 177.463 656.895 176.994C657.692 176.525 658.389 175.904 658.987 175.131L660.973 176.678C659.379 179.127 656.989 180.352 653.801 180.352ZM653.397 163.301C652.084 163.301 650.983 163.781 650.092 164.742C649.202 165.691 648.651 167.027 648.44 168.75H657.967V168.504C657.873 166.852 657.428 165.574 656.631 164.672C655.834 163.758 654.756 163.301 653.397 163.301ZM679.673 174.955C679.673 174.076 679.339 173.396 678.671 172.916C678.014 172.424 676.86 172.002 675.208 171.65C673.567 171.299 672.261 170.877 671.288 170.385C670.327 169.893 669.612 169.307 669.143 168.627C668.686 167.947 668.458 167.139 668.458 166.201C668.458 164.643 669.114 163.324 670.427 162.246C671.751 161.168 673.438 160.629 675.489 160.629C677.645 160.629 679.391 161.186 680.727 162.299C682.075 163.412 682.749 164.836 682.749 166.57H679.479C679.479 165.68 679.098 164.912 678.337 164.268C677.587 163.623 676.638 163.301 675.489 163.301C674.305 163.301 673.38 163.559 672.712 164.074C672.044 164.59 671.71 165.264 671.71 166.096C671.71 166.881 672.02 167.473 672.641 167.871C673.263 168.27 674.382 168.65 675.999 169.014C677.628 169.377 678.946 169.811 679.954 170.314C680.962 170.818 681.706 171.428 682.186 172.143C682.679 172.846 682.925 173.707 682.925 174.727C682.925 176.426 682.245 177.791 680.886 178.822C679.526 179.842 677.763 180.352 675.595 180.352C674.071 180.352 672.723 180.082 671.552 179.543C670.38 179.004 669.46 178.254 668.792 177.293C668.136 176.32 667.807 175.271 667.807 174.146H671.059C671.118 175.236 671.552 176.104 672.36 176.748C673.18 177.381 674.259 177.697 675.595 177.697C676.825 177.697 677.809 177.451 678.548 176.959C679.298 176.455 679.673 175.787 679.673 174.955ZM706.827 170.701C706.827 173.596 706.165 175.928 704.841 177.697C703.517 179.467 701.724 180.352 699.462 180.352C697.154 180.352 695.337 179.619 694.013 178.154V187.312H690.761V160.98H693.732L693.89 163.09C695.214 161.449 697.054 160.629 699.409 160.629C701.695 160.629 703.499 161.49 704.823 163.213C706.159 164.936 706.827 167.332 706.827 170.402V170.701ZM703.575 170.332C703.575 168.188 703.118 166.494 702.204 165.252C701.29 164.01 700.036 163.389 698.443 163.389C696.474 163.389 694.997 164.262 694.013 166.008V175.096C694.986 176.83 696.474 177.697 698.478 177.697C700.036 177.697 701.273 177.082 702.187 175.852C703.112 174.609 703.575 172.77 703.575 170.332ZM718.109 180H714.857V160.98H718.109V180ZM714.593 155.936C714.593 155.408 714.752 154.963 715.068 154.6C715.396 154.236 715.877 154.055 716.509 154.055C717.142 154.055 717.623 154.236 717.951 154.6C718.279 154.963 718.443 155.408 718.443 155.936C718.443 156.463 718.279 156.902 717.951 157.254C717.623 157.605 717.142 157.781 716.509 157.781C715.877 157.781 715.396 157.605 715.068 157.254C714.752 156.902 714.593 156.463 714.593 155.936ZM736.123 163.898C735.631 163.816 735.098 163.775 734.523 163.775C732.391 163.775 730.943 164.684 730.182 166.5V180H726.93V160.98H730.094L730.146 163.178C731.213 161.479 732.725 160.629 734.682 160.629C735.314 160.629 735.795 160.711 736.123 160.875V163.898ZM753.768 180C753.58 179.625 753.428 178.957 753.311 177.996C751.799 179.566 749.995 180.352 747.897 180.352C746.022 180.352 744.481 179.824 743.274 178.77C742.079 177.703 741.481 176.355 741.481 174.727C741.481 172.746 742.231 171.211 743.731 170.121C745.243 169.02 747.364 168.469 750.094 168.469H753.258V166.975C753.258 165.838 752.918 164.936 752.239 164.268C751.559 163.588 750.557 163.248 749.233 163.248C748.073 163.248 747.1 163.541 746.315 164.127C745.53 164.713 745.137 165.422 745.137 166.254H741.868C741.868 165.305 742.202 164.391 742.87 163.512C743.549 162.621 744.463 161.918 745.612 161.402C746.772 160.887 748.043 160.629 749.426 160.629C751.618 160.629 753.334 161.18 754.577 162.281C755.819 163.371 756.463 164.877 756.51 166.799V175.553C756.51 177.299 756.733 178.688 757.178 179.719V180H753.768ZM748.371 177.521C749.391 177.521 750.358 177.258 751.272 176.73C752.186 176.203 752.848 175.518 753.258 174.674V170.771H750.709C746.725 170.771 744.733 171.938 744.733 174.27C744.733 175.289 745.073 176.086 745.752 176.66C746.432 177.234 747.305 177.521 748.371 177.521ZM769.62 156.375V160.98H773.171V163.494H769.62V175.289C769.62 176.051 769.778 176.625 770.095 177.012C770.411 177.387 770.95 177.574 771.712 177.574C772.087 177.574 772.602 177.504 773.259 177.363V180C772.403 180.234 771.571 180.352 770.762 180.352C769.309 180.352 768.214 179.912 767.475 179.033C766.737 178.154 766.368 176.906 766.368 175.289V163.494H762.905V160.98H766.368V156.375H769.62ZM779.372 170.314C779.372 168.451 779.736 166.775 780.462 165.287C781.2 163.799 782.22 162.65 783.521 161.842C784.833 161.033 786.327 160.629 788.003 160.629C790.593 160.629 792.685 161.525 794.279 163.318C795.884 165.111 796.687 167.496 796.687 170.473V170.701C796.687 172.553 796.329 174.217 795.614 175.693C794.911 177.158 793.898 178.301 792.573 179.121C791.261 179.941 789.749 180.352 788.038 180.352C785.46 180.352 783.368 179.455 781.763 177.662C780.169 175.869 779.372 173.496 779.372 170.543V170.314ZM782.642 170.701C782.642 172.811 783.128 174.504 784.101 175.781C785.085 177.059 786.398 177.697 788.038 177.697C789.691 177.697 791.003 177.053 791.976 175.764C792.948 174.463 793.435 172.646 793.435 170.314C793.435 168.229 792.937 166.541 791.941 165.252C790.956 163.951 789.644 163.301 788.003 163.301C786.398 163.301 785.103 163.939 784.118 165.217C783.134 166.494 782.642 168.322 782.642 170.701ZM807.898 180H804.646V160.98H807.898V180ZM804.382 155.936C804.382 155.408 804.541 154.963 804.857 154.6C805.185 154.236 805.666 154.055 806.298 154.055C806.931 154.055 807.412 154.236 807.74 154.6C808.068 154.963 808.232 155.408 808.232 155.936C808.232 156.463 808.068 156.902 807.74 157.254C807.412 157.605 806.931 157.781 806.298 157.781C805.666 157.781 805.185 157.605 804.857 157.254C804.541 156.902 804.382 156.463 804.382 155.936ZM825.912 163.898C825.42 163.816 824.887 163.775 824.312 163.775C822.18 163.775 820.732 164.684 819.971 166.5V180H816.719V160.98H819.883L819.936 163.178C821.002 161.479 822.514 160.629 824.471 160.629C825.104 160.629 825.584 160.711 825.912 160.875V163.898ZM840.059 180.352C837.481 180.352 835.383 179.508 833.766 177.82C832.149 176.121 831.34 173.854 831.34 171.018V170.42C831.34 168.533 831.698 166.852 832.413 165.375C833.139 163.887 834.147 162.727 835.436 161.895C836.737 161.051 838.143 160.629 839.655 160.629C842.127 160.629 844.049 161.443 845.42 163.072C846.791 164.701 847.477 167.033 847.477 170.068V171.422H834.592C834.639 173.297 835.184 174.814 836.227 175.975C837.282 177.123 838.618 177.697 840.235 177.697C841.383 177.697 842.356 177.463 843.153 176.994C843.95 176.525 844.647 175.904 845.245 175.131L847.231 176.678C845.637 179.127 843.246 180.352 840.059 180.352ZM839.655 163.301C838.342 163.301 837.241 163.781 836.35 164.742C835.459 165.691 834.909 167.027 834.698 168.75H844.225V168.504C844.131 166.852 843.686 165.574 842.889 164.672C842.092 163.758 841.014 163.301 839.655 163.301Z" fill="white"/>
<path d="M453.242 286.16H461.328V288H450.98V270.938H453.242V286.16ZM465.38 281.543C465.38 280.301 465.623 279.184 466.107 278.191C466.599 277.199 467.279 276.434 468.146 275.895C469.021 275.355 470.017 275.086 471.134 275.086C472.861 275.086 474.255 275.684 475.318 276.879C476.388 278.074 476.923 279.664 476.923 281.648V281.801C476.923 283.035 476.685 284.145 476.209 285.129C475.74 286.105 475.064 286.867 474.181 287.414C473.306 287.961 472.298 288.234 471.158 288.234C469.439 288.234 468.045 287.637 466.974 286.441C465.912 285.246 465.38 283.664 465.38 281.695V281.543ZM467.56 281.801C467.56 283.207 467.884 284.336 468.533 285.188C469.189 286.039 470.064 286.465 471.158 286.465C472.259 286.465 473.134 286.035 473.783 285.176C474.431 284.309 474.755 283.098 474.755 281.543C474.755 280.152 474.423 279.027 473.759 278.168C473.103 277.301 472.228 276.867 471.134 276.867C470.064 276.867 469.201 277.293 468.545 278.145C467.888 278.996 467.56 280.215 467.56 281.801ZM488.171 277.266C487.843 277.211 487.487 277.184 487.105 277.184C485.683 277.184 484.718 277.789 484.21 279V288H482.042V275.32H484.152L484.187 276.785C484.898 275.652 485.905 275.086 487.21 275.086C487.632 275.086 487.952 275.141 488.171 275.25V277.266ZM497.602 288.234C495.884 288.234 494.485 287.672 493.407 286.547C492.329 285.414 491.79 283.902 491.79 282.012V281.613C491.79 280.355 492.028 279.234 492.505 278.25C492.989 277.258 493.661 276.484 494.52 275.93C495.388 275.367 496.325 275.086 497.333 275.086C498.981 275.086 500.263 275.629 501.177 276.715C502.091 277.801 502.548 279.355 502.548 281.379V282.281H493.958C493.989 283.531 494.352 284.543 495.048 285.316C495.751 286.082 496.641 286.465 497.72 286.465C498.485 286.465 499.134 286.309 499.665 285.996C500.196 285.684 500.661 285.27 501.059 284.754L502.384 285.785C501.321 287.418 499.727 288.234 497.602 288.234ZM497.333 276.867C496.458 276.867 495.723 277.188 495.13 277.828C494.536 278.461 494.169 279.352 494.028 280.5H500.38V280.336C500.317 279.234 500.02 278.383 499.489 277.781C498.958 277.172 498.239 276.867 497.333 276.867ZM509.506 275.32L509.565 276.727C510.495 275.633 511.748 275.086 513.327 275.086C515.1 275.086 516.307 275.766 516.948 277.125C517.37 276.516 517.916 276.023 518.588 275.648C519.268 275.273 520.069 275.086 520.991 275.086C523.772 275.086 525.186 276.559 525.233 279.504V288H523.065V279.633C523.065 278.727 522.858 278.051 522.444 277.605C522.03 277.152 521.334 276.926 520.358 276.926C519.553 276.926 518.885 277.168 518.354 277.652C517.823 278.129 517.514 278.773 517.428 279.586V288H515.248V279.691C515.248 277.848 514.346 276.926 512.541 276.926C511.12 276.926 510.147 277.531 509.623 278.742V288H507.455V275.32H509.506ZM542.021 288H539.771V270.938H542.021V288ZM558.917 281.801C558.917 283.73 558.476 285.285 557.593 286.465C556.71 287.645 555.515 288.234 554.007 288.234C552.468 288.234 551.257 287.746 550.374 286.77V292.875H548.206V275.32H550.187L550.292 276.727C551.175 275.633 552.402 275.086 553.972 275.086C555.495 275.086 556.698 275.66 557.581 276.809C558.472 277.957 558.917 279.555 558.917 281.602V281.801ZM556.749 281.555C556.749 280.125 556.445 278.996 555.835 278.168C555.226 277.34 554.39 276.926 553.327 276.926C552.015 276.926 551.03 277.508 550.374 278.672V284.73C551.023 285.887 552.015 286.465 553.351 286.465C554.39 286.465 555.214 286.055 555.823 285.234C556.441 284.406 556.749 283.18 556.749 281.555ZM571.466 284.637C571.466 284.051 571.243 283.598 570.798 283.277C570.36 282.949 569.591 282.668 568.489 282.434C567.395 282.199 566.524 281.918 565.876 281.59C565.235 281.262 564.759 280.871 564.446 280.418C564.141 279.965 563.989 279.426 563.989 278.801C563.989 277.762 564.427 276.883 565.302 276.164C566.184 275.445 567.309 275.086 568.677 275.086C570.114 275.086 571.278 275.457 572.169 276.199C573.067 276.941 573.516 277.891 573.516 279.047H571.337C571.337 278.453 571.083 277.941 570.575 277.512C570.075 277.082 569.442 276.867 568.677 276.867C567.887 276.867 567.27 277.039 566.825 277.383C566.38 277.727 566.157 278.176 566.157 278.73C566.157 279.254 566.364 279.648 566.778 279.914C567.192 280.18 567.938 280.434 569.016 280.676C570.102 280.918 570.981 281.207 571.653 281.543C572.325 281.879 572.821 282.285 573.141 282.762C573.47 283.23 573.634 283.805 573.634 284.484C573.634 285.617 573.18 286.527 572.274 287.215C571.368 287.895 570.192 288.234 568.747 288.234C567.731 288.234 566.833 288.055 566.052 287.695C565.27 287.336 564.657 286.836 564.212 286.195C563.774 285.547 563.555 284.848 563.555 284.098H565.723C565.762 284.824 566.052 285.402 566.591 285.832C567.137 286.254 567.856 286.465 568.747 286.465C569.567 286.465 570.223 286.301 570.716 285.973C571.216 285.637 571.466 285.191 571.466 284.637ZM586.686 286.746C585.842 287.738 584.604 288.234 582.971 288.234C581.62 288.234 580.588 287.844 579.877 287.062C579.174 286.273 578.819 285.109 578.811 283.57V275.32H580.979V283.512C580.979 285.434 581.76 286.395 583.323 286.395C584.979 286.395 586.08 285.777 586.627 284.543V275.32H588.795V288H586.733L586.686 286.746ZM596.539 275.32L596.598 276.727C597.527 275.633 598.781 275.086 600.359 275.086C602.133 275.086 603.34 275.766 603.98 277.125C604.402 276.516 604.949 276.023 605.621 275.648C606.301 275.273 607.102 275.086 608.023 275.086C610.805 275.086 612.219 276.559 612.266 279.504V288H610.098V279.633C610.098 278.727 609.891 278.051 609.477 277.605C609.062 277.152 608.367 276.926 607.391 276.926C606.586 276.926 605.918 277.168 605.387 277.652C604.855 278.129 604.547 278.773 604.461 279.586V288H602.281V279.691C602.281 277.848 601.379 276.926 599.574 276.926C598.152 276.926 597.18 277.531 596.656 278.742V288H594.488V275.32H596.539ZM628.655 288H626.488V275.32H628.655V288ZM626.312 271.957C626.312 271.605 626.417 271.309 626.628 271.066C626.847 270.824 627.167 270.703 627.589 270.703C628.011 270.703 628.331 270.824 628.55 271.066C628.769 271.309 628.878 271.605 628.878 271.957C628.878 272.309 628.769 272.602 628.55 272.836C628.331 273.07 628.011 273.188 627.589 273.188C627.167 273.188 626.847 273.07 626.628 272.836C626.417 272.602 626.312 272.309 626.312 271.957ZM641.919 284.637C641.919 284.051 641.696 283.598 641.251 283.277C640.813 282.949 640.044 282.668 638.942 282.434C637.848 282.199 636.977 281.918 636.329 281.59C635.688 281.262 635.212 280.871 634.899 280.418C634.595 279.965 634.442 279.426 634.442 278.801C634.442 277.762 634.88 276.883 635.755 276.164C636.637 275.445 637.762 275.086 639.13 275.086C640.567 275.086 641.731 275.457 642.622 276.199C643.52 276.941 643.97 277.891 643.97 279.047H641.79C641.79 278.453 641.536 277.941 641.028 277.512C640.528 277.082 639.895 276.867 639.13 276.867C638.341 276.867 637.723 277.039 637.278 277.383C636.833 277.727 636.61 278.176 636.61 278.73C636.61 279.254 636.817 279.648 637.231 279.914C637.645 280.18 638.391 280.434 639.47 280.676C640.555 280.918 641.434 281.207 642.106 281.543C642.778 281.879 643.274 282.285 643.595 282.762C643.923 283.23 644.087 283.805 644.087 284.484C644.087 285.617 643.634 286.527 642.727 287.215C641.821 287.895 640.645 288.234 639.2 288.234C638.184 288.234 637.286 288.055 636.505 287.695C635.723 287.336 635.11 286.836 634.665 286.195C634.227 285.547 634.009 284.848 634.009 284.098H636.177C636.216 284.824 636.505 285.402 637.044 285.832C637.591 286.254 638.309 286.465 639.2 286.465C640.02 286.465 640.677 286.301 641.169 285.973C641.669 285.637 641.919 285.191 641.919 284.637ZM665.047 284.637C665.047 284.051 664.824 283.598 664.379 283.277C663.941 282.949 663.172 282.668 662.07 282.434C660.977 282.199 660.105 281.918 659.457 281.59C658.816 281.262 658.34 280.871 658.027 280.418C657.723 279.965 657.57 279.426 657.57 278.801C657.57 277.762 658.008 276.883 658.883 276.164C659.766 275.445 660.891 275.086 662.258 275.086C663.695 275.086 664.859 275.457 665.75 276.199C666.648 276.941 667.098 277.891 667.098 279.047H664.918C664.918 278.453 664.664 277.941 664.156 277.512C663.656 277.082 663.023 276.867 662.258 276.867C661.469 276.867 660.852 277.039 660.406 277.383C659.961 277.727 659.738 278.176 659.738 278.73C659.738 279.254 659.945 279.648 660.359 279.914C660.773 280.18 661.52 280.434 662.598 280.676C663.684 280.918 664.562 281.207 665.234 281.543C665.906 281.879 666.402 282.285 666.723 282.762C667.051 283.23 667.215 283.805 667.215 284.484C667.215 285.617 666.762 286.527 665.855 287.215C664.949 287.895 663.773 288.234 662.328 288.234C661.312 288.234 660.414 288.055 659.633 287.695C658.852 287.336 658.238 286.836 657.793 286.195C657.355 285.547 657.137 284.848 657.137 284.098H659.305C659.344 284.824 659.633 285.402 660.172 285.832C660.719 286.254 661.438 286.465 662.328 286.465C663.148 286.465 663.805 286.301 664.297 285.973C664.797 285.637 665.047 285.191 665.047 284.637ZM674.795 288H672.627V275.32H674.795V288ZM672.451 271.957C672.451 271.605 672.556 271.309 672.767 271.066C672.986 270.824 673.306 270.703 673.728 270.703C674.15 270.703 674.47 270.824 674.689 271.066C674.908 271.309 675.017 271.605 675.017 271.957C675.017 272.309 674.908 272.602 674.689 272.836C674.47 273.07 674.15 273.188 673.728 273.188C673.306 273.188 672.986 273.07 672.767 272.836C672.556 272.602 672.451 272.309 672.451 271.957ZM682.714 275.32L682.773 276.727C683.702 275.633 684.956 275.086 686.534 275.086C688.308 275.086 689.515 275.766 690.155 277.125C690.577 276.516 691.124 276.023 691.796 275.648C692.476 275.273 693.277 275.086 694.198 275.086C696.98 275.086 698.394 276.559 698.441 279.504V288H696.273V279.633C696.273 278.727 696.066 278.051 695.652 277.605C695.238 277.152 694.542 276.926 693.566 276.926C692.761 276.926 692.093 277.168 691.562 277.652C691.03 278.129 690.722 278.773 690.636 279.586V288H688.456V279.691C688.456 277.848 687.554 276.926 685.749 276.926C684.327 276.926 683.355 277.531 682.831 278.742V288H680.663V275.32H682.714ZM714.833 281.801C714.833 283.73 714.391 285.285 713.509 286.465C712.626 287.645 711.43 288.234 709.923 288.234C708.384 288.234 707.173 287.746 706.29 286.77V292.875H704.122V275.32H706.102L706.208 276.727C707.091 275.633 708.317 275.086 709.887 275.086C711.411 275.086 712.614 275.66 713.497 276.809C714.387 277.957 714.833 279.555 714.833 281.602V281.801ZM712.665 281.555C712.665 280.125 712.36 278.996 711.751 278.168C711.141 277.34 710.305 276.926 709.243 276.926C707.93 276.926 706.946 277.508 706.29 278.672V284.73C706.938 285.887 707.93 286.465 709.266 286.465C710.305 286.465 711.13 286.055 711.739 285.234C712.356 284.406 712.665 283.18 712.665 281.555ZM722.354 288H720.186V270H722.354V288ZM732.383 284.824L735.336 275.32H737.656L732.559 289.957C731.77 292.066 730.516 293.121 728.797 293.121L728.387 293.086L727.578 292.934V291.176L728.164 291.223C728.898 291.223 729.469 291.074 729.875 290.777C730.289 290.48 730.629 289.938 730.895 289.148L731.375 287.859L726.852 275.32H729.219L732.383 284.824ZM749.827 281.555C749.827 279.609 750.288 278.047 751.21 276.867C752.132 275.68 753.339 275.086 754.831 275.086C756.316 275.086 757.491 275.594 758.359 276.609V270H760.527V288H758.534L758.429 286.641C757.562 287.703 756.355 288.234 754.808 288.234C753.339 288.234 752.14 287.633 751.21 286.43C750.288 285.227 749.827 283.656 749.827 281.719V281.555ZM751.995 281.801C751.995 283.238 752.292 284.363 752.886 285.176C753.48 285.988 754.3 286.395 755.347 286.395C756.722 286.395 757.726 285.777 758.359 284.543V278.719C757.71 277.523 756.714 276.926 755.37 276.926C754.308 276.926 753.48 277.336 752.886 278.156C752.292 278.977 751.995 280.191 751.995 281.801ZM774.13 286.746C773.286 287.738 772.048 288.234 770.415 288.234C769.063 288.234 768.032 287.844 767.321 287.062C766.618 286.273 766.263 285.109 766.255 283.57V275.32H768.423V283.512C768.423 285.434 769.204 286.395 770.766 286.395C772.423 286.395 773.524 285.777 774.071 284.543V275.32H776.239V288H774.177L774.13 286.746ZM783.983 275.32L784.041 276.727C784.971 275.633 786.225 275.086 787.803 275.086C789.577 275.086 790.784 275.766 791.424 277.125C791.846 276.516 792.393 276.023 793.065 275.648C793.745 275.273 794.545 275.086 795.467 275.086C798.248 275.086 799.663 276.559 799.709 279.504V288H797.541V279.633C797.541 278.727 797.334 278.051 796.92 277.605C796.506 277.152 795.811 276.926 794.834 276.926C794.03 276.926 793.362 277.168 792.83 277.652C792.299 278.129 791.991 278.773 791.905 279.586V288H789.725V279.691C789.725 277.848 788.823 276.926 787.018 276.926C785.596 276.926 784.623 277.531 784.1 278.742V288H781.932V275.32H783.983ZM807.43 275.32L807.488 276.727C808.418 275.633 809.672 275.086 811.25 275.086C813.023 275.086 814.23 275.766 814.871 277.125C815.293 276.516 815.84 276.023 816.512 275.648C817.191 275.273 817.992 275.086 818.914 275.086C821.695 275.086 823.109 276.559 823.156 279.504V288H820.988V279.633C820.988 278.727 820.781 278.051 820.367 277.605C819.953 277.152 819.258 276.926 818.281 276.926C817.477 276.926 816.809 277.168 816.277 277.652C815.746 278.129 815.438 278.773 815.352 279.586V288H813.172V279.691C813.172 277.848 812.27 276.926 810.465 276.926C809.043 276.926 808.07 277.531 807.547 278.742V288H805.379V275.32H807.43ZM832.986 284.824L835.939 275.32H838.259L833.162 289.957C832.373 292.066 831.119 293.121 829.4 293.121L828.99 293.086L828.181 292.934V291.176L828.767 291.223C829.502 291.223 830.072 291.074 830.478 290.777C830.892 290.48 831.232 289.938 831.498 289.148L831.978 287.859L827.455 275.32H829.822L832.986 284.824ZM853.899 272.25V275.32H856.266V276.996H853.899V284.859C853.899 285.367 854.005 285.75 854.216 286.008C854.427 286.258 854.786 286.383 855.294 286.383C855.544 286.383 855.888 286.336 856.325 286.242V288C855.755 288.156 855.2 288.234 854.661 288.234C853.692 288.234 852.962 287.941 852.47 287.355C851.977 286.77 851.731 285.938 851.731 284.859V276.996H849.423V275.32H851.731V272.25H853.899ZM866.471 288.234C864.752 288.234 863.354 287.672 862.276 286.547C861.198 285.414 860.659 283.902 860.659 282.012V281.613C860.659 280.355 860.897 279.234 861.373 278.25C861.858 277.258 862.53 276.484 863.389 275.93C864.256 275.367 865.194 275.086 866.202 275.086C867.85 275.086 869.131 275.629 870.045 276.715C870.959 277.801 871.416 279.355 871.416 281.379V282.281H862.827C862.858 283.531 863.221 284.543 863.916 285.316C864.62 286.082 865.51 286.465 866.588 286.465C867.354 286.465 868.002 286.309 868.534 285.996C869.065 285.684 869.53 285.27 869.928 284.754L871.252 285.785C870.19 287.418 868.596 288.234 866.471 288.234ZM866.202 276.867C865.327 276.867 864.592 277.188 863.998 277.828C863.405 278.461 863.038 279.352 862.897 280.5H869.248V280.336C869.186 279.234 868.889 278.383 868.358 277.781C867.827 277.172 867.108 276.867 866.202 276.867ZM880.59 279.949L883.402 275.32H885.934L881.785 281.59L886.062 288H883.555L880.625 283.254L877.695 288H875.176L879.453 281.59L875.305 275.32H877.812L880.59 279.949ZM893.584 272.25V275.32H895.951V276.996H893.584V284.859C893.584 285.367 893.689 285.75 893.9 286.008C894.111 286.258 894.47 286.383 894.978 286.383C895.228 286.383 895.572 286.336 896.009 286.242V288C895.439 288.156 894.884 288.234 894.345 288.234C893.377 288.234 892.646 287.941 892.154 287.355C891.662 286.77 891.416 285.938 891.416 284.859V276.996H889.107V275.32H891.416V272.25H893.584ZM908.673 281.543C908.673 280.301 908.915 279.184 909.399 278.191C909.891 277.199 910.571 276.434 911.438 275.895C912.313 275.355 913.309 275.086 914.427 275.086C916.153 275.086 917.548 275.684 918.61 276.879C919.68 278.074 920.216 279.664 920.216 281.648V281.801C920.216 283.035 919.977 284.145 919.501 285.129C919.032 286.105 918.356 286.867 917.473 287.414C916.598 287.961 915.591 288.234 914.45 288.234C912.731 288.234 911.337 287.637 910.266 286.441C909.204 285.246 908.673 283.664 908.673 281.695V281.543ZM910.852 281.801C910.852 283.207 911.177 284.336 911.825 285.188C912.481 286.039 913.356 286.465 914.45 286.465C915.552 286.465 916.427 286.035 917.075 285.176C917.723 284.309 918.048 283.098 918.048 281.543C918.048 280.152 917.716 279.027 917.052 278.168C916.395 277.301 915.52 276.867 914.427 276.867C913.356 276.867 912.493 277.293 911.837 278.145C911.18 278.996 910.852 280.215 910.852 281.801ZM926.401 288V276.996H924.397V275.32H926.401V274.02C926.401 272.66 926.764 271.609 927.491 270.867C928.217 270.125 929.245 269.754 930.573 269.754C931.073 269.754 931.569 269.82 932.061 269.953L931.944 271.711C931.577 271.641 931.186 271.605 930.772 271.605C930.069 271.605 929.526 271.812 929.143 272.227C928.76 272.633 928.569 273.219 928.569 273.984V275.32H931.276V276.996H928.569V288H926.401ZM453.582 322.25V325.32H455.949V326.996H453.582V334.859C453.582 335.367 453.688 335.75 453.898 336.008C454.109 336.258 454.469 336.383 454.977 336.383C455.227 336.383 455.57 336.336 456.008 336.242V338C455.438 338.156 454.883 338.234 454.344 338.234C453.375 338.234 452.645 337.941 452.152 337.355C451.66 336.77 451.414 335.938 451.414 334.859V326.996H449.105V325.32H451.414V322.25H453.582ZM463.06 326.855C464.021 325.676 465.271 325.086 466.81 325.086C469.49 325.086 470.841 326.598 470.865 329.621V338H468.697V329.609C468.689 328.695 468.478 328.02 468.064 327.582C467.658 327.145 467.021 326.926 466.154 326.926C465.451 326.926 464.834 327.113 464.302 327.488C463.771 327.863 463.357 328.355 463.06 328.965V338H460.892V320H463.06V326.855ZM481.773 338.234C480.054 338.234 478.655 337.672 477.577 336.547C476.499 335.414 475.96 333.902 475.96 332.012V331.613C475.96 330.355 476.198 329.234 476.675 328.25C477.159 327.258 477.831 326.484 478.691 325.93C479.558 325.367 480.495 325.086 481.503 325.086C483.152 325.086 484.433 325.629 485.347 326.715C486.261 327.801 486.718 329.355 486.718 331.379V332.281H478.128C478.159 333.531 478.523 334.543 479.218 335.316C479.921 336.082 480.812 336.465 481.89 336.465C482.655 336.465 483.304 336.309 483.835 335.996C484.366 335.684 484.831 335.27 485.23 334.754L486.554 335.785C485.491 337.418 483.898 338.234 481.773 338.234ZM481.503 326.867C480.628 326.867 479.894 327.188 479.3 327.828C478.706 328.461 478.339 329.352 478.198 330.5H484.55V330.336C484.487 329.234 484.191 328.383 483.659 327.781C483.128 327.172 482.409 326.867 481.503 326.867ZM510.702 331.801C510.702 333.73 510.26 335.285 509.377 336.465C508.495 337.645 507.299 338.234 505.791 338.234C504.252 338.234 503.041 337.746 502.159 336.77V342.875H499.991V325.32H501.971L502.077 326.727C502.959 325.633 504.186 325.086 505.756 325.086C507.28 325.086 508.483 325.66 509.366 326.809C510.256 327.957 510.702 329.555 510.702 331.602V331.801ZM508.534 331.555C508.534 330.125 508.229 328.996 507.62 328.168C507.01 327.34 506.174 326.926 505.112 326.926C503.799 326.926 502.815 327.508 502.159 328.672V334.73C502.807 335.887 503.799 336.465 505.135 336.465C506.174 336.465 506.998 336.055 507.608 335.234C508.225 334.406 508.534 333.18 508.534 331.555ZM521.996 327.266C521.668 327.211 521.312 327.184 520.93 327.184C519.508 327.184 518.543 327.789 518.035 329V338H515.867V325.32H517.977L518.012 326.785C518.723 325.652 519.73 325.086 521.035 325.086C521.457 325.086 521.777 325.141 521.996 325.25V327.266ZM528.755 338H526.588V325.32H528.755V338ZM526.412 321.957C526.412 321.605 526.517 321.309 526.728 321.066C526.947 320.824 527.267 320.703 527.689 320.703C528.111 320.703 528.431 320.824 528.65 321.066C528.869 321.309 528.978 321.605 528.978 321.957C528.978 322.309 528.869 322.602 528.65 322.836C528.431 323.07 528.111 323.188 527.689 323.188C527.267 323.188 526.947 323.07 526.728 322.836C526.517 322.602 526.412 322.309 526.412 321.957ZM536.687 325.32L536.757 326.914C537.726 325.695 538.991 325.086 540.554 325.086C543.234 325.086 544.585 326.598 544.609 329.621V338H542.441V329.609C542.433 328.695 542.222 328.02 541.808 327.582C541.402 327.145 540.765 326.926 539.898 326.926C539.195 326.926 538.577 327.113 538.046 327.488C537.515 327.863 537.101 328.355 536.804 328.965V338H534.636V325.32H536.687ZM553.22 322.25V325.32H555.587V326.996H553.22V334.859C553.22 335.367 553.325 335.75 553.536 336.008C553.747 336.258 554.106 336.383 554.614 336.383C554.864 336.383 555.208 336.336 555.645 336.242V338C555.075 338.156 554.52 338.234 553.981 338.234C553.012 338.234 552.282 337.941 551.79 337.355C551.298 336.77 551.052 335.938 551.052 334.859V326.996H548.743V325.32H551.052V322.25H553.22ZM562.885 338H560.717V325.32H562.885V338ZM560.541 321.957C560.541 321.605 560.647 321.309 560.858 321.066C561.077 320.824 561.397 320.703 561.819 320.703C562.241 320.703 562.561 320.824 562.78 321.066C562.998 321.309 563.108 321.605 563.108 321.957C563.108 322.309 562.998 322.602 562.78 322.836C562.561 323.07 562.241 323.188 561.819 323.188C561.397 323.188 561.077 323.07 560.858 322.836C560.647 322.602 560.541 322.309 560.541 321.957ZM570.816 325.32L570.887 326.914C571.855 325.695 573.121 325.086 574.684 325.086C577.363 325.086 578.715 326.598 578.738 329.621V338H576.57V329.609C576.562 328.695 576.352 328.02 575.938 327.582C575.531 327.145 574.895 326.926 574.027 326.926C573.324 326.926 572.707 327.113 572.176 327.488C571.645 327.863 571.23 328.355 570.934 328.965V338H568.766V325.32H570.816ZM583.892 331.555C583.892 329.578 584.349 328.008 585.263 326.844C586.177 325.672 587.388 325.086 588.896 325.086C590.443 325.086 591.65 325.633 592.517 326.727L592.623 325.32H594.603V337.695C594.603 339.336 594.115 340.629 593.138 341.574C592.17 342.52 590.865 342.992 589.224 342.992C588.31 342.992 587.416 342.797 586.541 342.406C585.666 342.016 584.998 341.48 584.537 340.801L585.662 339.5C586.591 340.648 587.728 341.223 589.072 341.223C590.127 341.223 590.947 340.926 591.533 340.332C592.127 339.738 592.423 338.902 592.423 337.824V336.734C591.556 337.734 590.373 338.234 588.873 338.234C587.388 338.234 586.185 337.637 585.263 336.441C584.349 335.246 583.892 333.617 583.892 331.555ZM586.072 331.801C586.072 333.23 586.365 334.355 586.951 335.176C587.537 335.988 588.357 336.395 589.412 336.395C590.779 336.395 591.783 335.773 592.423 334.531V328.742C591.759 327.531 590.763 326.926 589.435 326.926C588.38 326.926 587.556 327.336 586.962 328.156C586.369 328.977 586.072 330.191 586.072 331.801ZM616.466 338C616.341 337.75 616.239 337.305 616.161 336.664C615.153 337.711 613.95 338.234 612.552 338.234C611.302 338.234 610.274 337.883 609.47 337.18C608.673 336.469 608.274 335.57 608.274 334.484C608.274 333.164 608.774 332.141 609.774 331.414C610.782 330.68 612.196 330.312 614.016 330.312H616.126V329.316C616.126 328.559 615.899 327.957 615.446 327.512C614.993 327.059 614.325 326.832 613.442 326.832C612.669 326.832 612.02 327.027 611.497 327.418C610.973 327.809 610.712 328.281 610.712 328.836H608.532C608.532 328.203 608.755 327.594 609.2 327.008C609.653 326.414 610.262 325.945 611.028 325.602C611.802 325.258 612.649 325.086 613.571 325.086C615.032 325.086 616.177 325.453 617.005 326.188C617.833 326.914 618.262 327.918 618.294 329.199V335.035C618.294 336.199 618.442 337.125 618.739 337.812V338H616.466ZM612.868 336.348C613.548 336.348 614.192 336.172 614.802 335.82C615.411 335.469 615.852 335.012 616.126 334.449V331.848H614.427C611.77 331.848 610.442 332.625 610.442 334.18C610.442 334.859 610.669 335.391 611.122 335.773C611.575 336.156 612.157 336.348 612.868 336.348ZM626.143 325.32L626.213 326.914C627.182 325.695 628.448 325.086 630.01 325.086C632.69 325.086 634.041 326.598 634.065 329.621V338H631.897V329.609C631.889 328.695 631.678 328.02 631.264 327.582C630.858 327.145 630.221 326.926 629.354 326.926C628.651 326.926 628.034 327.113 627.502 327.488C626.971 327.863 626.557 328.355 626.26 328.965V338H624.092V325.32H626.143ZM639.207 331.555C639.207 329.609 639.668 328.047 640.59 326.867C641.512 325.68 642.719 325.086 644.211 325.086C645.695 325.086 646.871 325.594 647.738 326.609V320H649.906V338H647.914L647.809 336.641C646.941 337.703 645.734 338.234 644.188 338.234C642.719 338.234 641.52 337.633 640.59 336.43C639.668 335.227 639.207 333.656 639.207 331.719V331.555ZM641.375 331.801C641.375 333.238 641.672 334.363 642.266 335.176C642.859 335.988 643.68 336.395 644.727 336.395C646.102 336.395 647.105 335.777 647.738 334.543V328.719C647.09 327.523 646.094 326.926 644.75 326.926C643.688 326.926 642.859 327.336 642.266 328.156C641.672 328.977 641.375 330.191 641.375 331.801ZM666.976 322.25V325.32H669.343V326.996H666.976V334.859C666.976 335.367 667.081 335.75 667.292 336.008C667.503 336.258 667.863 336.383 668.37 336.383C668.62 336.383 668.964 336.336 669.402 336.242V338C668.831 338.156 668.277 338.234 667.738 338.234C666.769 338.234 666.038 337.941 665.546 337.355C665.054 336.77 664.808 335.938 664.808 334.859V326.996H662.499V325.32H664.808V322.25H666.976ZM678.434 334.824L681.387 325.32H683.708L678.61 339.957C677.821 342.066 676.567 343.121 674.848 343.121L674.438 343.086L673.63 342.934V341.176L674.216 341.223C674.95 341.223 675.52 341.074 675.927 340.777C676.341 340.48 676.68 339.938 676.946 339.148L677.427 337.859L672.903 325.32H675.27L678.434 334.824ZM698.764 331.801C698.764 333.73 698.323 335.285 697.44 336.465C696.557 337.645 695.362 338.234 693.854 338.234C692.315 338.234 691.104 337.746 690.221 336.77V342.875H688.053V325.32H690.034L690.139 326.727C691.022 325.633 692.248 325.086 693.819 325.086C695.342 325.086 696.545 325.66 697.428 326.809C698.319 327.957 698.764 329.555 698.764 331.602V331.801ZM696.596 331.555C696.596 330.125 696.291 328.996 695.682 328.168C695.073 327.34 694.237 326.926 693.174 326.926C691.862 326.926 690.877 327.508 690.221 328.672V334.73C690.87 335.887 691.862 336.465 693.198 336.465C694.237 336.465 695.061 336.055 695.67 335.234C696.288 334.406 696.596 333.18 696.596 331.555ZM709.191 338.234C707.473 338.234 706.074 337.672 704.996 336.547C703.918 335.414 703.379 333.902 703.379 332.012V331.613C703.379 330.355 703.617 329.234 704.094 328.25C704.578 327.258 705.25 326.484 706.109 325.93C706.977 325.367 707.914 325.086 708.922 325.086C710.57 325.086 711.852 325.629 712.766 326.715C713.68 327.801 714.137 329.355 714.137 331.379V332.281H705.547C705.578 333.531 705.941 334.543 706.637 335.316C707.34 336.082 708.23 336.465 709.309 336.465C710.074 336.465 710.723 336.309 711.254 335.996C711.785 335.684 712.25 335.27 712.648 334.754L713.973 335.785C712.91 337.418 711.316 338.234 709.191 338.234ZM708.922 326.867C708.047 326.867 707.312 327.188 706.719 327.828C706.125 328.461 705.758 329.352 705.617 330.5H711.969V330.336C711.906 329.234 711.609 328.383 711.078 327.781C710.547 327.172 709.828 326.867 708.922 326.867ZM726.439 334.637C726.439 334.051 726.216 333.598 725.771 333.277C725.334 332.949 724.564 332.668 723.462 332.434C722.369 332.199 721.498 331.918 720.849 331.59C720.209 331.262 719.732 330.871 719.42 330.418C719.115 329.965 718.962 329.426 718.962 328.801C718.962 327.762 719.4 326.883 720.275 326.164C721.158 325.445 722.283 325.086 723.65 325.086C725.087 325.086 726.252 325.457 727.142 326.199C728.041 326.941 728.49 327.891 728.49 329.047H726.31C726.31 328.453 726.056 327.941 725.548 327.512C725.048 327.082 724.416 326.867 723.65 326.867C722.861 326.867 722.244 327.039 721.798 327.383C721.353 327.727 721.13 328.176 721.13 328.73C721.13 329.254 721.337 329.648 721.752 329.914C722.166 330.18 722.912 330.434 723.99 330.676C725.076 330.918 725.955 331.207 726.627 331.543C727.298 331.879 727.795 332.285 728.115 332.762C728.443 333.23 728.607 333.805 728.607 334.484C728.607 335.617 728.154 336.527 727.248 337.215C726.341 337.895 725.166 338.234 723.72 338.234C722.705 338.234 721.806 338.055 721.025 337.695C720.244 337.336 719.63 336.836 719.185 336.195C718.748 335.547 718.529 334.848 718.529 334.098H720.697C720.736 334.824 721.025 335.402 721.564 335.832C722.111 336.254 722.83 336.465 723.72 336.465C724.541 336.465 725.197 336.301 725.689 335.973C726.189 335.637 726.439 335.191 726.439 334.637ZM739.093 338.234C737.374 338.234 735.976 337.672 734.898 336.547C733.82 335.414 733.28 333.902 733.28 332.012V331.613C733.28 330.355 733.519 329.234 733.995 328.25C734.48 327.258 735.152 326.484 736.011 325.93C736.878 325.367 737.816 325.086 738.823 325.086C740.472 325.086 741.753 325.629 742.667 326.715C743.581 327.801 744.038 329.355 744.038 331.379V332.281H735.448C735.48 333.531 735.843 334.543 736.538 335.316C737.241 336.082 738.132 336.465 739.21 336.465C739.976 336.465 740.624 336.309 741.155 335.996C741.687 335.684 742.152 335.27 742.55 334.754L743.874 335.785C742.812 337.418 741.218 338.234 739.093 338.234ZM738.823 326.867C737.948 326.867 737.214 327.188 736.62 327.828C736.027 328.461 735.659 329.352 735.519 330.5H741.87V330.336C741.808 329.234 741.511 328.383 740.98 327.781C740.448 327.172 739.73 326.867 738.823 326.867ZM751.899 322.25V325.32H754.266V326.996H751.899V334.859C751.899 335.367 752.005 335.75 752.216 336.008C752.427 336.258 752.786 336.383 753.294 336.383C753.544 336.383 753.888 336.336 754.325 336.242V338C753.755 338.156 753.2 338.234 752.661 338.234C751.692 338.234 750.962 337.941 750.47 337.355C749.977 336.77 749.731 335.938 749.731 334.859V326.996H747.423V325.32H749.731V322.25H751.899ZM762.151 322.25V325.32H764.518V326.996H762.151V334.859C762.151 335.367 762.256 335.75 762.467 336.008C762.678 336.258 763.038 336.383 763.545 336.383C763.795 336.383 764.139 336.336 764.577 336.242V338C764.006 338.156 763.452 338.234 762.913 338.234C761.944 338.234 761.213 337.941 760.721 337.355C760.229 336.77 759.983 335.938 759.983 334.859V326.996H757.674V325.32H759.983V322.25H762.151ZM771.816 338H769.648V325.32H771.816V338ZM769.473 321.957C769.473 321.605 769.578 321.309 769.789 321.066C770.008 320.824 770.328 320.703 770.75 320.703C771.172 320.703 771.492 320.824 771.711 321.066C771.93 321.309 772.039 321.605 772.039 321.957C772.039 322.309 771.93 322.602 771.711 322.836C771.492 323.07 771.172 323.188 770.75 323.188C770.328 323.188 770.008 323.07 769.789 322.836C769.578 322.602 769.473 322.309 769.473 321.957ZM779.748 325.32L779.818 326.914C780.787 325.695 782.052 325.086 783.615 325.086C786.295 325.086 787.646 326.598 787.67 329.621V338H785.502V329.609C785.494 328.695 785.283 328.02 784.869 327.582C784.462 327.145 783.826 326.926 782.959 326.926C782.255 326.926 781.638 327.113 781.107 327.488C780.576 327.863 780.162 328.355 779.865 328.965V338H777.697V325.32H779.748ZM792.823 331.555C792.823 329.578 793.28 328.008 794.195 326.844C795.109 325.672 796.32 325.086 797.827 325.086C799.374 325.086 800.581 325.633 801.448 326.727L801.554 325.32H803.534V337.695C803.534 339.336 803.046 340.629 802.07 341.574C801.101 342.52 799.796 342.992 798.155 342.992C797.241 342.992 796.347 342.797 795.472 342.406C794.597 342.016 793.929 341.48 793.468 340.801L794.593 339.5C795.523 340.648 796.659 341.223 798.003 341.223C799.058 341.223 799.878 340.926 800.464 340.332C801.058 339.738 801.355 338.902 801.355 337.824V336.734C800.487 337.734 799.304 338.234 797.804 338.234C796.32 338.234 795.116 337.637 794.195 336.441C793.28 335.246 792.823 333.617 792.823 331.555ZM795.003 331.801C795.003 333.23 795.296 334.355 795.882 335.176C796.468 335.988 797.288 336.395 798.343 336.395C799.71 336.395 800.714 335.773 801.355 334.531V328.742C800.691 327.531 799.695 326.926 798.366 326.926C797.312 326.926 796.487 327.336 795.894 328.156C795.3 328.977 795.003 330.191 795.003 331.801ZM819.924 338H817.756V325.32H819.924V338ZM817.58 321.957C817.58 321.605 817.686 321.309 817.897 321.066C818.116 320.824 818.436 320.703 818.858 320.703C819.28 320.703 819.6 320.824 819.819 321.066C820.038 321.309 820.147 321.605 820.147 321.957C820.147 322.309 820.038 322.602 819.819 322.836C819.6 323.07 819.28 323.188 818.858 323.188C818.436 323.188 818.116 323.07 817.897 322.836C817.686 322.602 817.58 322.309 817.58 321.957ZM827.855 325.32L827.926 326.914C828.895 325.695 830.16 325.086 831.723 325.086C834.402 325.086 835.754 326.598 835.777 329.621V338H833.609V329.609C833.602 328.695 833.391 328.02 832.977 327.582C832.57 327.145 831.934 326.926 831.066 326.926C830.363 326.926 829.746 327.113 829.215 327.488C828.684 327.863 828.27 328.355 827.973 328.965V338H825.805V325.32H827.855ZM840.92 331.555C840.92 329.609 841.38 328.047 842.302 326.867C843.224 325.68 844.431 325.086 845.923 325.086C847.408 325.086 848.584 325.594 849.451 326.609V320H851.619V338H849.627L849.521 336.641C848.654 337.703 847.447 338.234 845.9 338.234C844.431 338.234 843.232 337.633 842.302 336.43C841.38 335.227 840.92 333.656 840.92 331.719V331.555ZM843.087 331.801C843.087 333.238 843.384 334.363 843.978 335.176C844.572 335.988 845.392 336.395 846.439 336.395C847.814 336.395 848.818 335.777 849.451 334.543V328.719C848.802 327.523 847.806 326.926 846.462 326.926C845.4 326.926 844.572 327.336 843.978 328.156C843.384 328.977 843.087 330.191 843.087 331.801ZM865.222 336.746C864.378 337.738 863.14 338.234 861.507 338.234C860.155 338.234 859.124 337.844 858.413 337.062C857.71 336.273 857.355 335.109 857.347 333.57V325.32H859.515V333.512C859.515 335.434 860.296 336.395 861.859 336.395C863.515 336.395 864.616 335.777 865.163 334.543V325.32H867.331V338H865.269L865.222 336.746ZM880.419 334.637C880.419 334.051 880.196 333.598 879.751 333.277C879.313 332.949 878.544 332.668 877.442 332.434C876.348 332.199 875.477 331.918 874.829 331.59C874.188 331.262 873.712 330.871 873.399 330.418C873.095 329.965 872.942 329.426 872.942 328.801C872.942 327.762 873.38 326.883 874.255 326.164C875.138 325.445 876.263 325.086 877.63 325.086C879.067 325.086 880.231 325.457 881.122 326.199C882.02 326.941 882.47 327.891 882.47 329.047H880.29C880.29 328.453 880.036 327.941 879.528 327.512C879.028 327.082 878.395 326.867 877.63 326.867C876.841 326.867 876.223 327.039 875.778 327.383C875.333 327.727 875.11 328.176 875.11 328.73C875.11 329.254 875.317 329.648 875.731 329.914C876.145 330.18 876.891 330.434 877.97 330.676C879.055 330.918 879.934 331.207 880.606 331.543C881.278 331.879 881.774 332.285 882.095 332.762C882.423 333.23 882.587 333.805 882.587 334.484C882.587 335.617 882.134 336.527 881.227 337.215C880.321 337.895 879.145 338.234 877.7 338.234C876.684 338.234 875.786 338.055 875.005 337.695C874.223 337.336 873.61 336.836 873.165 336.195C872.727 335.547 872.509 334.848 872.509 334.098H874.677C874.716 334.824 875.005 335.402 875.544 335.832C876.091 336.254 876.809 336.465 877.7 336.465C878.52 336.465 879.177 336.301 879.669 335.973C880.169 335.637 880.419 335.191 880.419 334.637ZM890.752 322.25V325.32H893.12V326.996H890.752V334.859C890.752 335.367 890.858 335.75 891.069 336.008C891.28 336.258 891.639 336.383 892.147 336.383C892.397 336.383 892.741 336.336 893.178 336.242V338C892.608 338.156 892.053 338.234 891.514 338.234C890.545 338.234 889.815 337.941 889.323 337.355C888.83 336.77 888.584 335.938 888.584 334.859V326.996H886.276V325.32H888.584V322.25H890.752ZM904.191 327.266C903.863 327.211 903.508 327.184 903.125 327.184C901.703 327.184 900.738 327.789 900.23 329V338H898.062V325.32H900.172L900.207 326.785C900.918 325.652 901.926 325.086 903.23 325.086C903.652 325.086 903.973 325.141 904.191 325.25V327.266ZM912.955 334.824L915.908 325.32H918.228L913.13 339.957C912.341 342.066 911.087 343.121 909.369 343.121L908.959 343.086L908.15 342.934V341.176L908.736 341.223C909.47 341.223 910.041 341.074 910.447 340.777C910.861 340.48 911.201 339.938 911.466 339.148L911.947 337.859L907.423 325.32H909.791L912.955 334.824ZM921.355 336.863C921.355 336.488 921.464 336.176 921.683 335.926C921.909 335.676 922.245 335.551 922.691 335.551C923.136 335.551 923.472 335.676 923.698 335.926C923.933 336.176 924.05 336.488 924.05 336.863C924.05 337.223 923.933 337.523 923.698 337.766C923.472 338.008 923.136 338.129 922.691 338.129C922.245 338.129 921.909 338.008 921.683 337.766C921.464 337.523 921.355 337.223 921.355 336.863ZM453.242 386.16H461.328V388H450.98V370.938H453.242V386.16ZM465.38 381.543C465.38 380.301 465.623 379.184 466.107 378.191C466.599 377.199 467.279 376.434 468.146 375.895C469.021 375.355 470.017 375.086 471.134 375.086C472.861 375.086 474.255 375.684 475.318 376.879C476.388 378.074 476.923 379.664 476.923 381.648V381.801C476.923 383.035 476.685 384.145 476.209 385.129C475.74 386.105 475.064 386.867 474.181 387.414C473.306 387.961 472.298 388.234 471.158 388.234C469.439 388.234 468.045 387.637 466.974 386.441C465.912 385.246 465.38 383.664 465.38 381.695V381.543ZM467.56 381.801C467.56 383.207 467.884 384.336 468.533 385.188C469.189 386.039 470.064 386.465 471.158 386.465C472.259 386.465 473.134 386.035 473.783 385.176C474.431 384.309 474.755 383.098 474.755 381.543C474.755 380.152 474.423 379.027 473.759 378.168C473.103 377.301 472.228 376.867 471.134 376.867C470.064 376.867 469.201 377.293 468.545 378.145C467.888 378.996 467.56 380.215 467.56 381.801ZM488.171 377.266C487.843 377.211 487.487 377.184 487.105 377.184C485.683 377.184 484.718 377.789 484.21 379V388H482.042V375.32H484.152L484.187 376.785C484.898 375.652 485.905 375.086 487.21 375.086C487.632 375.086 487.952 375.141 488.171 375.25V377.266ZM497.602 388.234C495.884 388.234 494.485 387.672 493.407 386.547C492.329 385.414 491.79 383.902 491.79 382.012V381.613C491.79 380.355 492.028 379.234 492.505 378.25C492.989 377.258 493.661 376.484 494.52 375.93C495.388 375.367 496.325 375.086 497.333 375.086C498.981 375.086 500.263 375.629 501.177 376.715C502.091 377.801 502.548 379.355 502.548 381.379V382.281H493.958C493.989 383.531 494.352 384.543 495.048 385.316C495.751 386.082 496.641 386.465 497.72 386.465C498.485 386.465 499.134 386.309 499.665 385.996C500.196 385.684 500.661 385.27 501.059 384.754L502.384 385.785C501.321 387.418 499.727 388.234 497.602 388.234ZM497.333 376.867C496.458 376.867 495.723 377.188 495.13 377.828C494.536 378.461 494.169 379.352 494.028 380.5H500.38V380.336C500.317 379.234 500.02 378.383 499.489 377.781C498.958 377.172 498.239 376.867 497.333 376.867ZM509.506 375.32L509.565 376.727C510.495 375.633 511.748 375.086 513.327 375.086C515.1 375.086 516.307 375.766 516.948 377.125C517.37 376.516 517.916 376.023 518.588 375.648C519.268 375.273 520.069 375.086 520.991 375.086C523.772 375.086 525.186 376.559 525.233 379.504V388H523.065V379.633C523.065 378.727 522.858 378.051 522.444 377.605C522.03 377.152 521.334 376.926 520.358 376.926C519.553 376.926 518.885 377.168 518.354 377.652C517.823 378.129 517.514 378.773 517.428 379.586V388H515.248V379.691C515.248 377.848 514.346 376.926 512.541 376.926C511.12 376.926 510.147 377.531 509.623 378.742V388H507.455V375.32H509.506ZM542.021 388H539.771V370.938H542.021V388ZM558.917 381.801C558.917 383.73 558.476 385.285 557.593 386.465C556.71 387.645 555.515 388.234 554.007 388.234C552.468 388.234 551.257 387.746 550.374 386.77V392.875H548.206V375.32H550.187L550.292 376.727C551.175 375.633 552.402 375.086 553.972 375.086C555.495 375.086 556.698 375.66 557.581 376.809C558.472 377.957 558.917 379.555 558.917 381.602V381.801ZM556.749 381.555C556.749 380.125 556.445 378.996 555.835 378.168C555.226 377.34 554.39 376.926 553.327 376.926C552.015 376.926 551.03 377.508 550.374 378.672V384.73C551.023 385.887 552.015 386.465 553.351 386.465C554.39 386.465 555.214 386.055 555.823 385.234C556.441 384.406 556.749 383.18 556.749 381.555ZM571.466 384.637C571.466 384.051 571.243 383.598 570.798 383.277C570.36 382.949 569.591 382.668 568.489 382.434C567.395 382.199 566.524 381.918 565.876 381.59C565.235 381.262 564.759 380.871 564.446 380.418C564.141 379.965 563.989 379.426 563.989 378.801C563.989 377.762 564.427 376.883 565.302 376.164C566.184 375.445 567.309 375.086 568.677 375.086C570.114 375.086 571.278 375.457 572.169 376.199C573.067 376.941 573.516 377.891 573.516 379.047H571.337C571.337 378.453 571.083 377.941 570.575 377.512C570.075 377.082 569.442 376.867 568.677 376.867C567.887 376.867 567.27 377.039 566.825 377.383C566.38 377.727 566.157 378.176 566.157 378.73C566.157 379.254 566.364 379.648 566.778 379.914C567.192 380.18 567.938 380.434 569.016 380.676C570.102 380.918 570.981 381.207 571.653 381.543C572.325 381.879 572.821 382.285 573.141 382.762C573.47 383.23 573.634 383.805 573.634 384.484C573.634 385.617 573.18 386.527 572.274 387.215C571.368 387.895 570.192 388.234 568.747 388.234C567.731 388.234 566.833 388.055 566.052 387.695C565.27 387.336 564.657 386.836 564.212 386.195C563.774 385.547 563.555 384.848 563.555 384.098H565.723C565.762 384.824 566.052 385.402 566.591 385.832C567.137 386.254 567.856 386.465 568.747 386.465C569.567 386.465 570.223 386.301 570.716 385.973C571.216 385.637 571.466 385.191 571.466 384.637ZM586.686 386.746C585.842 387.738 584.604 388.234 582.971 388.234C581.62 388.234 580.588 387.844 579.877 387.062C579.174 386.273 578.819 385.109 578.811 383.57V375.32H580.979V383.512C580.979 385.434 581.76 386.395 583.323 386.395C584.979 386.395 586.08 385.777 586.627 384.543V375.32H588.795V388H586.733L586.686 386.746ZM596.539 375.32L596.598 376.727C597.527 375.633 598.781 375.086 600.359 375.086C602.133 375.086 603.34 375.766 603.98 377.125C604.402 376.516 604.949 376.023 605.621 375.648C606.301 375.273 607.102 375.086 608.023 375.086C610.805 375.086 612.219 376.559 612.266 379.504V388H610.098V379.633C610.098 378.727 609.891 378.051 609.477 377.605C609.062 377.152 608.367 376.926 607.391 376.926C606.586 376.926 605.918 377.168 605.387 377.652C604.855 378.129 604.547 378.773 604.461 379.586V388H602.281V379.691C602.281 377.848 601.379 376.926 599.574 376.926C598.152 376.926 597.18 377.531 596.656 378.742V388H594.488V375.32H596.539ZM628.468 376.855C629.429 375.676 630.679 375.086 632.218 375.086C634.898 375.086 636.249 376.598 636.273 379.621V388H634.105V379.609C634.097 378.695 633.886 378.02 633.472 377.582C633.066 377.145 632.429 376.926 631.562 376.926C630.859 376.926 630.241 377.113 629.71 377.488C629.179 377.863 628.765 378.355 628.468 378.965V388H626.3V370H628.468V376.855ZM649.747 388C649.622 387.75 649.52 387.305 649.442 386.664C648.434 387.711 647.231 388.234 645.833 388.234C644.583 388.234 643.555 387.883 642.751 387.18C641.954 386.469 641.555 385.57 641.555 384.484C641.555 383.164 642.055 382.141 643.055 381.414C644.063 380.68 645.477 380.312 647.298 380.312H649.407V379.316C649.407 378.559 649.18 377.957 648.727 377.512C648.274 377.059 647.606 376.832 646.723 376.832C645.95 376.832 645.302 377.027 644.778 377.418C644.255 377.809 643.993 378.281 643.993 378.836H641.813C641.813 378.203 642.036 377.594 642.481 377.008C642.934 376.414 643.544 375.945 644.309 375.602C645.083 375.258 645.93 375.086 646.852 375.086C648.313 375.086 649.458 375.453 650.286 376.188C651.114 376.914 651.544 377.918 651.575 379.199V385.035C651.575 386.199 651.723 387.125 652.02 387.812V388H649.747ZM646.149 386.348C646.829 386.348 647.473 386.172 648.083 385.82C648.692 385.469 649.134 385.012 649.407 384.449V381.848H647.708C645.052 381.848 643.723 382.625 643.723 384.18C643.723 384.859 643.95 385.391 644.403 385.773C644.856 386.156 645.438 386.348 646.149 386.348ZM664.756 384.637C664.756 384.051 664.534 383.598 664.088 383.277C663.651 382.949 662.881 382.668 661.78 382.434C660.686 382.199 659.815 381.918 659.166 381.59C658.526 381.262 658.049 380.871 657.737 380.418C657.432 379.965 657.28 379.426 657.28 378.801C657.28 377.762 657.717 376.883 658.592 376.164C659.475 375.445 660.6 375.086 661.967 375.086C663.405 375.086 664.569 375.457 665.459 376.199C666.358 376.941 666.807 377.891 666.807 379.047H664.627C664.627 378.453 664.373 377.941 663.866 377.512C663.366 377.082 662.733 376.867 661.967 376.867C661.178 376.867 660.561 377.039 660.116 377.383C659.67 377.727 659.448 378.176 659.448 378.73C659.448 379.254 659.655 379.648 660.069 379.914C660.483 380.18 661.229 380.434 662.307 380.676C663.393 380.918 664.272 381.207 664.944 381.543C665.616 381.879 666.112 382.285 666.432 382.762C666.76 383.23 666.924 383.805 666.924 384.484C666.924 385.617 666.471 386.527 665.565 387.215C664.659 387.895 663.483 388.234 662.038 388.234C661.022 388.234 660.123 388.055 659.342 387.695C658.561 387.336 657.948 386.836 657.502 386.195C657.065 385.547 656.846 384.848 656.846 384.098H659.014C659.053 384.824 659.342 385.402 659.881 385.832C660.428 386.254 661.147 386.465 662.038 386.465C662.858 386.465 663.514 386.301 664.006 385.973C664.506 385.637 664.756 385.191 664.756 384.637ZM691.236 381.801C691.236 383.738 690.791 385.297 689.9 386.477C689.009 387.648 687.814 388.234 686.314 388.234C684.712 388.234 683.474 387.668 682.599 386.535L682.494 388H680.502V370H682.67V376.715C683.545 375.629 684.752 375.086 686.291 375.086C687.83 375.086 689.037 375.668 689.912 376.832C690.795 377.996 691.236 379.59 691.236 381.613V381.801ZM689.068 381.555C689.068 380.078 688.783 378.938 688.212 378.133C687.642 377.328 686.822 376.926 685.752 376.926C684.322 376.926 683.295 377.59 682.67 378.918V384.402C683.334 385.73 684.369 386.395 685.775 386.395C686.814 386.395 687.623 385.992 688.201 385.188C688.779 384.383 689.068 383.172 689.068 381.555ZM701.64 388.234C699.921 388.234 698.523 387.672 697.445 386.547C696.366 385.414 695.827 383.902 695.827 382.012V381.613C695.827 380.355 696.066 379.234 696.542 378.25C697.027 377.258 697.698 376.484 698.558 375.93C699.425 375.367 700.363 375.086 701.37 375.086C703.019 375.086 704.3 375.629 705.214 376.715C706.128 377.801 706.585 379.355 706.585 381.379V382.281H697.995C698.027 383.531 698.39 384.543 699.085 385.316C699.788 386.082 700.679 386.465 701.757 386.465C702.523 386.465 703.171 386.309 703.702 385.996C704.234 385.684 704.698 385.27 705.097 384.754L706.421 385.785C705.359 387.418 703.765 388.234 701.64 388.234ZM701.37 376.867C700.495 376.867 699.761 377.188 699.167 377.828C698.573 378.461 698.206 379.352 698.066 380.5H704.417V380.336C704.355 379.234 704.058 378.383 703.527 377.781C702.995 377.172 702.277 376.867 701.37 376.867ZM716.766 388.234C715.048 388.234 713.649 387.672 712.571 386.547C711.493 385.414 710.954 383.902 710.954 382.012V381.613C710.954 380.355 711.192 379.234 711.669 378.25C712.153 377.258 712.825 376.484 713.684 375.93C714.552 375.367 715.489 375.086 716.497 375.086C718.145 375.086 719.427 375.629 720.341 376.715C721.255 377.801 721.712 379.355 721.712 381.379V382.281H713.122C713.153 383.531 713.516 384.543 714.212 385.316C714.915 386.082 715.805 386.465 716.884 386.465C717.649 386.465 718.298 386.309 718.829 385.996C719.36 385.684 719.825 385.27 720.223 384.754L721.548 385.785C720.485 387.418 718.891 388.234 716.766 388.234ZM716.497 376.867C715.622 376.867 714.888 377.188 714.294 377.828C713.7 378.461 713.333 379.352 713.192 380.5H719.544V380.336C719.481 379.234 719.184 378.383 718.653 377.781C718.122 377.172 717.403 376.867 716.497 376.867ZM728.682 375.32L728.752 376.914C729.721 375.695 730.987 375.086 732.549 375.086C735.229 375.086 736.58 376.598 736.604 379.621V388H734.436V379.609C734.428 378.695 734.217 378.02 733.803 377.582C733.397 377.145 732.76 376.926 731.893 376.926C731.19 376.926 730.573 377.113 730.041 377.488C729.51 377.863 729.096 378.355 728.799 378.965V388H726.631V375.32H728.682ZM753.568 372.25V375.32H755.935V376.996H753.568V384.859C753.568 385.367 753.673 385.75 753.884 386.008C754.095 386.258 754.455 386.383 754.962 386.383C755.212 386.383 755.556 386.336 755.994 386.242V388C755.423 388.156 754.869 388.234 754.33 388.234C753.361 388.234 752.63 387.941 752.138 387.355C751.646 386.77 751.4 385.938 751.4 384.859V376.996H749.091V375.32H751.4V372.25H753.568ZM763.046 376.855C764.007 375.676 765.257 375.086 766.796 375.086C769.476 375.086 770.827 376.598 770.851 379.621V388H768.683V379.609C768.675 378.695 768.464 378.02 768.05 377.582C767.644 377.145 767.007 376.926 766.14 376.926C765.437 376.926 764.82 377.113 764.288 377.488C763.757 377.863 763.343 378.355 763.046 378.965V388H760.878V370H763.046V376.855ZM781.759 388.234C780.04 388.234 778.641 387.672 777.563 386.547C776.485 385.414 775.946 383.902 775.946 382.012V381.613C775.946 380.355 776.184 379.234 776.661 378.25C777.145 377.258 777.817 376.484 778.677 375.93C779.544 375.367 780.481 375.086 781.489 375.086C783.138 375.086 784.419 375.629 785.333 376.715C786.247 377.801 786.704 379.355 786.704 381.379V382.281H778.114C778.145 383.531 778.509 384.543 779.204 385.316C779.907 386.082 780.798 386.465 781.876 386.465C782.641 386.465 783.29 386.309 783.821 385.996C784.352 385.684 784.817 385.27 785.216 384.754L786.54 385.785C785.477 387.418 783.884 388.234 781.759 388.234ZM781.489 376.867C780.614 376.867 779.88 377.188 779.286 377.828C778.692 378.461 778.325 379.352 778.184 380.5H784.536V380.336C784.473 379.234 784.177 378.383 783.645 377.781C783.114 377.172 782.395 376.867 781.489 376.867ZM802.332 388H800.164V375.32H802.332V388ZM799.988 371.957C799.988 371.605 800.094 371.309 800.305 371.066C800.523 370.824 800.844 370.703 801.266 370.703C801.688 370.703 802.008 370.824 802.227 371.066C802.445 371.309 802.555 371.605 802.555 371.957C802.555 372.309 802.445 372.602 802.227 372.836C802.008 373.07 801.688 373.188 801.266 373.188C800.844 373.188 800.523 373.07 800.305 372.836C800.094 372.602 799.988 372.309 799.988 371.957ZM810.263 375.32L810.334 376.914C811.302 375.695 812.568 375.086 814.13 375.086C816.81 375.086 818.162 376.598 818.185 379.621V388H816.017V379.609C816.009 378.695 815.798 378.02 815.384 377.582C814.978 377.145 814.341 376.926 813.474 376.926C812.771 376.926 812.154 377.113 811.623 377.488C811.091 377.863 810.677 378.355 810.38 378.965V388H808.212V375.32H810.263ZM823.327 381.555C823.327 379.609 823.788 378.047 824.71 376.867C825.632 375.68 826.839 375.086 828.331 375.086C829.816 375.086 830.991 375.594 831.859 376.609V370H834.027V388H832.034L831.929 386.641C831.062 387.703 829.855 388.234 828.308 388.234C826.839 388.234 825.64 387.633 824.71 386.43C823.788 385.227 823.327 383.656 823.327 381.719V381.555ZM825.495 381.801C825.495 383.238 825.792 384.363 826.386 385.176C826.98 385.988 827.8 386.395 828.847 386.395C830.222 386.395 831.226 385.777 831.859 384.543V378.719C831.21 377.523 830.214 376.926 828.87 376.926C827.808 376.926 826.98 377.336 826.386 378.156C825.792 378.977 825.495 380.191 825.495 381.801ZM847.63 386.746C846.786 387.738 845.548 388.234 843.915 388.234C842.563 388.234 841.532 387.844 840.821 387.062C840.118 386.273 839.763 385.109 839.755 383.57V375.32H841.923V383.512C841.923 385.434 842.704 386.395 844.266 386.395C845.923 386.395 847.024 385.777 847.571 384.543V375.32H849.739V388H847.677L847.63 386.746ZM862.827 384.637C862.827 384.051 862.604 383.598 862.159 383.277C861.721 382.949 860.952 382.668 859.85 382.434C858.756 382.199 857.885 381.918 857.237 381.59C856.596 381.262 856.12 380.871 855.807 380.418C855.502 379.965 855.35 379.426 855.35 378.801C855.35 377.762 855.788 376.883 856.663 376.164C857.545 375.445 858.67 375.086 860.038 375.086C861.475 375.086 862.639 375.457 863.53 376.199C864.428 376.941 864.877 377.891 864.877 379.047H862.698C862.698 378.453 862.444 377.941 861.936 377.512C861.436 377.082 860.803 376.867 860.038 376.867C859.248 376.867 858.631 377.039 858.186 377.383C857.741 377.727 857.518 378.176 857.518 378.73C857.518 379.254 857.725 379.648 858.139 379.914C858.553 380.18 859.299 380.434 860.377 380.676C861.463 380.918 862.342 381.207 863.014 381.543C863.686 381.879 864.182 382.285 864.502 382.762C864.83 383.23 864.995 383.805 864.995 384.484C864.995 385.617 864.541 386.527 863.635 387.215C862.729 387.895 861.553 388.234 860.108 388.234C859.092 388.234 858.194 388.055 857.413 387.695C856.631 387.336 856.018 386.836 855.573 386.195C855.135 385.547 854.916 384.848 854.916 384.098H857.084C857.123 384.824 857.413 385.402 857.952 385.832C858.498 386.254 859.217 386.465 860.108 386.465C860.928 386.465 861.584 386.301 862.077 385.973C862.577 385.637 862.827 385.191 862.827 384.637ZM873.16 372.25V375.32H875.527V376.996H873.16V384.859C873.16 385.367 873.266 385.75 873.477 386.008C873.688 386.258 874.047 386.383 874.555 386.383C874.805 386.383 875.148 386.336 875.586 386.242V388C875.016 388.156 874.461 388.234 873.922 388.234C872.953 388.234 872.223 387.941 871.73 387.355C871.238 386.77 870.992 385.938 870.992 384.859V376.996H868.684V375.32H870.992V372.25H873.16ZM886.599 377.266C886.271 377.211 885.916 377.184 885.533 377.184C884.111 377.184 883.146 377.789 882.638 379V388H880.47V375.32H882.58L882.615 376.785C883.326 375.652 884.334 375.086 885.638 375.086C886.06 375.086 886.38 375.141 886.599 375.25V377.266ZM895.362 384.824L898.316 375.32H900.636L895.538 389.957C894.749 392.066 893.495 393.121 891.777 393.121L891.366 393.086L890.558 392.934V391.176L891.144 391.223C891.878 391.223 892.448 391.074 892.855 390.777C893.269 390.48 893.609 389.938 893.874 389.148L894.355 387.859L889.831 375.32H892.198L895.362 384.824ZM906.493 371.301L906.247 375.613H904.735L904.747 370H906.493V371.301ZM918.209 384.637C918.209 384.051 917.987 383.598 917.541 383.277C917.104 382.949 916.334 382.668 915.233 382.434C914.139 382.199 913.268 381.918 912.62 381.59C911.979 381.262 911.502 380.871 911.19 380.418C910.885 379.965 910.733 379.426 910.733 378.801C910.733 377.762 911.17 376.883 912.045 376.164C912.928 375.445 914.053 375.086 915.42 375.086C916.858 375.086 918.022 375.457 918.913 376.199C919.811 376.941 920.26 377.891 920.26 379.047H918.08C918.08 378.453 917.827 377.941 917.319 377.512C916.819 377.082 916.186 376.867 915.42 376.867C914.631 376.867 914.014 377.039 913.569 377.383C913.123 377.727 912.901 378.176 912.901 378.73C912.901 379.254 913.108 379.648 913.522 379.914C913.936 380.18 914.682 380.434 915.76 380.676C916.846 380.918 917.725 381.207 918.397 381.543C919.069 381.879 919.565 382.285 919.885 382.762C920.213 383.23 920.377 383.805 920.377 384.484C920.377 385.617 919.924 386.527 919.018 387.215C918.112 387.895 916.936 388.234 915.491 388.234C914.475 388.234 913.577 388.055 912.795 387.695C912.014 387.336 911.401 386.836 910.955 386.195C910.518 385.547 910.299 384.848 910.299 384.098H912.467C912.506 384.824 912.795 385.402 913.334 385.832C913.881 386.254 914.6 386.465 915.491 386.465C916.311 386.465 916.967 386.301 917.459 385.973C917.959 385.637 918.209 385.191 918.209 384.637ZM458.023 434.637C458.023 434.051 457.801 433.598 457.355 433.277C456.918 432.949 456.148 432.668 455.047 432.434C453.953 432.199 453.082 431.918 452.434 431.59C451.793 431.262 451.316 430.871 451.004 430.418C450.699 429.965 450.547 429.426 450.547 428.801C450.547 427.762 450.984 426.883 451.859 426.164C452.742 425.445 453.867 425.086 455.234 425.086C456.672 425.086 457.836 425.457 458.727 426.199C459.625 426.941 460.074 427.891 460.074 429.047H457.895C457.895 428.453 457.641 427.941 457.133 427.512C456.633 427.082 456 426.867 455.234 426.867C454.445 426.867 453.828 427.039 453.383 427.383C452.938 427.727 452.715 428.176 452.715 428.73C452.715 429.254 452.922 429.648 453.336 429.914C453.75 430.18 454.496 430.434 455.574 430.676C456.66 430.918 457.539 431.207 458.211 431.543C458.883 431.879 459.379 432.285 459.699 432.762C460.027 433.23 460.191 433.805 460.191 434.484C460.191 435.617 459.738 436.527 458.832 437.215C457.926 437.895 456.75 438.234 455.305 438.234C454.289 438.234 453.391 438.055 452.609 437.695C451.828 437.336 451.215 436.836 450.77 436.195C450.332 435.547 450.113 434.848 450.113 434.098H452.281C452.32 434.824 452.609 435.402 453.148 435.832C453.695 436.254 454.414 436.465 455.305 436.465C456.125 436.465 456.781 436.301 457.273 435.973C457.773 435.637 458.023 435.191 458.023 434.637ZM468.357 422.25V425.32H470.724V426.996H468.357V434.859C468.357 435.367 468.462 435.75 468.673 436.008C468.884 436.258 469.244 436.383 469.752 436.383C470.002 436.383 470.345 436.336 470.783 436.242V438C470.212 438.156 469.658 438.234 469.119 438.234C468.15 438.234 467.42 437.941 466.927 437.355C466.435 436.77 466.189 435.938 466.189 434.859V426.996H463.88V425.32H466.189V422.25H468.357ZM483.495 438C483.37 437.75 483.269 437.305 483.191 436.664C482.183 437.711 480.98 438.234 479.581 438.234C478.331 438.234 477.304 437.883 476.499 437.18C475.702 436.469 475.304 435.57 475.304 434.484C475.304 433.164 475.804 432.141 476.804 431.414C477.812 430.68 479.226 430.312 481.046 430.312H483.155V429.316C483.155 428.559 482.929 427.957 482.476 427.512C482.023 427.059 481.355 426.832 480.472 426.832C479.698 426.832 479.05 427.027 478.527 427.418C478.003 427.809 477.741 428.281 477.741 428.836H475.562C475.562 428.203 475.784 427.594 476.23 427.008C476.683 426.414 477.292 425.945 478.058 425.602C478.831 425.258 479.679 425.086 480.601 425.086C482.062 425.086 483.206 425.453 484.034 426.188C484.862 426.914 485.292 427.918 485.323 429.199V435.035C485.323 436.199 485.472 437.125 485.769 437.812V438H483.495ZM479.898 436.348C480.577 436.348 481.222 436.172 481.831 435.82C482.441 435.469 482.882 435.012 483.155 434.449V431.848H481.456C478.8 431.848 477.472 432.625 477.472 434.18C477.472 434.859 477.698 435.391 478.152 435.773C478.605 436.156 479.187 436.348 479.898 436.348ZM493.173 425.32L493.243 426.914C494.212 425.695 495.477 425.086 497.04 425.086C499.72 425.086 501.071 426.598 501.095 429.621V438H498.927V429.609C498.919 428.695 498.708 428.02 498.294 427.582C497.888 427.145 497.251 426.926 496.384 426.926C495.68 426.926 495.063 427.113 494.532 427.488C494.001 427.863 493.587 428.355 493.29 428.965V438H491.122V425.32H493.173ZM506.237 431.555C506.237 429.609 506.698 428.047 507.62 426.867C508.541 425.68 509.748 425.086 511.241 425.086C512.725 425.086 513.901 425.594 514.768 426.609V420H516.936V438H514.944L514.838 436.641C513.971 437.703 512.764 438.234 511.217 438.234C509.748 438.234 508.549 437.633 507.62 436.43C506.698 435.227 506.237 433.656 506.237 431.719V431.555ZM508.405 431.801C508.405 433.238 508.702 434.363 509.295 435.176C509.889 435.988 510.709 436.395 511.756 436.395C513.131 436.395 514.135 435.777 514.768 434.543V428.719C514.12 427.523 513.123 426.926 511.78 426.926C510.717 426.926 509.889 427.336 509.295 428.156C508.702 428.977 508.405 430.191 508.405 431.801ZM530.539 438C530.414 437.75 530.312 437.305 530.234 436.664C529.227 437.711 528.023 438.234 526.625 438.234C525.375 438.234 524.348 437.883 523.543 437.18C522.746 436.469 522.348 435.57 522.348 434.484C522.348 433.164 522.848 432.141 523.848 431.414C524.855 430.68 526.27 430.312 528.09 430.312H530.199V429.316C530.199 428.559 529.973 427.957 529.52 427.512C529.066 427.059 528.398 426.832 527.516 426.832C526.742 426.832 526.094 427.027 525.57 427.418C525.047 427.809 524.785 428.281 524.785 428.836H522.605C522.605 428.203 522.828 427.594 523.273 427.008C523.727 426.414 524.336 425.945 525.102 425.602C525.875 425.258 526.723 425.086 527.645 425.086C529.105 425.086 530.25 425.453 531.078 426.188C531.906 426.914 532.336 427.918 532.367 429.199V435.035C532.367 436.199 532.516 437.125 532.812 437.812V438H530.539ZM526.941 436.348C527.621 436.348 528.266 436.172 528.875 435.82C529.484 435.469 529.926 435.012 530.199 434.449V431.848H528.5C525.844 431.848 524.516 432.625 524.516 434.18C524.516 434.859 524.742 435.391 525.195 435.773C525.648 436.156 526.23 436.348 526.941 436.348ZM544.295 427.266C543.966 427.211 543.611 427.184 543.228 427.184C541.806 427.184 540.841 427.789 540.334 429V438H538.166V425.32H540.275L540.31 426.785C541.021 425.652 542.029 425.086 543.334 425.086C543.755 425.086 544.076 425.141 544.295 425.25V427.266ZM547.937 431.555C547.937 429.609 548.398 428.047 549.32 426.867C550.241 425.68 551.448 425.086 552.941 425.086C554.425 425.086 555.601 425.594 556.468 426.609V420H558.636V438H556.644L556.538 436.641C555.671 437.703 554.464 438.234 552.917 438.234C551.448 438.234 550.249 437.633 549.32 436.43C548.398 435.227 547.937 433.656 547.937 431.719V431.555ZM550.105 431.801C550.105 433.238 550.402 434.363 550.995 435.176C551.589 435.988 552.409 436.395 553.456 436.395C554.831 436.395 555.835 435.777 556.468 434.543V428.719C555.82 427.523 554.823 426.926 553.48 426.926C552.417 426.926 551.589 427.336 550.995 428.156C550.402 428.977 550.105 430.191 550.105 431.801ZM572.237 431.555C572.237 429.609 572.698 428.047 573.62 426.867C574.541 425.68 575.748 425.086 577.241 425.086C578.725 425.086 579.901 425.594 580.768 426.609V420H582.936V438H580.944L580.838 436.641C579.971 437.703 578.764 438.234 577.217 438.234C575.748 438.234 574.549 437.633 573.62 436.43C572.698 435.227 572.237 433.656 572.237 431.719V431.555ZM574.405 431.801C574.405 433.238 574.702 434.363 575.295 435.176C575.889 435.988 576.709 436.395 577.756 436.395C579.131 436.395 580.135 435.777 580.768 434.543V428.719C580.12 427.523 579.123 426.926 577.78 426.926C576.717 426.926 575.889 427.336 575.295 428.156C574.702 428.977 574.405 430.191 574.405 431.801ZM596.539 436.746C595.695 437.738 594.457 438.234 592.824 438.234C591.473 438.234 590.441 437.844 589.73 437.062C589.027 436.273 588.672 435.109 588.664 433.57V425.32H590.832V433.512C590.832 435.434 591.613 436.395 593.176 436.395C594.832 436.395 595.934 435.777 596.48 434.543V425.32H598.648V438H596.586L596.539 436.746ZM606.392 425.32L606.451 426.727C607.38 425.633 608.634 425.086 610.212 425.086C611.986 425.086 613.193 425.766 613.834 427.125C614.255 426.516 614.802 426.023 615.474 425.648C616.154 425.273 616.955 425.086 617.877 425.086C620.658 425.086 622.072 426.559 622.119 429.504V438H619.951V429.633C619.951 428.727 619.744 428.051 619.33 427.605C618.916 427.152 618.22 426.926 617.244 426.926C616.439 426.926 615.771 427.168 615.24 427.652C614.709 428.129 614.4 428.773 614.314 429.586V438H612.134V429.691C612.134 427.848 611.232 426.926 609.427 426.926C608.005 426.926 607.033 427.531 606.509 428.742V438H604.341V425.32H606.392ZM629.839 425.32L629.898 426.727C630.827 425.633 632.081 425.086 633.659 425.086C635.433 425.086 636.64 425.766 637.28 427.125C637.702 426.516 638.249 426.023 638.921 425.648C639.601 425.273 640.402 425.086 641.323 425.086C644.105 425.086 645.519 426.559 645.566 429.504V438H643.398V429.633C643.398 428.727 643.191 428.051 642.777 427.605C642.363 427.152 641.667 426.926 640.691 426.926C639.886 426.926 639.218 427.168 638.687 427.652C638.155 428.129 637.847 428.773 637.761 429.586V438H635.581V429.691C635.581 427.848 634.679 426.926 632.874 426.926C631.452 426.926 630.48 427.531 629.956 428.742V438H627.788V425.32H629.839ZM655.395 434.824L658.348 425.32H660.669L655.571 439.957C654.782 442.066 653.528 443.121 651.809 443.121L651.399 443.086L650.591 442.934V441.176L651.177 441.223C651.911 441.223 652.481 441.074 652.887 440.777C653.302 440.48 653.641 439.938 653.907 439.148L654.387 437.859L649.864 425.32H652.231L655.395 434.824Z" fill="white"/>
<g clip-path="url(#clip0)">
<path d="M331.328 399.291C331.311 399.224 331.292 399.158 331.271 399.092L313.506 344.582C308.853 326.487 293.173 316.522 269.34 316.522C266.858 316.522 264.441 317.295 262.427 318.693C261.875 318.2 261.146 317.901 260.348 317.901H260.34C258.614 317.905 257.219 319.307 257.223 321.032C257.229 323.922 257.248 331.984 257.248 331.984H246.752L246.746 292.572H257.224L257.223 292.753C257.207 294.478 258.593 295.89 260.319 295.907C262.043 295.938 263.457 294.537 263.472 292.811L263.503 289.476C263.511 288.642 263.185 287.84 262.598 287.248C262.011 286.655 261.212 286.322 260.378 286.322H243.621C241.895 286.322 240.496 287.721 240.496 289.447V318.026C238.723 317.051 236.714 316.522 234.66 316.522C210.827 316.522 195.146 326.486 190.494 344.582L172.729 399.093C172.708 399.158 172.689 399.224 172.672 399.291C170.828 406.54 172.821 413.462 178.141 418.281C182.049 421.822 187.173 423.678 192.528 423.678C195.253 423.678 198.038 423.197 200.754 422.213C203.106 421.36 212.529 419.819 217.916 419.047C217.999 419.035 218.081 419.02 218.163 419.002C227.624 416.859 236.079 411.642 241.971 404.313C245.989 399.314 246.287 393.756 246.576 388.381C246.625 387.468 246.675 386.524 246.744 385.598C246.749 385.522 246.752 385.444 246.752 385.367V364.395L252 362.003L257.248 364.395V385.367C257.248 385.444 257.251 385.522 257.257 385.598C257.325 386.524 257.376 387.468 257.425 388.381C257.713 393.756 258.011 399.314 262.03 404.313C267.921 411.642 276.376 416.858 285.837 419.002C285.919 419.02 286.002 419.035 286.085 419.047C291.471 419.819 300.894 421.36 303.247 422.213C305.962 423.197 308.747 423.678 311.472 423.678C316.827 423.677 321.951 421.822 325.859 418.281C331.179 413.462 333.172 406.54 331.328 399.291ZM240.503 385.253C240.434 386.203 240.383 387.139 240.335 388.046C240.078 392.834 239.856 396.969 237.099 400.398C232.113 406.601 224.944 411.03 216.902 412.88C214.908 413.166 202.262 415.019 198.624 416.338C192.755 418.464 186.514 417.434 182.336 413.649C178.812 410.456 177.491 405.824 178.705 400.927L196.467 346.423C196.488 346.357 196.507 346.291 196.525 346.225C201.455 326.841 219.985 322.772 234.66 322.772C236.307 322.772 237.831 323.437 238.953 324.645C239.836 325.597 240.367 326.772 240.497 328.032V334.714C240.497 334.82 240.495 334.927 240.493 335.032V335.036C240.352 340.933 236.267 346.095 230.559 347.59L229.261 347.931C226.485 348.658 223.544 348.351 220.98 347.065L220.394 346.772C219.257 346.202 217.888 346.378 216.933 347.217C215.977 348.056 215.625 349.391 216.042 350.592L218.871 358.73H209.403C207.677 358.73 206.278 360.129 206.278 361.854C206.278 363.58 207.677 364.979 209.403 364.979H221.044L223.851 373.055V373.37C223.851 373.908 223.839 374.43 223.817 374.939L201.6 377.98C199.89 378.215 198.693 379.79 198.928 381.5C199.142 383.066 200.482 384.202 202.02 384.202C202.161 384.202 202.304 384.192 202.447 384.172L222.723 381.396C220.794 387.31 216.366 391.34 209.224 396.836L208.591 397.323C207.224 398.376 206.968 400.337 208.02 401.705C208.636 402.505 209.562 402.925 210.499 402.925C211.164 402.925 211.834 402.713 212.402 402.276L213.035 401.789C222.986 394.131 230.041 387.613 230.099 373.546C230.106 373.52 230.112 373.493 230.118 373.467C230.347 372.431 231.058 371.551 232.02 371.113L240.503 367.246V385.253ZM229.427 365.425C228.955 365.64 228.503 365.893 228.077 366.179L223.99 354.422C226.263 354.711 228.59 354.567 230.845 353.976L232.143 353.636C239.53 351.7 245.067 345.584 246.424 338.233H248.875V356.559L229.427 365.425ZM255.125 338.233H257.576C258.933 345.585 264.47 351.701 271.857 353.636L273.155 353.976C275.41 354.567 277.736 354.711 280.01 354.422L275.924 366.18C275.497 365.894 275.045 365.641 274.573 365.426L255.125 356.559V338.233H255.125ZM321.664 413.649C317.486 417.434 311.245 418.465 305.376 416.338C301.738 415.019 289.092 413.167 287.098 412.88C279.056 411.031 271.887 406.601 266.9 400.398C264.143 396.969 263.922 392.834 263.665 388.047C263.616 387.14 263.566 386.203 263.497 385.254V367.245L271.98 371.112C272.942 371.551 273.652 372.431 273.881 373.466C273.887 373.493 273.894 373.52 273.9 373.546C273.959 387.613 281.014 394.13 290.965 401.789L291.597 402.276C292.165 402.713 292.835 402.924 293.501 402.924C294.438 402.924 295.364 402.504 295.98 401.704C297.032 400.337 296.776 398.375 295.408 397.323L294.776 396.836C287.634 391.339 283.205 387.309 281.277 381.396L301.552 384.172C301.696 384.191 301.839 384.201 301.98 384.201C303.518 384.201 304.858 383.066 305.072 381.5C305.306 379.79 304.11 378.214 302.4 377.98L280.183 374.938C280.16 374.429 280.149 373.907 280.149 373.37V373.054L282.956 364.979H294.597C296.323 364.979 297.722 363.58 297.722 361.854C297.722 360.129 296.323 358.729 294.597 358.729H285.129L287.957 350.591C288.375 349.39 288.022 348.056 287.067 347.217C286.111 346.378 284.742 346.202 283.605 346.772L283.02 347.065C280.454 348.35 277.514 348.658 274.738 347.93L273.44 347.59C267.737 346.096 263.655 340.942 263.507 335.053C263.506 334.835 263.49 328.508 263.489 328.189C263.589 326.87 264.127 325.636 265.046 324.646C266.169 323.437 267.693 322.772 269.339 322.772C284.015 322.772 302.544 326.841 307.475 346.225C307.492 346.292 307.511 346.358 307.532 346.423L325.295 400.927C326.509 405.824 325.188 410.456 321.664 413.649Z" fill="white"/>
<path d="M259.737 303.898C258.449 304.16 257.443 305.218 257.254 306.52C257.065 307.822 257.752 309.141 258.922 309.74C260.118 310.354 261.606 310.119 262.559 309.17C263.482 308.25 263.724 306.808 263.174 305.631C262.575 304.352 261.123 303.617 259.737 303.898Z" fill="white"/>
</g>
<defs>
<clipPath id="clip0">
<rect width="160" height="160" fill="white" transform="translate(172 275)"/>
</clipPath>
</defs>
</svg>
